<?xml version="1.0" encoding="utf-8" standalone="no"?>
<!DOCTYPE svg PUBLIC "-//W3C//DTD SVG 1.1//EN"
  "http://www.w3.org/Graphics/SVG/1.1/DTD/svg11.dtd">
<svg xmlns:xlink="http://www.w3.org/1999/xlink" width="725.93pt" height="495.3725pt" viewBox="0 0 725.93 495.3725" xmlns="http://www.w3.org/2000/svg" version="1.1">
 <metadata>
  <rdf:RDF xmlns:dc="http://purl.org/dc/elements/1.1/" xmlns:cc="http://creativecommons.org/ns#" xmlns:rdf="http://www.w3.org/1999/02/22-rdf-syntax-ns#">
   <cc:Work>
    <dc:type rdf:resource="http://purl.org/dc/dcmitype/StillImage"/>
    <dc:date>2025-12-04T17:13:43.597029</dc:date>
    <dc:format>image/svg+xml</dc:format>
    <dc:creator>
     <cc:Agent>
      <dc:title>Matplotlib v3.9.1, https://matplotlib.org/</dc:title>
     </cc:Agent>
    </dc:creator>
   </cc:Work>
  </rdf:RDF>
 </metadata>
 <defs>
  <style type="text/css">*{stroke-linejoin: round; stroke-linecap: butt}</style>
 </defs>
 <g id="figure_1">
  <g id="patch_1">
   <path d="M 0 495.3725 
L 725.93 495.3725 
L 725.93 0 
L 0 0 
z
" style="fill: #ffffff"/>
  </g>
  <g id="axes_1">
   <g id="patch_2">
    <path d="M 38.08 178.707491 
L 344.763125 178.707491 
L 344.763125 25.8 
L 38.08 25.8 
z
" style="fill: #ffffff"/>
   </g>
   <g id="matplotlib.axis_1">
    <g id="xtick_1">
     <g id="line2d_1">
      <defs>
       <path id="m7fc8904600" d="M 0 0 
L 0 3.5 
" style="stroke: #000000; stroke-width: 0.8"/>
      </defs>
      <g>
       <use xlink:href="#m7fc8904600" x="52.020142" y="178.707491" style="stroke: #000000; stroke-width: 0.8"/>
      </g>
     </g>
     <g id="text_1">
      <!-- 0 -->
      <g transform="translate(48.520142 195.428741) scale(0.14 -0.14)">
       <defs>
        <path id="TimesNewRomanPSMT-30" d="M 231 2094 
Q 231 2819 450 3342 
Q 669 3866 1031 4122 
Q 1313 4325 1613 4325 
Q 2100 4325 2488 3828 
Q 2972 3213 2972 2159 
Q 2972 1422 2759 906 
Q 2547 391 2217 158 
Q 1888 -75 1581 -75 
Q 975 -75 572 641 
Q 231 1244 231 2094 
z
M 844 2016 
Q 844 1141 1059 588 
Q 1238 122 1591 122 
Q 1759 122 1940 273 
Q 2122 425 2216 781 
Q 2359 1319 2359 2297 
Q 2359 3022 2209 3506 
Q 2097 3866 1919 4016 
Q 1791 4119 1609 4119 
Q 1397 4119 1231 3928 
Q 1006 3669 925 3112 
Q 844 2556 844 2016 
z
" transform="scale(0.015625)"/>
       </defs>
       <use xlink:href="#TimesNewRomanPSMT-30"/>
      </g>
     </g>
    </g>
    <g id="xtick_2">
     <g id="line2d_2">
      <g>
       <use xlink:href="#m7fc8904600" x="121.720852" y="178.707491" style="stroke: #000000; stroke-width: 0.8"/>
      </g>
     </g>
     <g id="text_2">
      <!-- 2 -->
      <g transform="translate(118.220852 195.428741) scale(0.14 -0.14)">
       <defs>
        <path id="TimesNewRomanPSMT-32" d="M 2934 816 
L 2638 0 
L 138 0 
L 138 116 
Q 1241 1122 1691 1759 
Q 2141 2397 2141 2925 
Q 2141 3328 1894 3587 
Q 1647 3847 1303 3847 
Q 991 3847 742 3664 
Q 494 3481 375 3128 
L 259 3128 
Q 338 3706 661 4015 
Q 984 4325 1469 4325 
Q 1984 4325 2329 3994 
Q 2675 3663 2675 3213 
Q 2675 2891 2525 2569 
Q 2294 2063 1775 1497 
Q 997 647 803 472 
L 1909 472 
Q 2247 472 2383 497 
Q 2519 522 2628 598 
Q 2738 675 2819 816 
L 2934 816 
z
" transform="scale(0.015625)"/>
       </defs>
       <use xlink:href="#TimesNewRomanPSMT-32"/>
      </g>
     </g>
    </g>
    <g id="xtick_3">
     <g id="line2d_3">
      <g>
       <use xlink:href="#m7fc8904600" x="191.421563" y="178.707491" style="stroke: #000000; stroke-width: 0.8"/>
      </g>
     </g>
     <g id="text_3">
      <!-- 4 -->
      <g transform="translate(187.921563 195.428741) scale(0.14 -0.14)">
       <defs>
        <path id="TimesNewRomanPSMT-34" d="M 2978 1563 
L 2978 1119 
L 2409 1119 
L 2409 0 
L 1894 0 
L 1894 1119 
L 100 1119 
L 100 1519 
L 2066 4325 
L 2409 4325 
L 2409 1563 
L 2978 1563 
z
M 1894 1563 
L 1894 3666 
L 406 1563 
L 1894 1563 
z
" transform="scale(0.015625)"/>
       </defs>
       <use xlink:href="#TimesNewRomanPSMT-34"/>
      </g>
     </g>
    </g>
    <g id="xtick_4">
     <g id="line2d_4">
      <g>
       <use xlink:href="#m7fc8904600" x="261.122273" y="178.707491" style="stroke: #000000; stroke-width: 0.8"/>
      </g>
     </g>
     <g id="text_4">
      <!-- 6 -->
      <g transform="translate(257.622273 195.428741) scale(0.14 -0.14)">
       <defs>
        <path id="TimesNewRomanPSMT-36" d="M 2869 4325 
L 2869 4209 
Q 2456 4169 2195 4045 
Q 1934 3922 1679 3669 
Q 1425 3416 1258 3105 
Q 1091 2794 978 2366 
Q 1428 2675 1881 2675 
Q 2316 2675 2634 2325 
Q 2953 1975 2953 1425 
Q 2953 894 2631 456 
Q 2244 -75 1606 -75 
Q 1172 -75 869 213 
Q 275 772 275 1663 
Q 275 2231 503 2743 
Q 731 3256 1154 3653 
Q 1578 4050 1965 4187 
Q 2353 4325 2688 4325 
L 2869 4325 
z
M 925 2138 
Q 869 1716 869 1456 
Q 869 1156 980 804 
Q 1091 453 1309 247 
Q 1469 100 1697 100 
Q 1969 100 2183 356 
Q 2397 613 2397 1088 
Q 2397 1622 2184 2012 
Q 1972 2403 1581 2403 
Q 1463 2403 1327 2353 
Q 1191 2303 925 2138 
z
" transform="scale(0.015625)"/>
       </defs>
       <use xlink:href="#TimesNewRomanPSMT-36"/>
      </g>
     </g>
    </g>
    <g id="xtick_5">
     <g id="line2d_5">
      <g>
       <use xlink:href="#m7fc8904600" x="330.822983" y="178.707491" style="stroke: #000000; stroke-width: 0.8"/>
      </g>
     </g>
     <g id="text_5">
      <!-- 8 -->
      <g transform="translate(327.322983 195.428741) scale(0.14 -0.14)">
       <defs>
        <path id="TimesNewRomanPSMT-38" d="M 1228 2134 
Q 725 2547 579 2797 
Q 434 3047 434 3316 
Q 434 3728 753 4026 
Q 1072 4325 1600 4325 
Q 2113 4325 2425 4047 
Q 2738 3769 2738 3413 
Q 2738 3175 2569 2928 
Q 2400 2681 1866 2347 
Q 2416 1922 2594 1678 
Q 2831 1359 2831 1006 
Q 2831 559 2490 242 
Q 2150 -75 1597 -75 
Q 994 -75 656 303 
Q 388 606 388 966 
Q 388 1247 577 1523 
Q 766 1800 1228 2134 
z
M 1719 2469 
Q 2094 2806 2194 3001 
Q 2294 3197 2294 3444 
Q 2294 3772 2109 3958 
Q 1925 4144 1606 4144 
Q 1288 4144 1088 3959 
Q 888 3775 888 3528 
Q 888 3366 970 3203 
Q 1053 3041 1206 2894 
L 1719 2469 
z
M 1375 2016 
Q 1116 1797 991 1539 
Q 866 1281 866 981 
Q 866 578 1086 336 
Q 1306 94 1647 94 
Q 1984 94 2187 284 
Q 2391 475 2391 747 
Q 2391 972 2272 1150 
Q 2050 1481 1375 2016 
z
" transform="scale(0.015625)"/>
       </defs>
       <use xlink:href="#TimesNewRomanPSMT-38"/>
      </g>
     </g>
    </g>
    <g id="text_6">
     <!-- h -->
     <g transform="translate(187.921563 212.144679) scale(0.14 -0.14)">
      <defs>
       <path id="TimesNewRomanPSMT-68" d="M 1041 4444 
L 1041 2350 
Q 1388 2731 1591 2839 
Q 1794 2947 1997 2947 
Q 2241 2947 2416 2812 
Q 2591 2678 2675 2391 
Q 2734 2191 2734 1659 
L 2734 647 
Q 2734 375 2778 275 
Q 2809 200 2884 156 
Q 2959 113 3159 113 
L 3159 0 
L 1753 0 
L 1753 113 
L 1819 113 
Q 2019 113 2097 173 
Q 2175 234 2206 353 
Q 2216 403 2216 647 
L 2216 1659 
Q 2216 2128 2167 2275 
Q 2119 2422 2012 2495 
Q 1906 2569 1756 2569 
Q 1603 2569 1437 2487 
Q 1272 2406 1041 2159 
L 1041 647 
Q 1041 353 1073 281 
Q 1106 209 1195 161 
Q 1284 113 1503 113 
L 1503 0 
L 84 0 
L 84 113 
Q 275 113 384 172 
Q 447 203 484 290 
Q 522 378 522 647 
L 522 3238 
Q 522 3728 498 3840 
Q 475 3953 426 3993 
Q 378 4034 297 4034 
Q 231 4034 84 3984 
L 41 4094 
L 897 4444 
L 1041 4444 
z
" transform="scale(0.015625)"/>
      </defs>
      <use xlink:href="#TimesNewRomanPSMT-68"/>
     </g>
    </g>
   </g>
   <g id="matplotlib.axis_2">
    <g id="ytick_1">
     <g id="line2d_6">
      <defs>
       <path id="mf93764bfb5" d="M 0 0 
L -3.5 0 
" style="stroke: #000000; stroke-width: 0.8"/>
      </defs>
      <g>
       <use xlink:href="#mf93764bfb5" x="38.08" y="162.611966" style="stroke: #000000; stroke-width: 0.8"/>
      </g>
     </g>
     <g id="text_7">
      <!-- 1 -->
      <g transform="translate(24.08 167.472591) scale(0.14 -0.14)">
       <defs>
        <path id="TimesNewRomanPSMT-31" d="M 750 3822 
L 1781 4325 
L 1884 4325 
L 1884 747 
Q 1884 391 1914 303 
Q 1944 216 2037 169 
Q 2131 122 2419 116 
L 2419 0 
L 825 0 
L 825 116 
Q 1125 122 1212 167 
Q 1300 213 1334 289 
Q 1369 366 1369 747 
L 1369 3034 
Q 1369 3497 1338 3628 
Q 1316 3728 1258 3775 
Q 1200 3822 1119 3822 
Q 1003 3822 797 3725 
L 750 3822 
z
" transform="scale(0.015625)"/>
       </defs>
       <use xlink:href="#TimesNewRomanPSMT-31"/>
      </g>
     </g>
    </g>
    <g id="ytick_2">
     <g id="line2d_7">
      <g>
       <use xlink:href="#mf93764bfb5" x="38.08" y="130.420915" style="stroke: #000000; stroke-width: 0.8"/>
      </g>
     </g>
     <g id="text_8">
      <!-- 2 -->
      <g transform="translate(24.08 135.28154) scale(0.14 -0.14)">
       <use xlink:href="#TimesNewRomanPSMT-32"/>
      </g>
     </g>
    </g>
    <g id="ytick_3">
     <g id="line2d_8">
      <g>
       <use xlink:href="#mf93764bfb5" x="38.08" y="98.229864" style="stroke: #000000; stroke-width: 0.8"/>
      </g>
     </g>
     <g id="text_9">
      <!-- 3 -->
      <g transform="translate(24.08 103.090489) scale(0.14 -0.14)">
       <defs>
        <path id="TimesNewRomanPSMT-33" d="M 325 3431 
Q 506 3859 782 4092 
Q 1059 4325 1472 4325 
Q 1981 4325 2253 3994 
Q 2459 3747 2459 3466 
Q 2459 3003 1878 2509 
Q 2269 2356 2469 2072 
Q 2669 1788 2669 1403 
Q 2669 853 2319 450 
Q 1863 -75 997 -75 
Q 569 -75 414 31 
Q 259 138 259 259 
Q 259 350 332 419 
Q 406 488 509 488 
Q 588 488 669 463 
Q 722 447 909 348 
Q 1097 250 1169 231 
Q 1284 197 1416 197 
Q 1734 197 1970 444 
Q 2206 691 2206 1028 
Q 2206 1275 2097 1509 
Q 2016 1684 1919 1775 
Q 1784 1900 1550 2001 
Q 1316 2103 1072 2103 
L 972 2103 
L 972 2197 
Q 1219 2228 1467 2375 
Q 1716 2522 1828 2728 
Q 1941 2934 1941 3181 
Q 1941 3503 1739 3701 
Q 1538 3900 1238 3900 
Q 753 3900 428 3381 
L 325 3431 
z
" transform="scale(0.015625)"/>
       </defs>
       <use xlink:href="#TimesNewRomanPSMT-33"/>
      </g>
     </g>
    </g>
    <g id="ytick_4">
     <g id="line2d_9">
      <g>
       <use xlink:href="#mf93764bfb5" x="38.08" y="66.038813" style="stroke: #000000; stroke-width: 0.8"/>
      </g>
     </g>
     <g id="text_10">
      <!-- 4 -->
      <g transform="translate(24.08 70.899438) scale(0.14 -0.14)">
       <use xlink:href="#TimesNewRomanPSMT-34"/>
      </g>
     </g>
    </g>
    <g id="ytick_5">
     <g id="line2d_10">
      <g>
       <use xlink:href="#mf93764bfb5" x="38.08" y="33.847763" style="stroke: #000000; stroke-width: 0.8"/>
      </g>
     </g>
     <g id="text_11">
      <!-- 5 -->
      <g transform="translate(24.08 38.708388) scale(0.14 -0.14)">
       <defs>
        <path id="TimesNewRomanPSMT-35" d="M 2778 4238 
L 2534 3706 
L 1259 3706 
L 981 3138 
Q 1809 3016 2294 2522 
Q 2709 2097 2709 1522 
Q 2709 1188 2573 903 
Q 2438 619 2231 419 
Q 2025 219 1772 97 
Q 1413 -75 1034 -75 
Q 653 -75 479 54 
Q 306 184 306 341 
Q 306 428 378 495 
Q 450 563 559 563 
Q 641 563 702 538 
Q 763 513 909 409 
Q 1144 247 1384 247 
Q 1750 247 2026 523 
Q 2303 800 2303 1197 
Q 2303 1581 2056 1914 
Q 1809 2247 1375 2428 
Q 1034 2569 447 2591 
L 1259 4238 
L 2778 4238 
z
" transform="scale(0.015625)"/>
       </defs>
       <use xlink:href="#TimesNewRomanPSMT-35"/>
      </g>
     </g>
    </g>
    <g id="text_12">
     <!-- Penalty Factor $\gamma$ of $\gamma T_{0}$ -->
     <g transform="translate(17 168.193746) rotate(-90) scale(0.14 -0.14)">
      <defs>
       <path id="TimesNewRomanPSMT-50" d="M 1313 1984 
L 1313 750 
Q 1313 350 1400 253 
Q 1519 116 1759 116 
L 1922 116 
L 1922 0 
L 106 0 
L 106 116 
L 266 116 
Q 534 116 650 291 
Q 713 388 713 750 
L 713 3488 
Q 713 3888 628 3984 
Q 506 4122 266 4122 
L 106 4122 
L 106 4238 
L 1659 4238 
Q 2228 4238 2556 4120 
Q 2884 4003 3109 3725 
Q 3334 3447 3334 3066 
Q 3334 2547 2992 2222 
Q 2650 1897 2025 1897 
Q 1872 1897 1694 1919 
Q 1516 1941 1313 1984 
z
M 1313 2163 
Q 1478 2131 1606 2115 
Q 1734 2100 1825 2100 
Q 2150 2100 2386 2351 
Q 2622 2603 2622 3003 
Q 2622 3278 2509 3514 
Q 2397 3750 2190 3867 
Q 1984 3984 1722 3984 
Q 1563 3984 1313 3925 
L 1313 2163 
z
" transform="scale(0.015625)"/>
       <path id="TimesNewRomanPSMT-65" d="M 681 1784 
Q 678 1147 991 784 
Q 1303 422 1725 422 
Q 2006 422 2214 576 
Q 2422 731 2563 1106 
L 2659 1044 
Q 2594 616 2278 264 
Q 1963 -88 1488 -88 
Q 972 -88 605 314 
Q 238 716 238 1394 
Q 238 2128 614 2539 
Q 991 2950 1559 2950 
Q 2041 2950 2350 2633 
Q 2659 2316 2659 1784 
L 681 1784 
z
M 681 1966 
L 2006 1966 
Q 1991 2241 1941 2353 
Q 1863 2528 1708 2628 
Q 1553 2728 1384 2728 
Q 1125 2728 920 2526 
Q 716 2325 681 1966 
z
" transform="scale(0.015625)"/>
       <path id="TimesNewRomanPSMT-6e" d="M 1034 2341 
Q 1538 2947 1994 2947 
Q 2228 2947 2397 2830 
Q 2566 2713 2666 2444 
Q 2734 2256 2734 1869 
L 2734 647 
Q 2734 375 2778 278 
Q 2813 200 2889 156 
Q 2966 113 3172 113 
L 3172 0 
L 1756 0 
L 1756 113 
L 1816 113 
Q 2016 113 2095 173 
Q 2175 234 2206 353 
Q 2219 400 2219 647 
L 2219 1819 
Q 2219 2209 2117 2386 
Q 2016 2563 1775 2563 
Q 1403 2563 1034 2156 
L 1034 647 
Q 1034 356 1069 288 
Q 1113 197 1189 155 
Q 1266 113 1500 113 
L 1500 0 
L 84 0 
L 84 113 
L 147 113 
Q 366 113 442 223 
Q 519 334 519 647 
L 519 1709 
Q 519 2225 495 2337 
Q 472 2450 423 2490 
Q 375 2531 294 2531 
Q 206 2531 84 2484 
L 38 2597 
L 900 2947 
L 1034 2947 
L 1034 2341 
z
" transform="scale(0.015625)"/>
       <path id="TimesNewRomanPSMT-61" d="M 1822 413 
Q 1381 72 1269 19 
Q 1100 -59 909 -59 
Q 613 -59 420 144 
Q 228 347 228 678 
Q 228 888 322 1041 
Q 450 1253 767 1440 
Q 1084 1628 1822 1897 
L 1822 2009 
Q 1822 2438 1686 2597 
Q 1550 2756 1291 2756 
Q 1094 2756 978 2650 
Q 859 2544 859 2406 
L 866 2225 
Q 866 2081 792 2003 
Q 719 1925 600 1925 
Q 484 1925 411 2006 
Q 338 2088 338 2228 
Q 338 2497 613 2722 
Q 888 2947 1384 2947 
Q 1766 2947 2009 2819 
Q 2194 2722 2281 2516 
Q 2338 2381 2338 1966 
L 2338 994 
Q 2338 584 2353 492 
Q 2369 400 2405 369 
Q 2441 338 2488 338 
Q 2538 338 2575 359 
Q 2641 400 2828 588 
L 2828 413 
Q 2478 -56 2159 -56 
Q 2006 -56 1915 50 
Q 1825 156 1822 413 
z
M 1822 616 
L 1822 1706 
Q 1350 1519 1213 1441 
Q 966 1303 859 1153 
Q 753 1003 753 825 
Q 753 600 887 451 
Q 1022 303 1197 303 
Q 1434 303 1822 616 
z
" transform="scale(0.015625)"/>
       <path id="TimesNewRomanPSMT-6c" d="M 1184 4444 
L 1184 647 
Q 1184 378 1223 290 
Q 1263 203 1344 158 
Q 1425 113 1647 113 
L 1647 0 
L 244 0 
L 244 113 
Q 441 113 512 153 
Q 584 194 625 287 
Q 666 381 666 647 
L 666 3247 
Q 666 3731 644 3842 
Q 622 3953 573 3993 
Q 525 4034 450 4034 
Q 369 4034 244 3984 
L 191 4094 
L 1044 4444 
L 1184 4444 
z
" transform="scale(0.015625)"/>
       <path id="TimesNewRomanPSMT-74" d="M 1031 3803 
L 1031 2863 
L 1700 2863 
L 1700 2644 
L 1031 2644 
L 1031 788 
Q 1031 509 1111 412 
Q 1191 316 1316 316 
Q 1419 316 1516 380 
Q 1613 444 1666 569 
L 1788 569 
Q 1678 263 1478 108 
Q 1278 -47 1066 -47 
Q 922 -47 784 33 
Q 647 113 581 261 
Q 516 409 516 719 
L 516 2644 
L 63 2644 
L 63 2747 
Q 234 2816 414 2980 
Q 594 3144 734 3369 
Q 806 3488 934 3803 
L 1031 3803 
z
" transform="scale(0.015625)"/>
       <path id="TimesNewRomanPSMT-79" d="M 38 2863 
L 1372 2863 
L 1372 2747 
L 1306 2747 
Q 1166 2747 1095 2686 
Q 1025 2625 1025 2534 
Q 1025 2413 1128 2197 
L 1825 753 
L 2466 2334 
Q 2519 2463 2519 2588 
Q 2519 2644 2497 2672 
Q 2472 2706 2419 2726 
Q 2366 2747 2231 2747 
L 2231 2863 
L 3163 2863 
L 3163 2747 
Q 3047 2734 2984 2696 
Q 2922 2659 2847 2556 
Q 2819 2513 2741 2316 
L 1575 -541 
Q 1406 -956 1132 -1168 
Q 859 -1381 606 -1381 
Q 422 -1381 303 -1275 
Q 184 -1169 184 -1031 
Q 184 -900 270 -820 
Q 356 -741 506 -741 
Q 609 -741 788 -809 
Q 913 -856 944 -856 
Q 1038 -856 1148 -759 
Q 1259 -663 1372 -384 
L 1575 113 
L 547 2272 
Q 500 2369 397 2513 
Q 319 2622 269 2659 
Q 197 2709 38 2747 
L 38 2863 
z
" transform="scale(0.015625)"/>
       <path id="TimesNewRomanPSMT-20" transform="scale(0.015625)"/>
       <path id="TimesNewRomanPSMT-46" d="M 1309 4006 
L 1309 2341 
L 2081 2341 
Q 2347 2341 2470 2458 
Q 2594 2575 2634 2922 
L 2750 2922 
L 2750 1488 
L 2634 1488 
Q 2631 1734 2570 1850 
Q 2509 1966 2401 2023 
Q 2294 2081 2081 2081 
L 1309 2081 
L 1309 750 
Q 1309 428 1350 325 
Q 1381 247 1481 191 
Q 1619 116 1769 116 
L 1922 116 
L 1922 0 
L 103 0 
L 103 116 
L 253 116 
Q 516 116 634 269 
Q 709 369 709 750 
L 709 3488 
Q 709 3809 669 3913 
Q 638 3991 541 4047 
Q 406 4122 253 4122 
L 103 4122 
L 103 4238 
L 3256 4238 
L 3297 3306 
L 3188 3306 
Q 3106 3603 2998 3742 
Q 2891 3881 2733 3943 
Q 2575 4006 2244 4006 
L 1309 4006 
z
" transform="scale(0.015625)"/>
       <path id="TimesNewRomanPSMT-63" d="M 2631 1088 
Q 2516 522 2178 217 
Q 1841 -88 1431 -88 
Q 944 -88 581 321 
Q 219 731 219 1428 
Q 219 2103 620 2525 
Q 1022 2947 1584 2947 
Q 2006 2947 2278 2723 
Q 2550 2500 2550 2259 
Q 2550 2141 2473 2067 
Q 2397 1994 2259 1994 
Q 2075 1994 1981 2113 
Q 1928 2178 1911 2362 
Q 1894 2547 1784 2644 
Q 1675 2738 1481 2738 
Q 1169 2738 978 2506 
Q 725 2200 725 1697 
Q 725 1184 976 792 
Q 1228 400 1656 400 
Q 1963 400 2206 609 
Q 2378 753 2541 1131 
L 2631 1088 
z
" transform="scale(0.015625)"/>
       <path id="TimesNewRomanPSMT-6f" d="M 1600 2947 
Q 2250 2947 2644 2453 
Q 2978 2031 2978 1484 
Q 2978 1100 2793 706 
Q 2609 313 2286 112 
Q 1963 -88 1566 -88 
Q 919 -88 538 428 
Q 216 863 216 1403 
Q 216 1797 411 2186 
Q 606 2575 925 2761 
Q 1244 2947 1600 2947 
z
M 1503 2744 
Q 1338 2744 1170 2645 
Q 1003 2547 900 2300 
Q 797 2053 797 1666 
Q 797 1041 1045 587 
Q 1294 134 1700 134 
Q 2003 134 2200 384 
Q 2397 634 2397 1244 
Q 2397 2006 2069 2444 
Q 1847 2744 1503 2744 
z
" transform="scale(0.015625)"/>
       <path id="TimesNewRomanPSMT-72" d="M 1038 2947 
L 1038 2303 
Q 1397 2947 1775 2947 
Q 1947 2947 2059 2842 
Q 2172 2738 2172 2600 
Q 2172 2478 2090 2393 
Q 2009 2309 1897 2309 
Q 1788 2309 1652 2417 
Q 1516 2525 1450 2525 
Q 1394 2525 1328 2463 
Q 1188 2334 1038 2041 
L 1038 669 
Q 1038 431 1097 309 
Q 1138 225 1241 169 
Q 1344 113 1538 113 
L 1538 0 
L 72 0 
L 72 113 
Q 291 113 397 181 
Q 475 231 506 341 
Q 522 394 522 644 
L 522 1753 
Q 522 2253 501 2348 
Q 481 2444 426 2487 
Q 372 2531 291 2531 
Q 194 2531 72 2484 
L 41 2597 
L 906 2947 
L 1038 2947 
z
" transform="scale(0.015625)"/>
       <path id="Cmmi10-b0" d="M 1888 -1253 
Q 1888 -1109 1952 -834 
Q 2016 -559 2108 -248 
Q 2200 63 2266 263 
Q 2291 581 2291 744 
Q 2291 1156 2209 1511 
Q 2128 1866 1903 2105 
Q 1678 2344 1275 2344 
Q 1063 2344 852 2253 
Q 641 2163 489 2000 
Q 338 1838 281 1631 
Q 269 1594 231 1594 
L 153 1594 
Q 103 1594 103 1650 
L 103 1672 
Q 175 1959 358 2226 
Q 541 2494 805 2661 
Q 1069 2828 1363 2828 
Q 1663 2828 1881 2625 
Q 2100 2422 2231 2109 
Q 2363 1797 2420 1478 
Q 2478 1159 2478 878 
Q 2800 1753 3200 2534 
L 3297 2741 
Q 3316 2759 3341 2759 
L 3419 2759 
Q 3469 2759 3469 2700 
Q 3469 2688 3456 2663 
L 3359 2463 
Q 3081 1909 2848 1340 
Q 2616 772 2450 244 
Q 2425 28 2354 -347 
Q 2284 -722 2184 -1045 
Q 2084 -1369 1984 -1381 
Q 1888 -1381 1888 -1253 
z
" transform="scale(0.015625)"/>
       <path id="TimesNewRomanPSMT-66" d="M 1319 2638 
L 1319 756 
Q 1319 356 1406 250 
Q 1522 113 1716 113 
L 1975 113 
L 1975 0 
L 266 0 
L 266 113 
L 394 113 
Q 519 113 622 175 
Q 725 238 764 344 
Q 803 450 803 756 
L 803 2638 
L 247 2638 
L 247 2863 
L 803 2863 
L 803 3050 
Q 803 3478 940 3775 
Q 1078 4072 1361 4255 
Q 1644 4438 1997 4438 
Q 2325 4438 2600 4225 
Q 2781 4084 2781 3909 
Q 2781 3816 2700 3733 
Q 2619 3650 2525 3650 
Q 2453 3650 2373 3701 
Q 2294 3753 2178 3923 
Q 2063 4094 1966 4153 
Q 1869 4213 1750 4213 
Q 1606 4213 1506 4136 
Q 1406 4059 1362 3898 
Q 1319 3738 1319 3069 
L 1319 2863 
L 2056 2863 
L 2056 2638 
L 1319 2638 
z
" transform="scale(0.015625)"/>
       <path id="Cmmi10-54" d="M 294 84 
Q 297 100 308 140 
Q 319 181 336 203 
Q 353 225 384 225 
Q 934 225 1113 256 
Q 1284 300 1319 441 
L 2194 3956 
Q 2222 4034 2222 4097 
Q 2222 4147 1997 4147 
L 1625 4147 
Q 1197 4147 964 4015 
Q 731 3884 622 3668 
Q 513 3453 341 2963 
Q 319 2906 275 2906 
L 219 2906 
Q 153 2906 153 2988 
L 609 4313 
Q 622 4372 672 4372 
L 4453 4372 
Q 4519 4372 4519 4288 
L 4306 2963 
Q 4306 2944 4284 2925 
Q 4263 2906 4244 2906 
L 4184 2906 
Q 4122 2906 4122 2988 
Q 4191 3441 4191 3628 
Q 4191 3853 4097 3968 
Q 4003 4084 3853 4115 
Q 3703 4147 3463 4147 
L 3084 4147 
Q 2913 4147 2853 4115 
Q 2794 4084 2753 3928 
L 1875 416 
Q 1872 403 1870 390 
Q 1869 378 1863 359 
Q 1863 278 1959 256 
Q 2125 225 2669 225 
Q 2731 225 2731 141 
Q 2709 50 2696 25 
Q 2684 0 2625 0 
L 359 0 
Q 294 0 294 84 
z
" transform="scale(0.015625)"/>
       <path id="Cmr10-30" d="M 1600 -141 
Q 816 -141 533 504 
Q 250 1150 250 2041 
Q 250 2597 351 3087 
Q 453 3578 754 3920 
Q 1056 4263 1600 4263 
Q 2022 4263 2290 4056 
Q 2559 3850 2700 3523 
Q 2841 3197 2892 2823 
Q 2944 2450 2944 2041 
Q 2944 1491 2842 1011 
Q 2741 531 2444 195 
Q 2147 -141 1600 -141 
z
M 1600 25 
Q 1956 25 2131 390 
Q 2306 756 2347 1200 
Q 2388 1644 2388 2144 
Q 2388 2625 2347 3031 
Q 2306 3438 2132 3767 
Q 1959 4097 1600 4097 
Q 1238 4097 1063 3765 
Q 888 3434 847 3029 
Q 806 2625 806 2144 
Q 806 1788 823 1472 
Q 841 1156 916 820 
Q 991 484 1158 254 
Q 1325 25 1600 25 
z
" transform="scale(0.015625)"/>
      </defs>
      <use xlink:href="#TimesNewRomanPSMT-50" transform="translate(0 0.5625)"/>
      <use xlink:href="#TimesNewRomanPSMT-65" transform="translate(55.615234 0.5625)"/>
      <use xlink:href="#TimesNewRomanPSMT-6e" transform="translate(100 0.5625)"/>
      <use xlink:href="#TimesNewRomanPSMT-61" transform="translate(150 0.5625)"/>
      <use xlink:href="#TimesNewRomanPSMT-6c" transform="translate(194.384766 0.5625)"/>
      <use xlink:href="#TimesNewRomanPSMT-74" transform="translate(222.167969 0.5625)"/>
      <use xlink:href="#TimesNewRomanPSMT-79" transform="translate(249.951172 0.5625)"/>
      <use xlink:href="#TimesNewRomanPSMT-20" transform="translate(299.951172 0.5625)"/>
      <use xlink:href="#TimesNewRomanPSMT-46" transform="translate(324.951172 0.5625)"/>
      <use xlink:href="#TimesNewRomanPSMT-61" transform="translate(380.566406 0.5625)"/>
      <use xlink:href="#TimesNewRomanPSMT-63" transform="translate(424.951172 0.5625)"/>
      <use xlink:href="#TimesNewRomanPSMT-74" transform="translate(469.335938 0.5625)"/>
      <use xlink:href="#TimesNewRomanPSMT-6f" transform="translate(497.119141 0.5625)"/>
      <use xlink:href="#TimesNewRomanPSMT-72" transform="translate(547.119141 0.5625)"/>
      <use xlink:href="#TimesNewRomanPSMT-20" transform="translate(580.419922 0.5625)"/>
      <use xlink:href="#Cmmi10-b0" transform="translate(605.419922 0.5625)"/>
      <use xlink:href="#TimesNewRomanPSMT-20" transform="translate(657.128906 0.5625)"/>
      <use xlink:href="#TimesNewRomanPSMT-6f" transform="translate(682.128906 0.5625)"/>
      <use xlink:href="#TimesNewRomanPSMT-66" transform="translate(732.128906 0.5625)"/>
      <use xlink:href="#TimesNewRomanPSMT-20" transform="translate(765.429688 0.5625)"/>
      <use xlink:href="#Cmmi10-b0" transform="translate(790.429688 0.5625)"/>
      <use xlink:href="#Cmmi10-54" transform="translate(842.138672 0.5625)"/>
      <use xlink:href="#Cmr10-30" transform="translate(900.537109 -16.44375) scale(0.7)"/>
     </g>
    </g>
   </g>
   <g id="line2d_11">
    <path d="M 52.020142 162.611966 
L 86.870497 154.996878 
L 121.720852 144.612669 
L 156.571207 132.843897 
L 191.421563 117.959863 
L 226.271918 101.345127 
L 261.122273 81.615128 
L 295.972628 60.154428 
L 330.822983 37.309166 
" clip-path="url(#pebb5846025)" style="fill: none; stroke: #ee2a25; stroke-width: 2; stroke-linecap: square"/>
    <defs>
     <path id="mca0ee792b1" d="M 0 3 
C 0.795609 3 1.55874 2.683901 2.12132 2.12132 
C 2.683901 1.55874 3 0.795609 3 0 
C 3 -0.795609 2.683901 -1.55874 2.12132 -2.12132 
C 1.55874 -2.683901 0.795609 -3 0 -3 
C -0.795609 -3 -1.55874 -2.683901 -2.12132 -2.12132 
C -2.683901 -1.55874 -3 -0.795609 -3 0 
C -3 0.795609 -2.683901 1.55874 -2.12132 2.12132 
C -1.55874 2.683901 -0.795609 3 0 3 
z
" style="stroke: #ee2a25"/>
    </defs>
    <g clip-path="url(#pebb5846025)">
     <use xlink:href="#mca0ee792b1" x="52.020142" y="162.611966" style="fill: #ee2a25; stroke: #ee2a25"/>
     <use xlink:href="#mca0ee792b1" x="86.870497" y="154.996878" style="fill: #ee2a25; stroke: #ee2a25"/>
     <use xlink:href="#mca0ee792b1" x="121.720852" y="144.612669" style="fill: #ee2a25; stroke: #ee2a25"/>
     <use xlink:href="#mca0ee792b1" x="156.571207" y="132.843897" style="fill: #ee2a25; stroke: #ee2a25"/>
     <use xlink:href="#mca0ee792b1" x="191.421563" y="117.959863" style="fill: #ee2a25; stroke: #ee2a25"/>
     <use xlink:href="#mca0ee792b1" x="226.271918" y="101.345127" style="fill: #ee2a25; stroke: #ee2a25"/>
     <use xlink:href="#mca0ee792b1" x="261.122273" y="81.615128" style="fill: #ee2a25; stroke: #ee2a25"/>
     <use xlink:href="#mca0ee792b1" x="295.972628" y="60.154428" style="fill: #ee2a25; stroke: #ee2a25"/>
     <use xlink:href="#mca0ee792b1" x="330.822983" y="37.309166" style="fill: #ee2a25; stroke: #ee2a25"/>
    </g>
   </g>
   <g id="line2d_12">
    <path d="M 52.020142 162.611966 
L 86.870497 159.035182 
L 121.720852 151.881616 
L 156.571207 141.151265 
L 191.421563 126.844132 
L 226.271918 108.960214 
L 261.122273 87.499514 
L 295.972628 62.46203 
L 330.822983 33.847763 
" clip-path="url(#pebb5846025)" style="fill: none; stroke-dasharray: 7.4,3.2; stroke-dashoffset: 0; stroke: #0076aa; stroke-width: 2"/>
    <defs>
     <path id="m0d500aa9e5" d="M -3 3 
L 3 3 
L 3 -3 
L -3 -3 
z
" style="stroke: #0076aa; stroke-linejoin: miter"/>
    </defs>
    <g clip-path="url(#pebb5846025)">
     <use xlink:href="#m0d500aa9e5" x="52.020142" y="162.611966" style="fill: #0076aa; stroke: #0076aa; stroke-linejoin: miter"/>
     <use xlink:href="#m0d500aa9e5" x="86.870497" y="159.035182" style="fill: #0076aa; stroke: #0076aa; stroke-linejoin: miter"/>
     <use xlink:href="#m0d500aa9e5" x="121.720852" y="151.881616" style="fill: #0076aa; stroke: #0076aa; stroke-linejoin: miter"/>
     <use xlink:href="#m0d500aa9e5" x="156.571207" y="141.151265" style="fill: #0076aa; stroke: #0076aa; stroke-linejoin: miter"/>
     <use xlink:href="#m0d500aa9e5" x="191.421563" y="126.844132" style="fill: #0076aa; stroke: #0076aa; stroke-linejoin: miter"/>
     <use xlink:href="#m0d500aa9e5" x="226.271918" y="108.960214" style="fill: #0076aa; stroke: #0076aa; stroke-linejoin: miter"/>
     <use xlink:href="#m0d500aa9e5" x="261.122273" y="87.499514" style="fill: #0076aa; stroke: #0076aa; stroke-linejoin: miter"/>
     <use xlink:href="#m0d500aa9e5" x="295.972628" y="62.46203" style="fill: #0076aa; stroke: #0076aa; stroke-linejoin: miter"/>
     <use xlink:href="#m0d500aa9e5" x="330.822983" y="33.847763" style="fill: #0076aa; stroke: #0076aa; stroke-linejoin: miter"/>
    </g>
   </g>
   <g id="patch_3">
    <path d="M 38.08 178.707491 
L 38.08 25.8 
" style="fill: none; stroke: #000000; stroke-width: 0.8; stroke-linejoin: miter; stroke-linecap: square"/>
   </g>
   <g id="patch_4">
    <path d="M 344.763125 178.707491 
L 344.763125 25.8 
" style="fill: none; stroke: #000000; stroke-width: 0.8; stroke-linejoin: miter; stroke-linecap: square"/>
   </g>
   <g id="patch_5">
    <path d="M 38.08 178.707491 
L 344.763125 178.707491 
" style="fill: none; stroke: #000000; stroke-width: 0.8; stroke-linejoin: miter; stroke-linecap: square"/>
   </g>
   <g id="patch_6">
    <path d="M 38.08 25.8 
L 344.763125 25.8 
" style="fill: none; stroke: #000000; stroke-width: 0.8; stroke-linejoin: miter; stroke-linecap: square"/>
   </g>
   <g id="text_13">
    <!-- $\mathrm{Equihash}(200,9)$ Time Penalty -->
    <g transform="translate(83.145563 19.8) scale(0.168 -0.168)">
     <defs>
      <path id="Cmr10-45" d="M 197 0 
L 197 225 
Q 856 225 856 428 
L 856 3944 
Q 856 4147 197 4147 
L 197 4372 
L 3816 4372 
L 3994 2906 
L 3809 2906 
Q 3741 3459 3617 3709 
Q 3494 3959 3222 4053 
Q 2950 4147 2406 4147 
L 1778 4147 
Q 1663 4147 1598 4137 
Q 1534 4128 1493 4083 
Q 1453 4038 1453 3944 
L 1453 2381 
L 1925 2381 
Q 2250 2381 2411 2436 
Q 2572 2491 2633 2645 
Q 2694 2800 2694 3128 
L 2881 3128 
L 2881 1409 
L 2694 1409 
Q 2694 1734 2633 1890 
Q 2572 2047 2411 2101 
Q 2250 2156 1925 2156 
L 1453 2156 
L 1453 428 
Q 1453 291 1531 258 
Q 1609 225 1778 225 
L 2456 225 
Q 2900 225 3173 295 
Q 3447 366 3598 530 
Q 3750 694 3833 955 
Q 3916 1216 3988 1678 
L 4172 1678 
L 3903 0 
L 197 0 
z
" transform="scale(0.015625)"/>
      <path id="Cmr10-71" d="M 1919 -1241 
L 1919 -1019 
Q 2138 -1019 2278 -981 
Q 2419 -944 2419 -813 
L 2419 372 
Q 2269 172 2041 50 
Q 1813 -72 1563 -72 
Q 1275 -72 1028 47 
Q 781 166 598 369 
Q 416 572 314 839 
Q 213 1106 213 1381 
Q 213 1763 400 2098 
Q 588 2434 914 2631 
Q 1241 2828 1619 2828 
Q 1891 2828 2122 2675 
Q 2353 2522 2491 2266 
L 2719 2828 
L 2888 2828 
L 2888 -813 
Q 2888 -944 3028 -981 
Q 3169 -1019 3384 -1019 
L 3384 -1241 
L 1919 -1241 
z
M 1600 97 
Q 1884 97 2107 286 
Q 2331 475 2438 763 
L 2438 1888 
Q 2372 2194 2165 2419 
Q 1959 2644 1672 2644 
Q 1453 2644 1281 2528 
Q 1109 2413 995 2219 
Q 881 2025 825 1800 
Q 769 1575 769 1375 
Q 769 1119 859 817 
Q 950 516 1137 306 
Q 1325 97 1600 97 
z
" transform="scale(0.015625)"/>
      <path id="Cmr10-75" d="M 691 763 
L 691 2175 
Q 691 2347 639 2423 
Q 588 2500 491 2517 
Q 394 2534 191 2534 
L 191 2759 
L 1159 2828 
L 1159 763 
Q 1159 513 1195 373 
Q 1231 234 1348 165 
Q 1466 97 1722 97 
Q 2066 97 2269 384 
Q 2472 672 2472 1038 
L 2472 2175 
Q 2472 2347 2419 2423 
Q 2366 2500 2270 2517 
Q 2175 2534 1972 2534 
L 1972 2759 
L 2938 2828 
L 2938 581 
Q 2938 413 2989 336 
Q 3041 259 3137 242 
Q 3234 225 3438 225 
L 3438 0 
L 2491 -72 
L 2491 469 
Q 2372 228 2159 78 
Q 1947 -72 1691 -72 
Q 1231 -72 961 123 
Q 691 319 691 763 
z
" transform="scale(0.015625)"/>
      <path id="Cmr10-69" d="M 197 0 
L 197 225 
Q 416 225 556 259 
Q 697 294 697 428 
L 697 2175 
Q 697 2422 601 2478 
Q 506 2534 225 2534 
L 225 2759 
L 1147 2828 
L 1147 428 
Q 1147 294 1269 259 
Q 1391 225 1594 225 
L 1594 0 
L 197 0 
z
M 469 3928 
Q 469 4069 575 4175 
Q 681 4281 819 4281 
Q 909 4281 993 4234 
Q 1078 4188 1125 4103 
Q 1172 4019 1172 3928 
Q 1172 3791 1065 3684 
Q 959 3578 819 3578 
Q 681 3578 575 3684 
Q 469 3791 469 3928 
z
" transform="scale(0.015625)"/>
      <path id="Cmr10-68" d="M 191 0 
L 191 225 
Q 409 225 550 259 
Q 691 294 691 428 
L 691 3788 
Q 691 3959 639 4036 
Q 588 4113 491 4130 
Q 394 4147 191 4147 
L 191 4372 
L 1141 4441 
L 1141 2241 
Q 1275 2506 1515 2667 
Q 1756 2828 2047 2828 
Q 2491 2828 2714 2615 
Q 2938 2403 2938 1966 
L 2938 428 
Q 2938 294 3078 259 
Q 3219 225 3438 225 
L 3438 0 
L 1972 0 
L 1972 225 
Q 2191 225 2331 259 
Q 2472 294 2472 428 
L 2472 1947 
Q 2472 2259 2381 2461 
Q 2291 2663 2009 2663 
Q 1638 2663 1398 2366 
Q 1159 2069 1159 1691 
L 1159 428 
Q 1159 294 1300 259 
Q 1441 225 1656 225 
L 1656 0 
L 191 0 
z
" transform="scale(0.015625)"/>
      <path id="Cmr10-61" d="M 256 628 
Q 256 1009 556 1248 
Q 856 1488 1276 1586 
Q 1697 1684 2075 1684 
L 2075 1947 
Q 2075 2131 1994 2304 
Q 1913 2478 1759 2589 
Q 1606 2700 1422 2700 
Q 997 2700 775 2509 
Q 897 2509 976 2417 
Q 1056 2325 1056 2203 
Q 1056 2075 965 1984 
Q 875 1894 750 1894 
Q 622 1894 531 1984 
Q 441 2075 441 2203 
Q 441 2541 747 2705 
Q 1053 2869 1422 2869 
Q 1681 2869 1943 2758 
Q 2206 2647 2373 2440 
Q 2541 2234 2541 1959 
L 2541 519 
Q 2541 394 2594 289 
Q 2647 184 2759 184 
Q 2866 184 2917 290 
Q 2969 397 2969 519 
L 2969 928 
L 3156 928 
L 3156 519 
Q 3156 375 3081 245 
Q 3006 116 2879 39 
Q 2753 -38 2606 -38 
Q 2419 -38 2283 107 
Q 2147 253 2131 453 
Q 2013 213 1781 70 
Q 1550 -72 1288 -72 
Q 1044 -72 808 0 
Q 572 72 414 226 
Q 256 381 256 628 
z
M 775 628 
Q 775 403 940 250 
Q 1106 97 1331 97 
Q 1538 97 1706 200 
Q 1875 303 1975 481 
Q 2075 659 2075 856 
L 2075 1522 
Q 1784 1522 1479 1426 
Q 1175 1331 975 1128 
Q 775 925 775 628 
z
" transform="scale(0.015625)"/>
      <path id="Cmr10-73" d="M 213 -19 
L 213 1025 
Q 213 1075 269 1075 
L 347 1075 
Q 384 1075 397 1025 
Q 575 97 1259 97 
Q 1563 97 1767 234 
Q 1972 372 1972 659 
Q 1972 866 1812 1011 
Q 1653 1156 1434 1209 
L 1006 1294 
Q 791 1341 614 1437 
Q 438 1534 325 1695 
Q 213 1856 213 2069 
Q 213 2350 361 2529 
Q 509 2709 746 2789 
Q 984 2869 1259 2869 
Q 1588 2869 1831 2694 
L 2016 2853 
Q 2016 2869 2047 2869 
L 2094 2869 
Q 2113 2869 2128 2851 
Q 2144 2834 2144 2816 
L 2144 1978 
Q 2144 1919 2094 1919 
L 2016 1919 
Q 1959 1919 1959 1978 
Q 1959 2313 1773 2516 
Q 1588 2719 1253 2719 
Q 966 2719 755 2612 
Q 544 2506 544 2247 
Q 544 2069 695 1955 
Q 847 1841 1050 1791 
L 1484 1709 
Q 1703 1659 1892 1540 
Q 2081 1422 2192 1240 
Q 2303 1059 2303 831 
Q 2303 600 2223 429 
Q 2144 259 2001 146 
Q 1859 34 1665 -19 
Q 1472 -72 1259 -72 
Q 859 -72 575 197 
L 341 -56 
Q 341 -72 306 -72 
L 269 -72 
Q 213 -72 213 -19 
z
" transform="scale(0.015625)"/>
      <path id="Cmr10-28" d="M 1984 -1588 
Q 1628 -1306 1370 -942 
Q 1113 -578 948 -165 
Q 784 247 703 697 
Q 622 1147 622 1600 
Q 622 2059 703 2509 
Q 784 2959 951 3375 
Q 1119 3791 1378 4153 
Q 1638 4516 1984 4788 
Q 1984 4800 2016 4800 
L 2075 4800 
Q 2094 4800 2109 4783 
Q 2125 4766 2125 4744 
Q 2125 4716 2113 4703 
Q 1800 4397 1592 4047 
Q 1384 3697 1257 3301 
Q 1131 2906 1075 2482 
Q 1019 2059 1019 1600 
Q 1019 -434 2106 -1491 
Q 2125 -1509 2125 -1544 
Q 2125 -1559 2108 -1579 
Q 2091 -1600 2075 -1600 
L 2016 -1600 
Q 1984 -1600 1984 -1588 
z
" transform="scale(0.015625)"/>
      <path id="Cmr10-32" d="M 319 0 
L 319 172 
Q 319 188 331 206 
L 1325 1306 
Q 1550 1550 1690 1715 
Q 1831 1881 1968 2097 
Q 2106 2313 2186 2536 
Q 2266 2759 2266 3009 
Q 2266 3272 2169 3511 
Q 2072 3750 1880 3894 
Q 1688 4038 1416 4038 
Q 1138 4038 916 3870 
Q 694 3703 603 3438 
Q 628 3444 672 3444 
Q 816 3444 917 3347 
Q 1019 3250 1019 3097 
Q 1019 2950 917 2848 
Q 816 2747 672 2747 
Q 522 2747 420 2851 
Q 319 2956 319 3097 
Q 319 3338 409 3548 
Q 500 3759 670 3923 
Q 841 4088 1055 4175 
Q 1269 4263 1509 4263 
Q 1875 4263 2190 4108 
Q 2506 3953 2690 3670 
Q 2875 3388 2875 3009 
Q 2875 2731 2753 2481 
Q 2631 2231 2440 2026 
Q 2250 1822 1953 1562 
Q 1656 1303 1563 1216 
L 838 519 
L 1453 519 
Q 1906 519 2211 526 
Q 2516 534 2534 550 
Q 2609 631 2688 1141 
L 2875 1141 
L 2694 0 
L 319 0 
z
" transform="scale(0.015625)"/>
      <path id="Cmmi10-3b" d="M 634 -1153 
Q 634 -1125 659 -1100 
Q 891 -878 1019 -587 
Q 1147 -297 1147 25 
L 1147 103 
Q 1044 0 891 0 
Q 744 0 641 103 
Q 538 206 538 353 
Q 538 503 641 603 
Q 744 703 891 703 
Q 1119 703 1216 492 
Q 1313 281 1313 25 
Q 1313 -331 1170 -651 
Q 1028 -972 769 -1228 
Q 744 -1241 728 -1241 
Q 697 -1241 665 -1212 
Q 634 -1184 634 -1153 
z
" transform="scale(0.015625)"/>
      <path id="Cmr10-39" d="M 722 269 
Q 897 63 1331 63 
Q 1575 63 1786 228 
Q 1997 394 2113 634 
Q 2247 906 2284 1214 
Q 2322 1522 2322 1978 
Q 2213 1719 2008 1553 
Q 1803 1388 1538 1388 
Q 1166 1388 873 1589 
Q 581 1791 425 2120 
Q 269 2450 269 2822 
Q 269 3206 444 3539 
Q 619 3872 928 4067 
Q 1238 4263 1631 4263 
Q 2019 4263 2280 4052 
Q 2541 3841 2678 3508 
Q 2816 3175 2870 2803 
Q 2925 2431 2925 2069 
Q 2925 1575 2744 1061 
Q 2563 547 2202 203 
Q 1841 -141 1331 -141 
Q 953 -141 690 37 
Q 428 216 428 575 
Q 428 706 517 795 
Q 606 884 738 884 
Q 866 884 955 795 
Q 1044 706 1044 575 
Q 1044 450 953 359 
Q 863 269 738 269 
L 722 269 
z
M 1563 1556 
Q 1825 1556 1992 1732 
Q 2159 1909 2234 2171 
Q 2309 2434 2309 2694 
L 2309 2816 
L 2309 2841 
Q 2309 3322 2168 3700 
Q 2028 4078 1631 4078 
Q 1378 4078 1220 3967 
Q 1063 3856 988 3672 
Q 913 3488 892 3278 
Q 872 3069 872 2822 
Q 872 2459 906 2203 
Q 941 1947 1094 1751 
Q 1247 1556 1563 1556 
z
" transform="scale(0.015625)"/>
      <path id="Cmr10-29" d="M 416 -1600 
Q 359 -1600 359 -1544 
Q 359 -1516 372 -1503 
Q 1466 -434 1466 1600 
Q 1466 3634 384 4691 
Q 359 4706 359 4744 
Q 359 4766 376 4783 
Q 394 4800 416 4800 
L 475 4800 
Q 494 4800 506 4788 
Q 966 4425 1272 3906 
Q 1578 3388 1720 2800 
Q 1863 2213 1863 1600 
Q 1863 1147 1786 708 
Q 1709 269 1542 -157 
Q 1375 -584 1119 -945 
Q 863 -1306 506 -1588 
Q 494 -1600 475 -1600 
L 416 -1600 
z
" transform="scale(0.015625)"/>
      <path id="TimesNewRomanPSMT-54" d="M 3703 4238 
L 3750 3244 
L 3631 3244 
Q 3597 3506 3538 3619 
Q 3441 3800 3280 3886 
Q 3119 3972 2856 3972 
L 2259 3972 
L 2259 734 
Q 2259 344 2344 247 
Q 2463 116 2709 116 
L 2856 116 
L 2856 0 
L 1059 0 
L 1059 116 
L 1209 116 
Q 1478 116 1591 278 
Q 1659 378 1659 734 
L 1659 3972 
L 1150 3972 
Q 853 3972 728 3928 
Q 566 3869 450 3700 
Q 334 3531 313 3244 
L 194 3244 
L 244 4238 
L 3703 4238 
z
" transform="scale(0.015625)"/>
      <path id="TimesNewRomanPSMT-69" d="M 928 4444 
Q 1059 4444 1151 4351 
Q 1244 4259 1244 4128 
Q 1244 3997 1151 3903 
Q 1059 3809 928 3809 
Q 797 3809 703 3903 
Q 609 3997 609 4128 
Q 609 4259 701 4351 
Q 794 4444 928 4444 
z
M 1188 2947 
L 1188 647 
Q 1188 378 1227 289 
Q 1266 200 1342 156 
Q 1419 113 1622 113 
L 1622 0 
L 231 0 
L 231 113 
Q 441 113 512 153 
Q 584 194 626 287 
Q 669 381 669 647 
L 669 1750 
Q 669 2216 641 2353 
Q 619 2453 572 2492 
Q 525 2531 444 2531 
Q 356 2531 231 2484 
L 188 2597 
L 1050 2947 
L 1188 2947 
z
" transform="scale(0.015625)"/>
      <path id="TimesNewRomanPSMT-6d" d="M 1050 2338 
Q 1363 2650 1419 2697 
Q 1559 2816 1721 2881 
Q 1884 2947 2044 2947 
Q 2313 2947 2506 2790 
Q 2700 2634 2766 2338 
Q 3088 2713 3309 2830 
Q 3531 2947 3766 2947 
Q 3994 2947 4170 2830 
Q 4347 2713 4450 2447 
Q 4519 2266 4519 1878 
L 4519 647 
Q 4519 378 4559 278 
Q 4591 209 4675 161 
Q 4759 113 4950 113 
L 4950 0 
L 3538 0 
L 3538 113 
L 3597 113 
Q 3781 113 3884 184 
Q 3956 234 3988 344 
Q 4000 397 4000 647 
L 4000 1878 
Q 4000 2228 3916 2372 
Q 3794 2572 3525 2572 
Q 3359 2572 3192 2489 
Q 3025 2406 2788 2181 
L 2781 2147 
L 2788 2013 
L 2788 647 
Q 2788 353 2820 281 
Q 2853 209 2943 161 
Q 3034 113 3253 113 
L 3253 0 
L 1806 0 
L 1806 113 
Q 2044 113 2133 169 
Q 2222 225 2256 338 
Q 2272 391 2272 647 
L 2272 1878 
Q 2272 2228 2169 2381 
Q 2031 2581 1784 2581 
Q 1616 2581 1450 2491 
Q 1191 2353 1050 2181 
L 1050 647 
Q 1050 366 1089 281 
Q 1128 197 1204 155 
Q 1281 113 1516 113 
L 1516 0 
L 100 0 
L 100 113 
Q 297 113 375 155 
Q 453 197 493 289 
Q 534 381 534 647 
L 534 1741 
Q 534 2213 506 2350 
Q 484 2453 437 2492 
Q 391 2531 309 2531 
Q 222 2531 100 2484 
L 53 2597 
L 916 2947 
L 1050 2947 
L 1050 2338 
z
" transform="scale(0.015625)"/>
     </defs>
     <use xlink:href="#Cmr10-45"/>
     <use xlink:href="#Cmr10-71" transform="translate(68.017578 0)"/>
     <use xlink:href="#Cmr10-75" transform="translate(120.703125 0)"/>
     <use xlink:href="#Cmr10-69" transform="translate(176.220703 0)"/>
     <use xlink:href="#Cmr10-68" transform="translate(203.90625 0)"/>
     <use xlink:href="#Cmr10-61" transform="translate(259.423828 0)"/>
     <use xlink:href="#Cmr10-73" transform="translate(309.423828 0)"/>
     <use xlink:href="#Cmr10-68" transform="translate(348.828125 0)"/>
     <use xlink:href="#Cmr10-28" transform="translate(404.345703 0)"/>
     <use xlink:href="#Cmr10-32" transform="translate(443.164062 0)"/>
     <use xlink:href="#Cmr10-30" transform="translate(493.164062 0)"/>
     <use xlink:href="#Cmr10-30" transform="translate(543.164062 0)"/>
     <use xlink:href="#Cmmi10-3b" transform="translate(593.164062 0)"/>
     <use xlink:href="#Cmr10-39" transform="translate(638.408203 0)"/>
     <use xlink:href="#Cmr10-29" transform="translate(688.408203 0)"/>
     <use xlink:href="#TimesNewRomanPSMT-20" transform="translate(727.226562 0)"/>
     <use xlink:href="#TimesNewRomanPSMT-54" transform="translate(752.226562 0)"/>
     <use xlink:href="#TimesNewRomanPSMT-69" transform="translate(813.310547 0)"/>
     <use xlink:href="#TimesNewRomanPSMT-6d" transform="translate(841.09375 0)"/>
     <use xlink:href="#TimesNewRomanPSMT-65" transform="translate(918.876953 0)"/>
     <use xlink:href="#TimesNewRomanPSMT-20" transform="translate(963.261719 0)"/>
     <use xlink:href="#TimesNewRomanPSMT-50" transform="translate(988.261719 0)"/>
     <use xlink:href="#TimesNewRomanPSMT-65" transform="translate(1043.876953 0)"/>
     <use xlink:href="#TimesNewRomanPSMT-6e" transform="translate(1088.261719 0)"/>
     <use xlink:href="#TimesNewRomanPSMT-61" transform="translate(1138.261719 0)"/>
     <use xlink:href="#TimesNewRomanPSMT-6c" transform="translate(1182.646484 0)"/>
     <use xlink:href="#TimesNewRomanPSMT-74" transform="translate(1210.429688 0)"/>
     <use xlink:href="#TimesNewRomanPSMT-79" transform="translate(1238.212891 0)"/>
    </g>
   </g>
  </g>
  <g id="axes_2">
   <g id="patch_7">
    <path d="M 412.046875 178.707491 
L 718.73 178.707491 
L 718.73 25.8 
L 412.046875 25.8 
z
" style="fill: #ffffff"/>
   </g>
   <g id="matplotlib.axis_3">
    <g id="xtick_6">
     <g id="line2d_13">
      <g>
       <use xlink:href="#m7fc8904600" x="425.987017" y="178.707491" style="stroke: #000000; stroke-width: 0.8"/>
      </g>
     </g>
     <g id="text_14">
      <!-- 0 -->
      <g transform="translate(422.487017 195.428741) scale(0.14 -0.14)">
       <use xlink:href="#TimesNewRomanPSMT-30"/>
      </g>
     </g>
    </g>
    <g id="xtick_7">
     <g id="line2d_14">
      <g>
       <use xlink:href="#m7fc8904600" x="495.687727" y="178.707491" style="stroke: #000000; stroke-width: 0.8"/>
      </g>
     </g>
     <g id="text_15">
      <!-- 2 -->
      <g transform="translate(492.187727 195.428741) scale(0.14 -0.14)">
       <use xlink:href="#TimesNewRomanPSMT-32"/>
      </g>
     </g>
    </g>
    <g id="xtick_8">
     <g id="line2d_15">
      <g>
       <use xlink:href="#m7fc8904600" x="565.388438" y="178.707491" style="stroke: #000000; stroke-width: 0.8"/>
      </g>
     </g>
     <g id="text_16">
      <!-- 4 -->
      <g transform="translate(561.888438 195.428741) scale(0.14 -0.14)">
       <use xlink:href="#TimesNewRomanPSMT-34"/>
      </g>
     </g>
    </g>
    <g id="xtick_9">
     <g id="line2d_16">
      <g>
       <use xlink:href="#m7fc8904600" x="635.089148" y="178.707491" style="stroke: #000000; stroke-width: 0.8"/>
      </g>
     </g>
     <g id="text_17">
      <!-- 6 -->
      <g transform="translate(631.589148 195.428741) scale(0.14 -0.14)">
       <use xlink:href="#TimesNewRomanPSMT-36"/>
      </g>
     </g>
    </g>
    <g id="xtick_10">
     <g id="line2d_17">
      <g>
       <use xlink:href="#m7fc8904600" x="704.789858" y="178.707491" style="stroke: #000000; stroke-width: 0.8"/>
      </g>
     </g>
     <g id="text_18">
      <!-- 8 -->
      <g transform="translate(701.289858 195.428741) scale(0.14 -0.14)">
       <use xlink:href="#TimesNewRomanPSMT-38"/>
      </g>
     </g>
    </g>
    <g id="text_19">
     <!-- h -->
     <g transform="translate(561.888438 212.144679) scale(0.14 -0.14)">
      <use xlink:href="#TimesNewRomanPSMT-68"/>
     </g>
    </g>
   </g>
   <g id="matplotlib.axis_4">
    <g id="ytick_6">
     <g id="line2d_18">
      <g>
       <use xlink:href="#mf93764bfb5" x="412.046875" y="171.757151" style="stroke: #000000; stroke-width: 0.8"/>
      </g>
     </g>
     <g id="text_20">
      <!-- 0 -->
      <g transform="translate(398.046875 176.617776) scale(0.14 -0.14)">
       <use xlink:href="#TimesNewRomanPSMT-30"/>
      </g>
     </g>
    </g>
    <g id="ytick_7">
     <g id="line2d_19">
      <g>
       <use xlink:href="#mf93764bfb5" x="412.046875" y="124.001616" style="stroke: #000000; stroke-width: 0.8"/>
      </g>
     </g>
     <g id="text_21">
      <!-- 50 -->
      <g transform="translate(391.046875 128.862241) scale(0.14 -0.14)">
       <use xlink:href="#TimesNewRomanPSMT-35"/>
       <use xlink:href="#TimesNewRomanPSMT-30" x="50"/>
      </g>
     </g>
    </g>
    <g id="ytick_8">
     <g id="line2d_20">
      <g>
       <use xlink:href="#mf93764bfb5" x="412.046875" y="76.246081" style="stroke: #000000; stroke-width: 0.8"/>
      </g>
     </g>
     <g id="text_22">
      <!-- 100 -->
      <g transform="translate(384.046875 81.106706) scale(0.14 -0.14)">
       <use xlink:href="#TimesNewRomanPSMT-31"/>
       <use xlink:href="#TimesNewRomanPSMT-30" x="50"/>
       <use xlink:href="#TimesNewRomanPSMT-30" x="100"/>
      </g>
     </g>
    </g>
    <g id="ytick_9">
     <g id="line2d_21">
      <g>
       <use xlink:href="#mf93764bfb5" x="412.046875" y="28.490547" style="stroke: #000000; stroke-width: 0.8"/>
      </g>
     </g>
     <g id="text_23">
      <!-- 150 -->
      <g transform="translate(384.046875 33.351172) scale(0.14 -0.14)">
       <use xlink:href="#TimesNewRomanPSMT-31"/>
       <use xlink:href="#TimesNewRomanPSMT-35" x="50"/>
       <use xlink:href="#TimesNewRomanPSMT-30" x="100"/>
      </g>
     </g>
    </g>
    <g id="text_24">
     <!-- PeakUSS (MB) -->
     <g transform="translate(377.052187 146.007027) rotate(-90) scale(0.14 -0.14)">
      <defs>
       <path id="TimesNewRomanPSMT-6b" d="M 1047 4444 
L 1047 1594 
L 1775 2259 
Q 2006 2472 2044 2528 
Q 2069 2566 2069 2603 
Q 2069 2666 2017 2711 
Q 1966 2756 1847 2763 
L 1847 2863 
L 3091 2863 
L 3091 2763 
Q 2834 2756 2664 2684 
Q 2494 2613 2291 2428 
L 1556 1750 
L 2291 822 
Q 2597 438 2703 334 
Q 2853 188 2966 144 
Q 3044 113 3238 113 
L 3238 0 
L 1847 0 
L 1847 113 
Q 1966 116 2008 148 
Q 2050 181 2050 241 
Q 2050 313 1925 472 
L 1047 1594 
L 1047 644 
Q 1047 366 1086 278 
Q 1125 191 1197 153 
Q 1269 116 1509 113 
L 1509 0 
L 53 0 
L 53 113 
Q 272 113 381 166 
Q 447 200 481 272 
Q 528 375 528 628 
L 528 3234 
Q 528 3731 506 3842 
Q 484 3953 434 3995 
Q 384 4038 303 4038 
Q 238 4038 106 3984 
L 53 4094 
L 903 4444 
L 1047 4444 
z
" transform="scale(0.015625)"/>
       <path id="TimesNewRomanPSMT-55" d="M 3053 4122 
L 3053 4238 
L 4553 4238 
L 4553 4122 
L 4394 4122 
Q 4144 4122 4009 3913 
Q 3944 3816 3944 3463 
L 3944 1744 
Q 3944 1106 3817 754 
Q 3691 403 3320 151 
Q 2950 -100 2313 -100 
Q 1619 -100 1259 140 
Q 900 381 750 788 
Q 650 1066 650 1831 
L 650 3488 
Q 650 3878 542 4000 
Q 434 4122 194 4122 
L 34 4122 
L 34 4238 
L 1866 4238 
L 1866 4122 
L 1703 4122 
Q 1441 4122 1328 3956 
Q 1250 3844 1250 3488 
L 1250 1641 
Q 1250 1394 1295 1075 
Q 1341 756 1459 578 
Q 1578 400 1801 284 
Q 2025 169 2350 169 
Q 2766 169 3094 350 
Q 3422 531 3542 814 
Q 3663 1097 3663 1772 
L 3663 3488 
Q 3663 3884 3575 3984 
Q 3453 4122 3213 4122 
L 3053 4122 
z
" transform="scale(0.015625)"/>
       <path id="TimesNewRomanPSMT-53" d="M 2934 4334 
L 2934 2869 
L 2819 2869 
Q 2763 3291 2617 3541 
Q 2472 3791 2203 3937 
Q 1934 4084 1647 4084 
Q 1322 4084 1109 3886 
Q 897 3688 897 3434 
Q 897 3241 1031 3081 
Q 1225 2847 1953 2456 
Q 2547 2138 2764 1967 
Q 2981 1797 3098 1565 
Q 3216 1334 3216 1081 
Q 3216 600 2842 251 
Q 2469 -97 1881 -97 
Q 1697 -97 1534 -69 
Q 1438 -53 1133 45 
Q 828 144 747 144 
Q 669 144 623 97 
Q 578 50 556 -97 
L 441 -97 
L 441 1356 
L 556 1356 
Q 638 900 775 673 
Q 913 447 1195 297 
Q 1478 147 1816 147 
Q 2206 147 2432 353 
Q 2659 559 2659 841 
Q 2659 997 2573 1156 
Q 2488 1316 2306 1453 
Q 2184 1547 1640 1851 
Q 1097 2156 867 2337 
Q 638 2519 519 2737 
Q 400 2956 400 3219 
Q 400 3675 750 4004 
Q 1100 4334 1641 4334 
Q 1978 4334 2356 4169 
Q 2531 4091 2603 4091 
Q 2684 4091 2736 4139 
Q 2788 4188 2819 4334 
L 2934 4334 
z
" transform="scale(0.015625)"/>
       <path id="TimesNewRomanPSMT-28" d="M 1988 -1253 
L 1988 -1369 
Q 1516 -1131 1200 -813 
Q 750 -359 506 256 
Q 263 872 263 1534 
Q 263 2503 741 3301 
Q 1219 4100 1988 4444 
L 1988 4313 
Q 1603 4100 1356 3731 
Q 1109 3363 987 2797 
Q 866 2231 866 1616 
Q 866 947 969 400 
Q 1050 -31 1165 -292 
Q 1281 -553 1476 -793 
Q 1672 -1034 1988 -1253 
z
" transform="scale(0.015625)"/>
       <path id="TimesNewRomanPSMT-4d" d="M 2619 0 
L 981 3566 
L 981 734 
Q 981 344 1066 247 
Q 1181 116 1431 116 
L 1581 116 
L 1581 0 
L 106 0 
L 106 116 
L 256 116 
Q 525 116 638 278 
Q 706 378 706 734 
L 706 3503 
Q 706 3784 644 3909 
Q 600 4000 483 4061 
Q 366 4122 106 4122 
L 106 4238 
L 1306 4238 
L 2844 922 
L 4356 4238 
L 5556 4238 
L 5556 4122 
L 5409 4122 
Q 5138 4122 5025 3959 
Q 4956 3859 4956 3503 
L 4956 734 
Q 4956 344 5044 247 
Q 5159 116 5409 116 
L 5556 116 
L 5556 0 
L 3756 0 
L 3756 116 
L 3906 116 
Q 4178 116 4288 278 
Q 4356 378 4356 734 
L 4356 3566 
L 2722 0 
L 2619 0 
z
" transform="scale(0.015625)"/>
       <path id="TimesNewRomanPSMT-42" d="M 2956 2163 
Q 3397 2069 3616 1863 
Q 3919 1575 3919 1159 
Q 3919 844 3719 555 
Q 3519 266 3170 133 
Q 2822 0 2106 0 
L 106 0 
L 106 116 
L 266 116 
Q 531 116 647 284 
Q 719 394 719 750 
L 719 3488 
Q 719 3881 628 3984 
Q 506 4122 266 4122 
L 106 4122 
L 106 4238 
L 1938 4238 
Q 2450 4238 2759 4163 
Q 3228 4050 3475 3764 
Q 3722 3478 3722 3106 
Q 3722 2788 3528 2536 
Q 3334 2284 2956 2163 
z
M 1319 2331 
Q 1434 2309 1582 2298 
Q 1731 2288 1909 2288 
Q 2366 2288 2595 2386 
Q 2825 2484 2947 2687 
Q 3069 2891 3069 3131 
Q 3069 3503 2766 3765 
Q 2463 4028 1881 4028 
Q 1569 4028 1319 3959 
L 1319 2331 
z
M 1319 306 
Q 1681 222 2034 222 
Q 2600 222 2897 476 
Q 3194 731 3194 1106 
Q 3194 1353 3059 1581 
Q 2925 1809 2622 1940 
Q 2319 2072 1872 2072 
Q 1678 2072 1540 2065 
Q 1403 2059 1319 2044 
L 1319 306 
z
" transform="scale(0.015625)"/>
       <path id="TimesNewRomanPSMT-29" d="M 144 4313 
L 144 4444 
Q 619 4209 934 3891 
Q 1381 3434 1625 2820 
Q 1869 2206 1869 1541 
Q 1869 572 1392 -226 
Q 916 -1025 144 -1369 
L 144 -1253 
Q 528 -1038 776 -670 
Q 1025 -303 1145 264 
Q 1266 831 1266 1447 
Q 1266 2113 1163 2663 
Q 1084 3094 967 3353 
Q 850 3613 656 3853 
Q 463 4094 144 4313 
z
" transform="scale(0.015625)"/>
      </defs>
      <use xlink:href="#TimesNewRomanPSMT-50"/>
      <use xlink:href="#TimesNewRomanPSMT-65" x="55.615234"/>
      <use xlink:href="#TimesNewRomanPSMT-61" x="100"/>
      <use xlink:href="#TimesNewRomanPSMT-6b" x="144.384766"/>
      <use xlink:href="#TimesNewRomanPSMT-55" x="194.384766"/>
      <use xlink:href="#TimesNewRomanPSMT-53" x="266.601562"/>
      <use xlink:href="#TimesNewRomanPSMT-53" x="322.216797"/>
      <use xlink:href="#TimesNewRomanPSMT-20" x="377.832031"/>
      <use xlink:href="#TimesNewRomanPSMT-28" x="402.832031"/>
      <use xlink:href="#TimesNewRomanPSMT-4d" x="436.132812"/>
      <use xlink:href="#TimesNewRomanPSMT-42" x="525.048828"/>
      <use xlink:href="#TimesNewRomanPSMT-29" x="591.748047"/>
     </g>
    </g>
   </g>
   <g id="line2d_22">
    <path d="M 425.987017 53.418936 
L 460.837372 66.121908 
L 495.687727 76.437104 
L 530.538082 89.140076 
L 565.388438 100.887937 
L 600.238793 112.73131 
L 635.089148 113.686421 
L 669.939503 114.832553 
L 704.789858 117.411352 
" clip-path="url(#pf6109ad444)" style="fill: none; stroke: #ee2a25; stroke-width: 2; stroke-linecap: square"/>
    <g clip-path="url(#pf6109ad444)">
     <use xlink:href="#mca0ee792b1" x="425.987017" y="53.418936" style="fill: #ee2a25; stroke: #ee2a25"/>
     <use xlink:href="#mca0ee792b1" x="460.837372" y="66.121908" style="fill: #ee2a25; stroke: #ee2a25"/>
     <use xlink:href="#mca0ee792b1" x="495.687727" y="76.437104" style="fill: #ee2a25; stroke: #ee2a25"/>
     <use xlink:href="#mca0ee792b1" x="530.538082" y="89.140076" style="fill: #ee2a25; stroke: #ee2a25"/>
     <use xlink:href="#mca0ee792b1" x="565.388438" y="100.887937" style="fill: #ee2a25; stroke: #ee2a25"/>
     <use xlink:href="#mca0ee792b1" x="600.238793" y="112.73131" style="fill: #ee2a25; stroke: #ee2a25"/>
     <use xlink:href="#mca0ee792b1" x="635.089148" y="113.686421" style="fill: #ee2a25; stroke: #ee2a25"/>
     <use xlink:href="#mca0ee792b1" x="669.939503" y="114.832553" style="fill: #ee2a25; stroke: #ee2a25"/>
     <use xlink:href="#mca0ee792b1" x="704.789858" y="117.411352" style="fill: #ee2a25; stroke: #ee2a25"/>
    </g>
   </g>
   <g id="line2d_23">
    <path d="M 425.987017 81.976746 
L 460.837372 92.005408 
L 495.687727 102.03407 
L 530.538082 112.062732 
L 565.388438 122.091395 
L 600.238793 124.001616 
L 635.089148 124.001616 
L 669.939503 124.001616 
L 704.789858 124.001616 
" clip-path="url(#pf6109ad444)" style="fill: none; stroke-dasharray: 7.4,3.2; stroke-dashoffset: 0; stroke: #0076aa; stroke-width: 2"/>
    <g clip-path="url(#pf6109ad444)">
     <use xlink:href="#m0d500aa9e5" x="425.987017" y="81.976746" style="fill: #0076aa; stroke: #0076aa; stroke-linejoin: miter"/>
     <use xlink:href="#m0d500aa9e5" x="460.837372" y="92.005408" style="fill: #0076aa; stroke: #0076aa; stroke-linejoin: miter"/>
     <use xlink:href="#m0d500aa9e5" x="495.687727" y="102.03407" style="fill: #0076aa; stroke: #0076aa; stroke-linejoin: miter"/>
     <use xlink:href="#m0d500aa9e5" x="530.538082" y="112.062732" style="fill: #0076aa; stroke: #0076aa; stroke-linejoin: miter"/>
     <use xlink:href="#m0d500aa9e5" x="565.388438" y="122.091395" style="fill: #0076aa; stroke: #0076aa; stroke-linejoin: miter"/>
     <use xlink:href="#m0d500aa9e5" x="600.238793" y="124.001616" style="fill: #0076aa; stroke: #0076aa; stroke-linejoin: miter"/>
     <use xlink:href="#m0d500aa9e5" x="635.089148" y="124.001616" style="fill: #0076aa; stroke: #0076aa; stroke-linejoin: miter"/>
     <use xlink:href="#m0d500aa9e5" x="669.939503" y="124.001616" style="fill: #0076aa; stroke: #0076aa; stroke-linejoin: miter"/>
     <use xlink:href="#m0d500aa9e5" x="704.789858" y="124.001616" style="fill: #0076aa; stroke: #0076aa; stroke-linejoin: miter"/>
    </g>
   </g>
   <g id="line2d_24">
    <path d="M 425.987017 76.246081 
L 704.789858 76.246081 
" clip-path="url(#pf6109ad444)" style="fill: none; stroke-dasharray: 5.55,2.4; stroke-dashoffset: 0; stroke: #ae8064; stroke-width: 1.5"/>
   </g>
   <g id="line2d_25">
    <path d="M 425.987017 32.750341 
L 704.789858 32.750341 
" clip-path="url(#pf6109ad444)" style="fill: none; stroke-dasharray: 5.55,2.4; stroke-dashoffset: 0; stroke: #2e8b57; stroke-width: 1.5"/>
   </g>
   <g id="patch_8">
    <path d="M 412.046875 178.707491 
L 412.046875 25.8 
" style="fill: none; stroke: #000000; stroke-width: 0.8; stroke-linejoin: miter; stroke-linecap: square"/>
   </g>
   <g id="patch_9">
    <path d="M 718.73 178.707491 
L 718.73 25.8 
" style="fill: none; stroke: #000000; stroke-width: 0.8; stroke-linejoin: miter; stroke-linecap: square"/>
   </g>
   <g id="patch_10">
    <path d="M 412.046875 178.707491 
L 718.73 178.707491 
" style="fill: none; stroke: #000000; stroke-width: 0.8; stroke-linejoin: miter; stroke-linecap: square"/>
   </g>
   <g id="patch_11">
    <path d="M 412.046875 25.8 
L 718.73 25.8 
" style="fill: none; stroke: #000000; stroke-width: 0.8; stroke-linejoin: miter; stroke-linecap: square"/>
   </g>
   <g id="text_25">
    <g clip-path="url(#pf6109ad444)">
     <!-- M = 2nN (100.0 MB) -->
     <g style="fill: #ae8064" transform="translate(513.503438 68.903653) scale(0.12 -0.12)">
      <defs>
       <path id="TimesNewRomanPSMT-3d" d="M 116 2759 
L 3488 2759 
L 3488 2503 
L 116 2503 
L 116 2759 
z
M 116 1741 
L 3488 1741 
L 3488 1484 
L 116 1484 
L 116 1741 
z
" transform="scale(0.015625)"/>
       <path id="TimesNewRomanPSMT-4e" d="M -84 4238 
L 1066 4238 
L 3656 1059 
L 3656 3503 
Q 3656 3894 3569 3991 
Q 3453 4122 3203 4122 
L 3056 4122 
L 3056 4238 
L 4531 4238 
L 4531 4122 
L 4381 4122 
Q 4113 4122 4000 3959 
Q 3931 3859 3931 3503 
L 3931 -69 
L 3819 -69 
L 1025 3344 
L 1025 734 
Q 1025 344 1109 247 
Q 1228 116 1475 116 
L 1625 116 
L 1625 0 
L 150 0 
L 150 116 
L 297 116 
Q 569 116 681 278 
Q 750 378 750 734 
L 750 3681 
Q 566 3897 470 3965 
Q 375 4034 191 4094 
Q 100 4122 -84 4122 
L -84 4238 
z
" transform="scale(0.015625)"/>
       <path id="TimesNewRomanPSMT-2e" d="M 800 606 
Q 947 606 1047 504 
Q 1147 403 1147 259 
Q 1147 116 1045 14 
Q 944 -88 800 -88 
Q 656 -88 554 14 
Q 453 116 453 259 
Q 453 406 554 506 
Q 656 606 800 606 
z
" transform="scale(0.015625)"/>
      </defs>
      <use xlink:href="#TimesNewRomanPSMT-4d"/>
      <use xlink:href="#TimesNewRomanPSMT-20" x="88.916016"/>
      <use xlink:href="#TimesNewRomanPSMT-3d" x="113.916016"/>
      <use xlink:href="#TimesNewRomanPSMT-20" x="170.3125"/>
      <use xlink:href="#TimesNewRomanPSMT-32" x="195.3125"/>
      <use xlink:href="#TimesNewRomanPSMT-6e" x="245.3125"/>
      <use xlink:href="#TimesNewRomanPSMT-4e" x="295.3125"/>
      <use xlink:href="#TimesNewRomanPSMT-20" x="367.529297"/>
      <use xlink:href="#TimesNewRomanPSMT-28" x="392.529297"/>
      <use xlink:href="#TimesNewRomanPSMT-31" x="425.830078"/>
      <use xlink:href="#TimesNewRomanPSMT-30" x="475.830078"/>
      <use xlink:href="#TimesNewRomanPSMT-30" x="525.830078"/>
      <use xlink:href="#TimesNewRomanPSMT-2e" x="575.830078"/>
      <use xlink:href="#TimesNewRomanPSMT-30" x="600.830078"/>
      <use xlink:href="#TimesNewRomanPSMT-20" x="650.830078"/>
      <use xlink:href="#TimesNewRomanPSMT-4d" x="675.830078"/>
      <use xlink:href="#TimesNewRomanPSMT-42" x="764.746094"/>
      <use xlink:href="#TimesNewRomanPSMT-29" x="831.445312"/>
     </g>
    </g>
   </g>
   <g id="text_26">
    <g clip-path="url(#pf6109ad444)">
     <!-- M = 145.5 MB -->
     <g style="fill: #2e8b57" transform="translate(529.332188 45.253045) scale(0.12 -0.12)">
      <use xlink:href="#TimesNewRomanPSMT-4d"/>
      <use xlink:href="#TimesNewRomanPSMT-20" x="88.916016"/>
      <use xlink:href="#TimesNewRomanPSMT-3d" x="113.916016"/>
      <use xlink:href="#TimesNewRomanPSMT-20" x="170.3125"/>
      <use xlink:href="#TimesNewRomanPSMT-31" x="195.3125"/>
      <use xlink:href="#TimesNewRomanPSMT-34" x="245.3125"/>
      <use xlink:href="#TimesNewRomanPSMT-35" x="295.3125"/>
      <use xlink:href="#TimesNewRomanPSMT-2e" x="345.3125"/>
      <use xlink:href="#TimesNewRomanPSMT-35" x="370.3125"/>
      <use xlink:href="#TimesNewRomanPSMT-20" x="420.3125"/>
      <use xlink:href="#TimesNewRomanPSMT-4d" x="445.3125"/>
      <use xlink:href="#TimesNewRomanPSMT-42" x="534.228516"/>
     </g>
    </g>
   </g>
   <g id="text_27">
    <!-- $\mathrm{Equihash}(200,9)$ Peak Memory -->
    <g transform="translate(454.844438 19.8) scale(0.168 -0.168)">
     <use xlink:href="#Cmr10-45"/>
     <use xlink:href="#Cmr10-71" transform="translate(68.017578 0)"/>
     <use xlink:href="#Cmr10-75" transform="translate(120.703125 0)"/>
     <use xlink:href="#Cmr10-69" transform="translate(176.220703 0)"/>
     <use xlink:href="#Cmr10-68" transform="translate(203.90625 0)"/>
     <use xlink:href="#Cmr10-61" transform="translate(259.423828 0)"/>
     <use xlink:href="#Cmr10-73" transform="translate(309.423828 0)"/>
     <use xlink:href="#Cmr10-68" transform="translate(348.828125 0)"/>
     <use xlink:href="#Cmr10-28" transform="translate(404.345703 0)"/>
     <use xlink:href="#Cmr10-32" transform="translate(443.164062 0)"/>
     <use xlink:href="#Cmr10-30" transform="translate(493.164062 0)"/>
     <use xlink:href="#Cmr10-30" transform="translate(543.164062 0)"/>
     <use xlink:href="#Cmmi10-3b" transform="translate(593.164062 0)"/>
     <use xlink:href="#Cmr10-39" transform="translate(638.408203 0)"/>
     <use xlink:href="#Cmr10-29" transform="translate(688.408203 0)"/>
     <use xlink:href="#TimesNewRomanPSMT-20" transform="translate(727.226562 0)"/>
     <use xlink:href="#TimesNewRomanPSMT-50" transform="translate(752.226562 0)"/>
     <use xlink:href="#TimesNewRomanPSMT-65" transform="translate(807.841797 0)"/>
     <use xlink:href="#TimesNewRomanPSMT-61" transform="translate(852.226562 0)"/>
     <use xlink:href="#TimesNewRomanPSMT-6b" transform="translate(896.611328 0)"/>
     <use xlink:href="#TimesNewRomanPSMT-20" transform="translate(946.611328 0)"/>
     <use xlink:href="#TimesNewRomanPSMT-4d" transform="translate(971.611328 0)"/>
     <use xlink:href="#TimesNewRomanPSMT-65" transform="translate(1060.527344 0)"/>
     <use xlink:href="#TimesNewRomanPSMT-6d" transform="translate(1104.912109 0)"/>
     <use xlink:href="#TimesNewRomanPSMT-6f" transform="translate(1182.695312 0)"/>
     <use xlink:href="#TimesNewRomanPSMT-72" transform="translate(1232.695312 0)"/>
     <use xlink:href="#TimesNewRomanPSMT-79" transform="translate(1265.996094 0)"/>
    </g>
   </g>
  </g>
  <g id="axes_3">
   <g id="patch_12">
    <path d="M 38.08 394.0845 
L 344.763125 394.0845 
L 344.763125 241.177009 
L 38.08 241.177009 
z
" style="fill: #ffffff"/>
   </g>
   <g id="matplotlib.axis_5">
    <g id="xtick_11">
     <g id="line2d_26">
      <g>
       <use xlink:href="#m7fc8904600" x="52.020142" y="394.0845" style="stroke: #000000; stroke-width: 0.8"/>
      </g>
     </g>
     <g id="text_28">
      <!-- 0 -->
      <g transform="translate(48.520142 410.80575) scale(0.14 -0.14)">
       <use xlink:href="#TimesNewRomanPSMT-30"/>
      </g>
     </g>
    </g>
    <g id="xtick_12">
     <g id="line2d_27">
      <g>
       <use xlink:href="#m7fc8904600" x="121.720852" y="394.0845" style="stroke: #000000; stroke-width: 0.8"/>
      </g>
     </g>
     <g id="text_29">
      <!-- 1 -->
      <g transform="translate(118.220852 410.80575) scale(0.14 -0.14)">
       <use xlink:href="#TimesNewRomanPSMT-31"/>
      </g>
     </g>
    </g>
    <g id="xtick_13">
     <g id="line2d_28">
      <g>
       <use xlink:href="#m7fc8904600" x="191.421563" y="394.0845" style="stroke: #000000; stroke-width: 0.8"/>
      </g>
     </g>
     <g id="text_30">
      <!-- 2 -->
      <g transform="translate(187.921563 410.80575) scale(0.14 -0.14)">
       <use xlink:href="#TimesNewRomanPSMT-32"/>
      </g>
     </g>
    </g>
    <g id="xtick_14">
     <g id="line2d_29">
      <g>
       <use xlink:href="#m7fc8904600" x="261.122273" y="394.0845" style="stroke: #000000; stroke-width: 0.8"/>
      </g>
     </g>
     <g id="text_31">
      <!-- 3 -->
      <g transform="translate(257.622273 410.80575) scale(0.14 -0.14)">
       <use xlink:href="#TimesNewRomanPSMT-33"/>
      </g>
     </g>
    </g>
    <g id="xtick_15">
     <g id="line2d_30">
      <g>
       <use xlink:href="#m7fc8904600" x="330.822983" y="394.0845" style="stroke: #000000; stroke-width: 0.8"/>
      </g>
     </g>
     <g id="text_32">
      <!-- 4 -->
      <g transform="translate(327.322983 410.80575) scale(0.14 -0.14)">
       <use xlink:href="#TimesNewRomanPSMT-34"/>
      </g>
     </g>
    </g>
    <g id="text_33">
     <!-- h -->
     <g transform="translate(187.921563 427.521687) scale(0.14 -0.14)">
      <use xlink:href="#TimesNewRomanPSMT-68"/>
     </g>
    </g>
   </g>
   <g id="matplotlib.axis_6">
    <g id="ytick_10">
     <g id="line2d_31">
      <g>
       <use xlink:href="#mf93764bfb5" x="38.08" y="356.528274" style="stroke: #000000; stroke-width: 0.8"/>
      </g>
     </g>
     <g id="text_34">
      <!-- 1 -->
      <g transform="translate(24.08 361.388899) scale(0.14 -0.14)">
       <use xlink:href="#TimesNewRomanPSMT-31"/>
      </g>
     </g>
    </g>
    <g id="ytick_11">
     <g id="line2d_32">
      <g>
       <use xlink:href="#mf93764bfb5" x="38.08" y="302.876523" style="stroke: #000000; stroke-width: 0.8"/>
      </g>
     </g>
     <g id="text_35">
      <!-- 2 -->
      <g transform="translate(24.08 307.737148) scale(0.14 -0.14)">
       <use xlink:href="#TimesNewRomanPSMT-32"/>
      </g>
     </g>
    </g>
    <g id="ytick_12">
     <g id="line2d_33">
      <g>
       <use xlink:href="#mf93764bfb5" x="38.08" y="249.224772" style="stroke: #000000; stroke-width: 0.8"/>
      </g>
     </g>
     <g id="text_36">
      <!-- 3 -->
      <g transform="translate(24.08 254.085397) scale(0.14 -0.14)">
       <use xlink:href="#TimesNewRomanPSMT-33"/>
      </g>
     </g>
    </g>
    <g id="text_37">
     <!-- Penalty Factor $\gamma$ of $\gamma T_{0}$ -->
     <g transform="translate(17 383.570754) rotate(-90) scale(0.14 -0.14)">
      <use xlink:href="#TimesNewRomanPSMT-50" transform="translate(0 0.5625)"/>
      <use xlink:href="#TimesNewRomanPSMT-65" transform="translate(55.615234 0.5625)"/>
      <use xlink:href="#TimesNewRomanPSMT-6e" transform="translate(100 0.5625)"/>
      <use xlink:href="#TimesNewRomanPSMT-61" transform="translate(150 0.5625)"/>
      <use xlink:href="#TimesNewRomanPSMT-6c" transform="translate(194.384766 0.5625)"/>
      <use xlink:href="#TimesNewRomanPSMT-74" transform="translate(222.167969 0.5625)"/>
      <use xlink:href="#TimesNewRomanPSMT-79" transform="translate(249.951172 0.5625)"/>
      <use xlink:href="#TimesNewRomanPSMT-20" transform="translate(299.951172 0.5625)"/>
      <use xlink:href="#TimesNewRomanPSMT-46" transform="translate(324.951172 0.5625)"/>
      <use xlink:href="#TimesNewRomanPSMT-61" transform="translate(380.566406 0.5625)"/>
      <use xlink:href="#TimesNewRomanPSMT-63" transform="translate(424.951172 0.5625)"/>
      <use xlink:href="#TimesNewRomanPSMT-74" transform="translate(469.335938 0.5625)"/>
      <use xlink:href="#TimesNewRomanPSMT-6f" transform="translate(497.119141 0.5625)"/>
      <use xlink:href="#TimesNewRomanPSMT-72" transform="translate(547.119141 0.5625)"/>
      <use xlink:href="#TimesNewRomanPSMT-20" transform="translate(580.419922 0.5625)"/>
      <use xlink:href="#Cmmi10-b0" transform="translate(605.419922 0.5625)"/>
      <use xlink:href="#TimesNewRomanPSMT-20" transform="translate(657.128906 0.5625)"/>
      <use xlink:href="#TimesNewRomanPSMT-6f" transform="translate(682.128906 0.5625)"/>
      <use xlink:href="#TimesNewRomanPSMT-66" transform="translate(732.128906 0.5625)"/>
      <use xlink:href="#TimesNewRomanPSMT-20" transform="translate(765.429688 0.5625)"/>
      <use xlink:href="#Cmmi10-b0" transform="translate(790.429688 0.5625)"/>
      <use xlink:href="#Cmmi10-54" transform="translate(842.138672 0.5625)"/>
      <use xlink:href="#Cmr10-30" transform="translate(900.537109 -16.44375) scale(0.7)"/>
     </g>
    </g>
   </g>
   <g id="line2d_34">
    <path d="M 52.020142 356.528274 
L 121.720852 338.809566 
L 191.421563 314.275971 
L 261.122273 284.104605 
L 330.822983 249.90626 
" clip-path="url(#p12645ca165)" style="fill: none; stroke: #ee2a25; stroke-width: 2; stroke-linecap: square"/>
    <g clip-path="url(#p12645ca165)">
     <use xlink:href="#mca0ee792b1" x="52.020142" y="356.528274" style="fill: #ee2a25; stroke: #ee2a25"/>
     <use xlink:href="#mca0ee792b1" x="121.720852" y="338.809566" style="fill: #ee2a25; stroke: #ee2a25"/>
     <use xlink:href="#mca0ee792b1" x="191.421563" y="314.275971" style="fill: #ee2a25; stroke: #ee2a25"/>
     <use xlink:href="#mca0ee792b1" x="261.122273" y="284.104605" style="fill: #ee2a25; stroke: #ee2a25"/>
     <use xlink:href="#mca0ee792b1" x="330.822983" y="249.90626" style="fill: #ee2a25; stroke: #ee2a25"/>
    </g>
   </g>
   <g id="line2d_35">
    <path d="M 52.020142 356.528274 
L 121.720852 345.797924 
L 191.421563 324.337223 
L 261.122273 292.146173 
L 330.822983 249.224772 
" clip-path="url(#p12645ca165)" style="fill: none; stroke-dasharray: 7.4,3.2; stroke-dashoffset: 0; stroke: #0076aa; stroke-width: 2"/>
    <g clip-path="url(#p12645ca165)">
     <use xlink:href="#m0d500aa9e5" x="52.020142" y="356.528274" style="fill: #0076aa; stroke: #0076aa; stroke-linejoin: miter"/>
     <use xlink:href="#m0d500aa9e5" x="121.720852" y="345.797924" style="fill: #0076aa; stroke: #0076aa; stroke-linejoin: miter"/>
     <use xlink:href="#m0d500aa9e5" x="191.421563" y="324.337223" style="fill: #0076aa; stroke: #0076aa; stroke-linejoin: miter"/>
     <use xlink:href="#m0d500aa9e5" x="261.122273" y="292.146173" style="fill: #0076aa; stroke: #0076aa; stroke-linejoin: miter"/>
     <use xlink:href="#m0d500aa9e5" x="330.822983" y="249.224772" style="fill: #0076aa; stroke: #0076aa; stroke-linejoin: miter"/>
    </g>
   </g>
   <g id="patch_13">
    <path d="M 38.08 394.0845 
L 38.08 241.177009 
" style="fill: none; stroke: #000000; stroke-width: 0.8; stroke-linejoin: miter; stroke-linecap: square"/>
   </g>
   <g id="patch_14">
    <path d="M 344.763125 394.0845 
L 344.763125 241.177009 
" style="fill: none; stroke: #000000; stroke-width: 0.8; stroke-linejoin: miter; stroke-linecap: square"/>
   </g>
   <g id="patch_15">
    <path d="M 38.08 394.0845 
L 344.763125 394.0845 
" style="fill: none; stroke: #000000; stroke-width: 0.8; stroke-linejoin: miter; stroke-linecap: square"/>
   </g>
   <g id="patch_16">
    <path d="M 38.08 241.177009 
L 344.763125 241.177009 
" style="fill: none; stroke: #000000; stroke-width: 0.8; stroke-linejoin: miter; stroke-linecap: square"/>
   </g>
   <g id="text_38">
    <!-- $\mathrm{Equihash}(144,5)$ Time Penalty -->
    <g transform="translate(83.145563 235.177009) scale(0.168 -0.168)">
     <defs>
      <path id="Cmr10-31" d="M 594 0 
L 594 225 
Q 1394 225 1394 428 
L 1394 3788 
Q 1063 3628 556 3628 
L 556 3853 
Q 1341 3853 1741 4263 
L 1831 4263 
Q 1853 4263 1873 4245 
Q 1894 4228 1894 4206 
L 1894 428 
Q 1894 225 2694 225 
L 2694 0 
L 594 0 
z
" transform="scale(0.015625)"/>
      <path id="Cmr10-34" d="M 178 1056 
L 178 1281 
L 2156 4231 
Q 2178 4263 2222 4263 
L 2316 4263 
Q 2388 4263 2388 4191 
L 2388 1281 
L 3016 1281 
L 3016 1056 
L 2388 1056 
L 2388 428 
Q 2388 297 2575 261 
Q 2763 225 3009 225 
L 3009 0 
L 1247 0 
L 1247 225 
Q 1494 225 1681 261 
Q 1869 297 1869 428 
L 1869 1056 
L 178 1056 
z
M 391 1281 
L 1906 1281 
L 1906 3547 
L 391 1281 
z
" transform="scale(0.015625)"/>
      <path id="Cmr10-35" d="M 556 728 
Q 622 541 758 387 
Q 894 234 1080 148 
Q 1266 63 1466 63 
Q 1928 63 2103 422 
Q 2278 781 2278 1294 
Q 2278 1516 2270 1667 
Q 2263 1819 2228 1959 
Q 2169 2184 2020 2353 
Q 1872 2522 1656 2522 
Q 1441 2522 1286 2456 
Q 1131 2391 1034 2303 
Q 938 2216 863 2119 
Q 788 2022 769 2016 
L 697 2016 
Q 681 2016 657 2036 
Q 634 2056 634 2075 
L 634 4213 
Q 634 4228 654 4245 
Q 675 4263 697 4263 
L 716 4263 
Q 1147 4056 1631 4056 
Q 2106 4056 2547 4263 
L 2566 4263 
Q 2588 4263 2606 4247 
Q 2625 4231 2625 4213 
L 2625 4153 
Q 2625 4122 2613 4122 
Q 2394 3831 2064 3668 
Q 1734 3506 1381 3506 
Q 1125 3506 856 3578 
L 856 2369 
Q 1069 2541 1236 2614 
Q 1403 2688 1663 2688 
Q 2016 2688 2295 2484 
Q 2575 2281 2725 1954 
Q 2875 1628 2875 1288 
Q 2875 903 2686 575 
Q 2497 247 2172 53 
Q 1847 -141 1466 -141 
Q 1150 -141 886 21 
Q 622 184 470 459 
Q 319 734 319 1044 
Q 319 1188 412 1278 
Q 506 1369 647 1369 
Q 788 1369 883 1276 
Q 978 1184 978 1044 
Q 978 906 883 811 
Q 788 716 647 716 
Q 625 716 597 720 
Q 569 725 556 728 
z
" transform="scale(0.015625)"/>
     </defs>
     <use xlink:href="#Cmr10-45"/>
     <use xlink:href="#Cmr10-71" transform="translate(68.017578 0)"/>
     <use xlink:href="#Cmr10-75" transform="translate(120.703125 0)"/>
     <use xlink:href="#Cmr10-69" transform="translate(176.220703 0)"/>
     <use xlink:href="#Cmr10-68" transform="translate(203.90625 0)"/>
     <use xlink:href="#Cmr10-61" transform="translate(259.423828 0)"/>
     <use xlink:href="#Cmr10-73" transform="translate(309.423828 0)"/>
     <use xlink:href="#Cmr10-68" transform="translate(348.828125 0)"/>
     <use xlink:href="#Cmr10-28" transform="translate(404.345703 0)"/>
     <use xlink:href="#Cmr10-31" transform="translate(443.164062 0)"/>
     <use xlink:href="#Cmr10-34" transform="translate(493.164062 0)"/>
     <use xlink:href="#Cmr10-34" transform="translate(543.164062 0)"/>
     <use xlink:href="#Cmmi10-3b" transform="translate(593.164062 0)"/>
     <use xlink:href="#Cmr10-35" transform="translate(638.408203 0)"/>
     <use xlink:href="#Cmr10-29" transform="translate(688.408203 0)"/>
     <use xlink:href="#TimesNewRomanPSMT-20" transform="translate(727.226562 0)"/>
     <use xlink:href="#TimesNewRomanPSMT-54" transform="translate(752.226562 0)"/>
     <use xlink:href="#TimesNewRomanPSMT-69" transform="translate(813.310547 0)"/>
     <use xlink:href="#TimesNewRomanPSMT-6d" transform="translate(841.09375 0)"/>
     <use xlink:href="#TimesNewRomanPSMT-65" transform="translate(918.876953 0)"/>
     <use xlink:href="#TimesNewRomanPSMT-20" transform="translate(963.261719 0)"/>
     <use xlink:href="#TimesNewRomanPSMT-50" transform="translate(988.261719 0)"/>
     <use xlink:href="#TimesNewRomanPSMT-65" transform="translate(1043.876953 0)"/>
     <use xlink:href="#TimesNewRomanPSMT-6e" transform="translate(1088.261719 0)"/>
     <use xlink:href="#TimesNewRomanPSMT-61" transform="translate(1138.261719 0)"/>
     <use xlink:href="#TimesNewRomanPSMT-6c" transform="translate(1182.646484 0)"/>
     <use xlink:href="#TimesNewRomanPSMT-74" transform="translate(1210.429688 0)"/>
     <use xlink:href="#TimesNewRomanPSMT-79" transform="translate(1238.212891 0)"/>
    </g>
   </g>
  </g>
  <g id="axes_4">
   <g id="patch_17">
    <path d="M 412.046875 394.0845 
L 718.73 394.0845 
L 718.73 241.177009 
L 412.046875 241.177009 
z
" style="fill: #ffffff"/>
   </g>
   <g id="matplotlib.axis_7">
    <g id="xtick_16">
     <g id="line2d_36">
      <g>
       <use xlink:href="#m7fc8904600" x="425.987017" y="394.0845" style="stroke: #000000; stroke-width: 0.8"/>
      </g>
     </g>
     <g id="text_39">
      <!-- 0 -->
      <g transform="translate(422.487017 410.80575) scale(0.14 -0.14)">
       <use xlink:href="#TimesNewRomanPSMT-30"/>
      </g>
     </g>
    </g>
    <g id="xtick_17">
     <g id="line2d_37">
      <g>
       <use xlink:href="#m7fc8904600" x="495.687727" y="394.0845" style="stroke: #000000; stroke-width: 0.8"/>
      </g>
     </g>
     <g id="text_40">
      <!-- 1 -->
      <g transform="translate(492.187727 410.80575) scale(0.14 -0.14)">
       <use xlink:href="#TimesNewRomanPSMT-31"/>
      </g>
     </g>
    </g>
    <g id="xtick_18">
     <g id="line2d_38">
      <g>
       <use xlink:href="#m7fc8904600" x="565.388438" y="394.0845" style="stroke: #000000; stroke-width: 0.8"/>
      </g>
     </g>
     <g id="text_41">
      <!-- 2 -->
      <g transform="translate(561.888438 410.80575) scale(0.14 -0.14)">
       <use xlink:href="#TimesNewRomanPSMT-32"/>
      </g>
     </g>
    </g>
    <g id="xtick_19">
     <g id="line2d_39">
      <g>
       <use xlink:href="#m7fc8904600" x="635.089148" y="394.0845" style="stroke: #000000; stroke-width: 0.8"/>
      </g>
     </g>
     <g id="text_42">
      <!-- 3 -->
      <g transform="translate(631.589148 410.80575) scale(0.14 -0.14)">
       <use xlink:href="#TimesNewRomanPSMT-33"/>
      </g>
     </g>
    </g>
    <g id="xtick_20">
     <g id="line2d_40">
      <g>
       <use xlink:href="#m7fc8904600" x="704.789858" y="394.0845" style="stroke: #000000; stroke-width: 0.8"/>
      </g>
     </g>
     <g id="text_43">
      <!-- 4 -->
      <g transform="translate(701.289858 410.80575) scale(0.14 -0.14)">
       <use xlink:href="#TimesNewRomanPSMT-34"/>
      </g>
     </g>
    </g>
    <g id="text_44">
     <!-- h -->
     <g transform="translate(561.888438 427.521687) scale(0.14 -0.14)">
      <use xlink:href="#TimesNewRomanPSMT-68"/>
     </g>
    </g>
   </g>
   <g id="matplotlib.axis_8">
    <g id="ytick_13">
     <g id="line2d_41">
      <g>
       <use xlink:href="#mf93764bfb5" x="412.046875" y="387.134159" style="stroke: #000000; stroke-width: 0.8"/>
      </g>
     </g>
     <g id="text_45">
      <!-- 0 -->
      <g transform="translate(398.046875 391.994784) scale(0.14 -0.14)">
       <use xlink:href="#TimesNewRomanPSMT-30"/>
      </g>
     </g>
    </g>
    <g id="ytick_14">
     <g id="line2d_42">
      <g>
       <use xlink:href="#mf93764bfb5" x="412.046875" y="333.039802" style="stroke: #000000; stroke-width: 0.8"/>
      </g>
     </g>
     <g id="text_46">
      <!-- 1000 -->
      <g transform="translate(377.046875 337.900427) scale(0.14 -0.14)">
       <use xlink:href="#TimesNewRomanPSMT-31"/>
       <use xlink:href="#TimesNewRomanPSMT-30" x="50"/>
       <use xlink:href="#TimesNewRomanPSMT-30" x="100"/>
       <use xlink:href="#TimesNewRomanPSMT-30" x="150"/>
      </g>
     </g>
    </g>
    <g id="ytick_15">
     <g id="line2d_43">
      <g>
       <use xlink:href="#mf93764bfb5" x="412.046875" y="278.945445" style="stroke: #000000; stroke-width: 0.8"/>
      </g>
     </g>
     <g id="text_47">
      <!-- 2000 -->
      <g transform="translate(377.046875 283.80607) scale(0.14 -0.14)">
       <use xlink:href="#TimesNewRomanPSMT-32"/>
       <use xlink:href="#TimesNewRomanPSMT-30" x="50"/>
       <use xlink:href="#TimesNewRomanPSMT-30" x="100"/>
       <use xlink:href="#TimesNewRomanPSMT-30" x="150"/>
      </g>
     </g>
    </g>
    <g id="text_48">
     <!-- PeakUSS (MB) -->
     <g transform="translate(370.052187 361.384036) rotate(-90) scale(0.14 -0.14)">
      <use xlink:href="#TimesNewRomanPSMT-50"/>
      <use xlink:href="#TimesNewRomanPSMT-65" x="55.615234"/>
      <use xlink:href="#TimesNewRomanPSMT-61" x="100"/>
      <use xlink:href="#TimesNewRomanPSMT-6b" x="144.384766"/>
      <use xlink:href="#TimesNewRomanPSMT-55" x="194.384766"/>
      <use xlink:href="#TimesNewRomanPSMT-53" x="266.601562"/>
      <use xlink:href="#TimesNewRomanPSMT-53" x="322.216797"/>
      <use xlink:href="#TimesNewRomanPSMT-20" x="377.832031"/>
      <use xlink:href="#TimesNewRomanPSMT-28" x="402.832031"/>
      <use xlink:href="#TimesNewRomanPSMT-4d" x="436.132812"/>
      <use xlink:href="#TimesNewRomanPSMT-42" x="525.048828"/>
      <use xlink:href="#TimesNewRomanPSMT-29" x="591.748047"/>
     </g>
    </g>
   </g>
   <g id="line2d_44">
    <path d="M 425.987017 308.508012 
L 495.687727 322.372395 
L 565.388438 336.312511 
L 635.089148 348.554064 
L 704.789858 348.900268 
" clip-path="url(#p79d7cd639b)" style="fill: none; stroke: #ee2a25; stroke-width: 2; stroke-linecap: square"/>
    <g clip-path="url(#p79d7cd639b)">
     <use xlink:href="#mca0ee792b1" x="425.987017" y="308.508012" style="fill: #ee2a25; stroke: #ee2a25"/>
     <use xlink:href="#mca0ee792b1" x="495.687727" y="322.372395" style="fill: #ee2a25; stroke: #ee2a25"/>
     <use xlink:href="#mca0ee792b1" x="565.388438" y="336.312511" style="fill: #ee2a25; stroke: #ee2a25"/>
     <use xlink:href="#mca0ee792b1" x="635.089148" y="348.554064" style="fill: #ee2a25; stroke: #ee2a25"/>
     <use xlink:href="#mca0ee792b1" x="704.789858" y="348.900268" style="fill: #ee2a25; stroke: #ee2a25"/>
    </g>
   </g>
   <g id="line2d_45">
    <path d="M 425.987017 333.472557 
L 495.687727 344.291429 
L 565.388438 355.1103 
L 635.089148 355.97581 
L 704.789858 355.97581 
" clip-path="url(#p79d7cd639b)" style="fill: none; stroke-dasharray: 7.4,3.2; stroke-dashoffset: 0; stroke: #0076aa; stroke-width: 2"/>
    <g clip-path="url(#p79d7cd639b)">
     <use xlink:href="#m0d500aa9e5" x="425.987017" y="333.472557" style="fill: #0076aa; stroke: #0076aa; stroke-linejoin: miter"/>
     <use xlink:href="#m0d500aa9e5" x="495.687727" y="344.291429" style="fill: #0076aa; stroke: #0076aa; stroke-linejoin: miter"/>
     <use xlink:href="#m0d500aa9e5" x="565.388438" y="355.1103" style="fill: #0076aa; stroke: #0076aa; stroke-linejoin: miter"/>
     <use xlink:href="#m0d500aa9e5" x="635.089148" y="355.97581" style="fill: #0076aa; stroke: #0076aa; stroke-linejoin: miter"/>
     <use xlink:href="#m0d500aa9e5" x="704.789858" y="355.97581" style="fill: #0076aa; stroke: #0076aa; stroke-linejoin: miter"/>
    </g>
   </g>
   <g id="line2d_46">
    <path d="M 425.987017 324.81746 
L 704.789858 324.81746 
" clip-path="url(#p79d7cd639b)" style="fill: none; stroke-dasharray: 5.55,2.4; stroke-dashoffset: 0; stroke: #ae8064; stroke-width: 1.5"/>
   </g>
   <g id="line2d_47">
    <path d="M 425.987017 248.127349 
L 704.789858 248.127349 
" clip-path="url(#p79d7cd639b)" style="fill: none; stroke-dasharray: 5.55,2.4; stroke-dashoffset: 0; stroke: #2e8b57; stroke-width: 1.5"/>
   </g>
   <g id="patch_18">
    <path d="M 412.046875 394.0845 
L 412.046875 241.177009 
" style="fill: none; stroke: #000000; stroke-width: 0.8; stroke-linejoin: miter; stroke-linecap: square"/>
   </g>
   <g id="patch_19">
    <path d="M 718.73 394.0845 
L 718.73 241.177009 
" style="fill: none; stroke: #000000; stroke-width: 0.8; stroke-linejoin: miter; stroke-linecap: square"/>
   </g>
   <g id="patch_20">
    <path d="M 412.046875 394.0845 
L 718.73 394.0845 
" style="fill: none; stroke: #000000; stroke-width: 0.8; stroke-linejoin: miter; stroke-linecap: square"/>
   </g>
   <g id="patch_21">
    <path d="M 412.046875 241.177009 
L 718.73 241.177009 
" style="fill: none; stroke: #000000; stroke-width: 0.8; stroke-linejoin: miter; stroke-linecap: square"/>
   </g>
   <g id="text_49">
    <g clip-path="url(#p79d7cd639b)">
     <!-- M = 2nN (1152.0 MB) -->
     <g style="fill: #ae8064" transform="translate(510.728438 319.13475) scale(0.12 -0.12)">
      <use xlink:href="#TimesNewRomanPSMT-4d"/>
      <use xlink:href="#TimesNewRomanPSMT-20" x="88.916016"/>
      <use xlink:href="#TimesNewRomanPSMT-3d" x="113.916016"/>
      <use xlink:href="#TimesNewRomanPSMT-20" x="170.3125"/>
      <use xlink:href="#TimesNewRomanPSMT-32" x="195.3125"/>
      <use xlink:href="#TimesNewRomanPSMT-6e" x="245.3125"/>
      <use xlink:href="#TimesNewRomanPSMT-4e" x="295.3125"/>
      <use xlink:href="#TimesNewRomanPSMT-20" x="367.529297"/>
      <use xlink:href="#TimesNewRomanPSMT-28" x="392.529297"/>
      <use xlink:href="#TimesNewRomanPSMT-31" x="425.830078"/>
      <use xlink:href="#TimesNewRomanPSMT-31" x="472.080078"/>
      <use xlink:href="#TimesNewRomanPSMT-35" x="522.080078"/>
      <use xlink:href="#TimesNewRomanPSMT-32" x="572.080078"/>
      <use xlink:href="#TimesNewRomanPSMT-2e" x="622.080078"/>
      <use xlink:href="#TimesNewRomanPSMT-30" x="647.080078"/>
      <use xlink:href="#TimesNewRomanPSMT-20" x="697.080078"/>
      <use xlink:href="#TimesNewRomanPSMT-4d" x="722.080078"/>
      <use xlink:href="#TimesNewRomanPSMT-42" x="810.996094"/>
      <use xlink:href="#TimesNewRomanPSMT-29" x="877.695312"/>
     </g>
    </g>
   </g>
   <g id="text_50">
    <g clip-path="url(#p79d7cd639b)">
     <!-- M = 2569.7 MB -->
     <g style="fill: #2e8b57" transform="translate(526.332188 260.630054) scale(0.12 -0.12)">
      <defs>
       <path id="TimesNewRomanPSMT-39" d="M 338 -88 
L 338 28 
Q 744 34 1094 217 
Q 1444 400 1770 856 
Q 2097 1313 2225 1859 
Q 1734 1544 1338 1544 
Q 891 1544 572 1889 
Q 253 2234 253 2806 
Q 253 3363 572 3797 
Q 956 4325 1575 4325 
Q 2097 4325 2469 3894 
Q 2925 3359 2925 2575 
Q 2925 1869 2578 1258 
Q 2231 647 1613 244 
Q 1109 -88 516 -88 
L 338 -88 
z
M 2275 2091 
Q 2331 2497 2331 2741 
Q 2331 3044 2228 3395 
Q 2125 3747 1936 3934 
Q 1747 4122 1506 4122 
Q 1228 4122 1018 3872 
Q 809 3622 809 3128 
Q 809 2469 1088 2097 
Q 1291 1828 1588 1828 
Q 1731 1828 1928 1897 
Q 2125 1966 2275 2091 
z
" transform="scale(0.015625)"/>
       <path id="TimesNewRomanPSMT-37" d="M 644 4238 
L 2916 4238 
L 2916 4119 
L 1503 -88 
L 1153 -88 
L 2419 3728 
L 1253 3728 
Q 900 3728 750 3644 
Q 488 3500 328 3200 
L 238 3234 
L 644 4238 
z
" transform="scale(0.015625)"/>
      </defs>
      <use xlink:href="#TimesNewRomanPSMT-4d"/>
      <use xlink:href="#TimesNewRomanPSMT-20" x="88.916016"/>
      <use xlink:href="#TimesNewRomanPSMT-3d" x="113.916016"/>
      <use xlink:href="#TimesNewRomanPSMT-20" x="170.3125"/>
      <use xlink:href="#TimesNewRomanPSMT-32" x="195.3125"/>
      <use xlink:href="#TimesNewRomanPSMT-35" x="245.3125"/>
      <use xlink:href="#TimesNewRomanPSMT-36" x="295.3125"/>
      <use xlink:href="#TimesNewRomanPSMT-39" x="345.3125"/>
      <use xlink:href="#TimesNewRomanPSMT-2e" x="395.3125"/>
      <use xlink:href="#TimesNewRomanPSMT-37" x="420.3125"/>
      <use xlink:href="#TimesNewRomanPSMT-20" x="470.3125"/>
      <use xlink:href="#TimesNewRomanPSMT-4d" x="495.3125"/>
      <use xlink:href="#TimesNewRomanPSMT-42" x="584.228516"/>
     </g>
    </g>
   </g>
   <g id="text_51">
    <!-- $\mathrm{Equihash}(144,5)$ Peak Memory -->
    <g transform="translate(454.844438 235.177009) scale(0.168 -0.168)">
     <use xlink:href="#Cmr10-45"/>
     <use xlink:href="#Cmr10-71" transform="translate(68.017578 0)"/>
     <use xlink:href="#Cmr10-75" transform="translate(120.703125 0)"/>
     <use xlink:href="#Cmr10-69" transform="translate(176.220703 0)"/>
     <use xlink:href="#Cmr10-68" transform="translate(203.90625 0)"/>
     <use xlink:href="#Cmr10-61" transform="translate(259.423828 0)"/>
     <use xlink:href="#Cmr10-73" transform="translate(309.423828 0)"/>
     <use xlink:href="#Cmr10-68" transform="translate(348.828125 0)"/>
     <use xlink:href="#Cmr10-28" transform="translate(404.345703 0)"/>
     <use xlink:href="#Cmr10-31" transform="translate(443.164062 0)"/>
     <use xlink:href="#Cmr10-34" transform="translate(493.164062 0)"/>
     <use xlink:href="#Cmr10-34" transform="translate(543.164062 0)"/>
     <use xlink:href="#Cmmi10-3b" transform="translate(593.164062 0)"/>
     <use xlink:href="#Cmr10-35" transform="translate(638.408203 0)"/>
     <use xlink:href="#Cmr10-29" transform="translate(688.408203 0)"/>
     <use xlink:href="#TimesNewRomanPSMT-20" transform="translate(727.226562 0)"/>
     <use xlink:href="#TimesNewRomanPSMT-50" transform="translate(752.226562 0)"/>
     <use xlink:href="#TimesNewRomanPSMT-65" transform="translate(807.841797 0)"/>
     <use xlink:href="#TimesNewRomanPSMT-61" transform="translate(852.226562 0)"/>
     <use xlink:href="#TimesNewRomanPSMT-6b" transform="translate(896.611328 0)"/>
     <use xlink:href="#TimesNewRomanPSMT-20" transform="translate(946.611328 0)"/>
     <use xlink:href="#TimesNewRomanPSMT-4d" transform="translate(971.611328 0)"/>
     <use xlink:href="#TimesNewRomanPSMT-65" transform="translate(1060.527344 0)"/>
     <use xlink:href="#TimesNewRomanPSMT-6d" transform="translate(1104.912109 0)"/>
     <use xlink:href="#TimesNewRomanPSMT-6f" transform="translate(1182.695312 0)"/>
     <use xlink:href="#TimesNewRomanPSMT-72" transform="translate(1232.695312 0)"/>
     <use xlink:href="#TimesNewRomanPSMT-79" transform="translate(1265.996094 0)"/>
    </g>
   </g>
  </g>
  <g id="legend_1">
   <g id="patch_22">
    <path d="M 184.595 488.1725 
L 527.105 488.1725 
Q 529.905 488.1725 529.905 485.3725 
L 529.905 444.356875 
Q 529.905 441.556875 527.105 441.556875 
L 184.595 441.556875 
Q 181.795 441.556875 181.795 444.356875 
L 181.795 485.3725 
Q 181.795 488.1725 184.595 488.1725 
z
" style="fill: #ffffff; opacity: 0.9; stroke: #444444; stroke-linejoin: miter"/>
   </g>
   <g id="line2d_48">
    <path d="M 188.795 453.456875 
L 208.395 453.456875 
L 227.995 453.456875 
" style="fill: none; stroke: #ee2a25; stroke-width: 2; stroke-linecap: square"/>
    <g>
     <use xlink:href="#mca0ee792b1" x="208.395" y="453.456875" style="fill: #ee2a25; stroke: #ee2a25"/>
    </g>
   </g>
   <g id="text_52">
    <!-- Our Impl. -->
    <g transform="translate(237.795 458.356875) scale(0.14 -0.14)">
     <defs>
      <path id="TimesNewRomanPSMT-4f" d="M 2341 4334 
Q 3166 4334 3770 3707 
Q 4375 3081 4375 2144 
Q 4375 1178 3765 540 
Q 3156 -97 2291 -97 
Q 1416 -97 820 525 
Q 225 1147 225 2134 
Q 225 3144 913 3781 
Q 1509 4334 2341 4334 
z
M 2281 4106 
Q 1713 4106 1369 3684 
Q 941 3159 941 2147 
Q 941 1109 1384 550 
Q 1725 125 2284 125 
Q 2881 125 3270 590 
Q 3659 1056 3659 2059 
Q 3659 3147 3231 3681 
Q 2888 4106 2281 4106 
z
" transform="scale(0.015625)"/>
      <path id="TimesNewRomanPSMT-75" d="M 2709 2863 
L 2709 1128 
Q 2709 631 2732 520 
Q 2756 409 2807 365 
Q 2859 322 2928 322 
Q 3025 322 3147 375 
L 3191 266 
L 2334 -88 
L 2194 -88 
L 2194 519 
Q 1825 119 1631 15 
Q 1438 -88 1222 -88 
Q 981 -88 804 51 
Q 628 191 559 409 
Q 491 628 491 1028 
L 491 2306 
Q 491 2509 447 2587 
Q 403 2666 317 2708 
Q 231 2750 6 2747 
L 6 2863 
L 1009 2863 
L 1009 947 
Q 1009 547 1148 422 
Q 1288 297 1484 297 
Q 1619 297 1789 381 
Q 1959 466 2194 703 
L 2194 2325 
Q 2194 2569 2105 2655 
Q 2016 2741 1734 2747 
L 1734 2863 
L 2709 2863 
z
" transform="scale(0.015625)"/>
      <path id="TimesNewRomanPSMT-49" d="M 1975 116 
L 1975 0 
L 159 0 
L 159 116 
L 309 116 
Q 572 116 691 269 
Q 766 369 766 750 
L 766 3488 
Q 766 3809 725 3913 
Q 694 3991 597 4047 
Q 459 4122 309 4122 
L 159 4122 
L 159 4238 
L 1975 4238 
L 1975 4122 
L 1822 4122 
Q 1563 4122 1444 3969 
Q 1366 3869 1366 3488 
L 1366 750 
Q 1366 428 1406 325 
Q 1438 247 1538 191 
Q 1672 116 1822 116 
L 1975 116 
z
" transform="scale(0.015625)"/>
      <path id="TimesNewRomanPSMT-70" d="M -6 2578 
L 875 2934 
L 994 2934 
L 994 2266 
Q 1216 2644 1439 2795 
Q 1663 2947 1909 2947 
Q 2341 2947 2628 2609 
Q 2981 2197 2981 1534 
Q 2981 794 2556 309 
Q 2206 -88 1675 -88 
Q 1444 -88 1275 -22 
Q 1150 25 994 166 
L 994 -706 
Q 994 -1000 1030 -1079 
Q 1066 -1159 1155 -1206 
Q 1244 -1253 1478 -1253 
L 1478 -1369 
L -22 -1369 
L -22 -1253 
L 56 -1253 
Q 228 -1256 350 -1188 
Q 409 -1153 442 -1076 
Q 475 -1000 475 -688 
L 475 2019 
Q 475 2297 450 2372 
Q 425 2447 370 2484 
Q 316 2522 222 2522 
Q 147 2522 31 2478 
L -6 2578 
z
M 994 2081 
L 994 1013 
Q 994 666 1022 556 
Q 1066 375 1236 237 
Q 1406 100 1666 100 
Q 1978 100 2172 344 
Q 2425 663 2425 1241 
Q 2425 1897 2138 2250 
Q 1938 2494 1663 2494 
Q 1513 2494 1366 2419 
Q 1253 2363 994 2081 
z
" transform="scale(0.015625)"/>
     </defs>
     <use xlink:href="#TimesNewRomanPSMT-4f"/>
     <use xlink:href="#TimesNewRomanPSMT-75" x="72.216797"/>
     <use xlink:href="#TimesNewRomanPSMT-72" x="122.216797"/>
     <use xlink:href="#TimesNewRomanPSMT-20" x="155.517578"/>
     <use xlink:href="#TimesNewRomanPSMT-49" x="180.517578"/>
     <use xlink:href="#TimesNewRomanPSMT-6d" x="213.818359"/>
     <use xlink:href="#TimesNewRomanPSMT-70" x="291.601562"/>
     <use xlink:href="#TimesNewRomanPSMT-6c" x="341.601562"/>
     <use xlink:href="#TimesNewRomanPSMT-2e" x="369.384766"/>
    </g>
   </g>
   <g id="line2d_49">
    <path d="M 188.795 473.251563 
L 208.395 473.251563 
L 227.995 473.251563 
" style="fill: none; stroke-dasharray: 7.4,3.2; stroke-dashoffset: 0; stroke: #0076aa; stroke-width: 2"/>
    <g>
     <use xlink:href="#m0d500aa9e5" x="208.395" y="473.251563" style="fill: #0076aa; stroke: #0076aa; stroke-linejoin: miter"/>
    </g>
   </g>
   <g id="text_53">
    <!-- Our Theory -->
    <g transform="translate(237.795 478.151563) scale(0.14 -0.14)">
     <use xlink:href="#TimesNewRomanPSMT-4f"/>
     <use xlink:href="#TimesNewRomanPSMT-75" x="72.216797"/>
     <use xlink:href="#TimesNewRomanPSMT-72" x="122.216797"/>
     <use xlink:href="#TimesNewRomanPSMT-20" x="155.517578"/>
     <use xlink:href="#TimesNewRomanPSMT-54" x="178.767578"/>
     <use xlink:href="#TimesNewRomanPSMT-68" x="239.851562"/>
     <use xlink:href="#TimesNewRomanPSMT-65" x="289.851562"/>
     <use xlink:href="#TimesNewRomanPSMT-6f" x="334.236328"/>
     <use xlink:href="#TimesNewRomanPSMT-72" x="384.236328"/>
     <use xlink:href="#TimesNewRomanPSMT-79" x="417.537109"/>
    </g>
   </g>
   <g id="line2d_50">
    <path d="M 331.249375 453.456875 
L 350.849375 453.456875 
L 370.449375 453.456875 
" style="fill: none; stroke-dasharray: 5.55,2.4; stroke-dashoffset: 0; stroke: #2e8b57; stroke-width: 1.5"/>
   </g>
   <g id="text_54">
    <!-- State-of-the-Art (Impl.) -->
    <g transform="translate(380.249375 458.356875) scale(0.14 -0.14)">
     <defs>
      <path id="TimesNewRomanPSMT-2d" d="M 259 1672 
L 1875 1672 
L 1875 1200 
L 259 1200 
L 259 1672 
z
" transform="scale(0.015625)"/>
      <path id="TimesNewRomanPSMT-41" d="M 2928 1419 
L 1288 1419 
L 1000 750 
Q 894 503 894 381 
Q 894 284 986 211 
Q 1078 138 1384 116 
L 1384 0 
L 50 0 
L 50 116 
Q 316 163 394 238 
Q 553 388 747 847 
L 2238 4334 
L 2347 4334 
L 3822 809 
Q 4000 384 4145 257 
Q 4291 131 4550 116 
L 4550 0 
L 2878 0 
L 2878 116 
Q 3131 128 3220 200 
Q 3309 272 3309 375 
Q 3309 513 3184 809 
L 2928 1419 
z
M 2841 1650 
L 2122 3363 
L 1384 1650 
L 2841 1650 
z
" transform="scale(0.015625)"/>
     </defs>
     <use xlink:href="#TimesNewRomanPSMT-53"/>
     <use xlink:href="#TimesNewRomanPSMT-74" x="55.615234"/>
     <use xlink:href="#TimesNewRomanPSMT-61" x="83.398438"/>
     <use xlink:href="#TimesNewRomanPSMT-74" x="127.783203"/>
     <use xlink:href="#TimesNewRomanPSMT-65" x="155.566406"/>
     <use xlink:href="#TimesNewRomanPSMT-2d" x="199.951172"/>
     <use xlink:href="#TimesNewRomanPSMT-6f" x="233.251953"/>
     <use xlink:href="#TimesNewRomanPSMT-66" x="283.251953"/>
     <use xlink:href="#TimesNewRomanPSMT-2d" x="316.552734"/>
     <use xlink:href="#TimesNewRomanPSMT-74" x="349.853516"/>
     <use xlink:href="#TimesNewRomanPSMT-68" x="377.636719"/>
     <use xlink:href="#TimesNewRomanPSMT-65" x="427.636719"/>
     <use xlink:href="#TimesNewRomanPSMT-2d" x="472.021484"/>
     <use xlink:href="#TimesNewRomanPSMT-41" x="505.322266"/>
     <use xlink:href="#TimesNewRomanPSMT-72" x="577.539062"/>
     <use xlink:href="#TimesNewRomanPSMT-74" x="610.839844"/>
     <use xlink:href="#TimesNewRomanPSMT-20" x="638.623047"/>
     <use xlink:href="#TimesNewRomanPSMT-28" x="663.623047"/>
     <use xlink:href="#TimesNewRomanPSMT-49" x="696.923828"/>
     <use xlink:href="#TimesNewRomanPSMT-6d" x="730.224609"/>
     <use xlink:href="#TimesNewRomanPSMT-70" x="808.007812"/>
     <use xlink:href="#TimesNewRomanPSMT-6c" x="858.007812"/>
     <use xlink:href="#TimesNewRomanPSMT-2e" x="885.791016"/>
     <use xlink:href="#TimesNewRomanPSMT-29" x="910.791016"/>
    </g>
   </g>
   <g id="line2d_51">
    <path d="M 331.249375 473.251563 
L 350.849375 473.251563 
L 370.449375 473.251563 
" style="fill: none; stroke-dasharray: 5.55,2.4; stroke-dashoffset: 0; stroke: #ae8064; stroke-width: 1.5"/>
   </g>
   <g id="text_55">
    <!-- State-of-the-Art (Theory) -->
    <g transform="translate(380.249375 478.151563) scale(0.14 -0.14)">
     <use xlink:href="#TimesNewRomanPSMT-53"/>
     <use xlink:href="#TimesNewRomanPSMT-74" x="55.615234"/>
     <use xlink:href="#TimesNewRomanPSMT-61" x="83.398438"/>
     <use xlink:href="#TimesNewRomanPSMT-74" x="127.783203"/>
     <use xlink:href="#TimesNewRomanPSMT-65" x="155.566406"/>
     <use xlink:href="#TimesNewRomanPSMT-2d" x="199.951172"/>
     <use xlink:href="#TimesNewRomanPSMT-6f" x="233.251953"/>
     <use xlink:href="#TimesNewRomanPSMT-66" x="283.251953"/>
     <use xlink:href="#TimesNewRomanPSMT-2d" x="316.552734"/>
     <use xlink:href="#TimesNewRomanPSMT-74" x="349.853516"/>
     <use xlink:href="#TimesNewRomanPSMT-68" x="377.636719"/>
     <use xlink:href="#TimesNewRomanPSMT-65" x="427.636719"/>
     <use xlink:href="#TimesNewRomanPSMT-2d" x="472.021484"/>
     <use xlink:href="#TimesNewRomanPSMT-41" x="505.322266"/>
     <use xlink:href="#TimesNewRomanPSMT-72" x="577.539062"/>
     <use xlink:href="#TimesNewRomanPSMT-74" x="610.839844"/>
     <use xlink:href="#TimesNewRomanPSMT-20" x="638.623047"/>
     <use xlink:href="#TimesNewRomanPSMT-28" x="663.623047"/>
     <use xlink:href="#TimesNewRomanPSMT-54" x="696.923828"/>
     <use xlink:href="#TimesNewRomanPSMT-68" x="758.007812"/>
     <use xlink:href="#TimesNewRomanPSMT-65" x="808.007812"/>
     <use xlink:href="#TimesNewRomanPSMT-6f" x="852.392578"/>
     <use xlink:href="#TimesNewRomanPSMT-72" x="902.392578"/>
     <use xlink:href="#TimesNewRomanPSMT-79" x="935.693359"/>
     <use xlink:href="#TimesNewRomanPSMT-29" x="985.693359"/>
    </g>
   </g>
  </g>
 </g>
 <defs>
  <clipPath id="pebb5846025">
   <rect x="38.08" y="25.8" width="306.683125" height="152.907491"/>
  </clipPath>
  <clipPath id="pf6109ad444">
   <rect x="412.046875" y="25.8" width="306.683125" height="152.907491"/>
  </clipPath>
  <clipPath id="p12645ca165">
   <rect x="38.08" y="241.177009" width="306.683125" height="152.907491"/>
  </clipPath>
  <clipPath id="p79d7cd639b">
   <rect x="412.046875" y="241.177009" width="306.683125" height="152.907491"/>
  </clipPath>
 </defs>
</svg>
