<?xml version="1.0" encoding="utf-8" standalone="no"?>
<!DOCTYPE svg PUBLIC "-//W3C//DTD SVG 1.1//EN"
  "http://www.w3.org/Graphics/SVG/1.1/DTD/svg11.dtd">
<svg xmlns:xlink="http://www.w3.org/1999/xlink" width="723.1875pt" height="495.5405pt" viewBox="0 0 723.1875 495.5405" xmlns="http://www.w3.org/2000/svg" version="1.1">
 <metadata>
  <rdf:RDF xmlns:dc="http://purl.org/dc/elements/1.1/" xmlns:cc="http://creativecommons.org/ns#" xmlns:rdf="http://www.w3.org/1999/02/22-rdf-syntax-ns#">
   <cc:Work>
    <dc:type rdf:resource="http://purl.org/dc/dcmitype/StillImage"/>
    <dc:date>2025-12-02T21:31:44.007750</dc:date>
    <dc:format>image/svg+xml</dc:format>
    <dc:creator>
     <cc:Agent>
      <dc:title>Matplotlib v3.9.1, https://matplotlib.org/</dc:title>
     </cc:Agent>
    </dc:creator>
   </cc:Work>
  </rdf:RDF>
 </metadata>
 <defs>
  <style type="text/css">*{stroke-linejoin: round; stroke-linecap: butt}</style>
 </defs>
 <g id="figure_1">
  <g id="patch_1">
   <path d="M 0 495.5405 
L 723.1875 495.5405 
L 723.1875 0 
L 0 0 
z
" style="fill: #ffffff"/>
  </g>
  <g id="axes_1">
   <g id="patch_2">
    <path d="M 40.8275 186.720929 
L 340.6875 186.720929 
L 340.6875 25.968 
L 40.8275 25.968 
z
" style="fill: #ffffff"/>
   </g>
   <g id="matplotlib.axis_1">
    <g id="xtick_1">
     <g id="line2d_1">
      <defs>
       <path id="m003dff8875" d="M 0 0 
L 0 3.5 
" style="stroke: #000000; stroke-width: 0.8"/>
      </defs>
      <g>
       <use xlink:href="#m003dff8875" x="54.4575" y="186.720929" style="stroke: #000000; stroke-width: 0.8"/>
      </g>
     </g>
     <g id="text_1">
      <!-- 0 -->
      <g transform="translate(50.00375 204.358741) scale(0.14 -0.14)">
       <defs>
        <path id="DejaVuSans-30" d="M 2034 4250 
Q 1547 4250 1301 3770 
Q 1056 3291 1056 2328 
Q 1056 1369 1301 889 
Q 1547 409 2034 409 
Q 2525 409 2770 889 
Q 3016 1369 3016 2328 
Q 3016 3291 2770 3770 
Q 2525 4250 2034 4250 
z
M 2034 4750 
Q 2819 4750 3233 4129 
Q 3647 3509 3647 2328 
Q 3647 1150 3233 529 
Q 2819 -91 2034 -91 
Q 1250 -91 836 529 
Q 422 1150 422 2328 
Q 422 3509 836 4129 
Q 1250 4750 2034 4750 
z
" transform="scale(0.015625)"/>
       </defs>
       <use xlink:href="#DejaVuSans-30"/>
      </g>
     </g>
    </g>
    <g id="xtick_2">
     <g id="line2d_2">
      <g>
       <use xlink:href="#m003dff8875" x="122.6075" y="186.720929" style="stroke: #000000; stroke-width: 0.8"/>
      </g>
     </g>
     <g id="text_2">
      <!-- 2 -->
      <g transform="translate(118.15375 204.358741) scale(0.14 -0.14)">
       <defs>
        <path id="DejaVuSans-32" d="M 1228 531 
L 3431 531 
L 3431 0 
L 469 0 
L 469 531 
Q 828 903 1448 1529 
Q 2069 2156 2228 2338 
Q 2531 2678 2651 2914 
Q 2772 3150 2772 3378 
Q 2772 3750 2511 3984 
Q 2250 4219 1831 4219 
Q 1534 4219 1204 4116 
Q 875 4013 500 3803 
L 500 4441 
Q 881 4594 1212 4672 
Q 1544 4750 1819 4750 
Q 2544 4750 2975 4387 
Q 3406 4025 3406 3419 
Q 3406 3131 3298 2873 
Q 3191 2616 2906 2266 
Q 2828 2175 2409 1742 
Q 1991 1309 1228 531 
z
" transform="scale(0.015625)"/>
       </defs>
       <use xlink:href="#DejaVuSans-32"/>
      </g>
     </g>
    </g>
    <g id="xtick_3">
     <g id="line2d_3">
      <g>
       <use xlink:href="#m003dff8875" x="190.7575" y="186.720929" style="stroke: #000000; stroke-width: 0.8"/>
      </g>
     </g>
     <g id="text_3">
      <!-- 4 -->
      <g transform="translate(186.30375 204.358741) scale(0.14 -0.14)">
       <defs>
        <path id="DejaVuSans-34" d="M 2419 4116 
L 825 1625 
L 2419 1625 
L 2419 4116 
z
M 2253 4666 
L 3047 4666 
L 3047 1625 
L 3713 1625 
L 3713 1100 
L 3047 1100 
L 3047 0 
L 2419 0 
L 2419 1100 
L 313 1100 
L 313 1709 
L 2253 4666 
z
" transform="scale(0.015625)"/>
       </defs>
       <use xlink:href="#DejaVuSans-34"/>
      </g>
     </g>
    </g>
    <g id="xtick_4">
     <g id="line2d_4">
      <g>
       <use xlink:href="#m003dff8875" x="258.9075" y="186.720929" style="stroke: #000000; stroke-width: 0.8"/>
      </g>
     </g>
     <g id="text_4">
      <!-- 6 -->
      <g transform="translate(254.45375 204.358741) scale(0.14 -0.14)">
       <defs>
        <path id="DejaVuSans-36" d="M 2113 2584 
Q 1688 2584 1439 2293 
Q 1191 2003 1191 1497 
Q 1191 994 1439 701 
Q 1688 409 2113 409 
Q 2538 409 2786 701 
Q 3034 994 3034 1497 
Q 3034 2003 2786 2293 
Q 2538 2584 2113 2584 
z
M 3366 4563 
L 3366 3988 
Q 3128 4100 2886 4159 
Q 2644 4219 2406 4219 
Q 1781 4219 1451 3797 
Q 1122 3375 1075 2522 
Q 1259 2794 1537 2939 
Q 1816 3084 2150 3084 
Q 2853 3084 3261 2657 
Q 3669 2231 3669 1497 
Q 3669 778 3244 343 
Q 2819 -91 2113 -91 
Q 1303 -91 875 529 
Q 447 1150 447 2328 
Q 447 3434 972 4092 
Q 1497 4750 2381 4750 
Q 2619 4750 2861 4703 
Q 3103 4656 3366 4563 
z
" transform="scale(0.015625)"/>
       </defs>
       <use xlink:href="#DejaVuSans-36"/>
      </g>
     </g>
    </g>
    <g id="xtick_5">
     <g id="line2d_5">
      <g>
       <use xlink:href="#m003dff8875" x="327.0575" y="186.720929" style="stroke: #000000; stroke-width: 0.8"/>
      </g>
     </g>
     <g id="text_5">
      <!-- 8 -->
      <g transform="translate(322.60375 204.358741) scale(0.14 -0.14)">
       <defs>
        <path id="DejaVuSans-38" d="M 2034 2216 
Q 1584 2216 1326 1975 
Q 1069 1734 1069 1313 
Q 1069 891 1326 650 
Q 1584 409 2034 409 
Q 2484 409 2743 651 
Q 3003 894 3003 1313 
Q 3003 1734 2745 1975 
Q 2488 2216 2034 2216 
z
M 1403 2484 
Q 997 2584 770 2862 
Q 544 3141 544 3541 
Q 544 4100 942 4425 
Q 1341 4750 2034 4750 
Q 2731 4750 3128 4425 
Q 3525 4100 3525 3541 
Q 3525 3141 3298 2862 
Q 3072 2584 2669 2484 
Q 3125 2378 3379 2068 
Q 3634 1759 3634 1313 
Q 3634 634 3220 271 
Q 2806 -91 2034 -91 
Q 1263 -91 848 271 
Q 434 634 434 1313 
Q 434 1759 690 2068 
Q 947 2378 1403 2484 
z
M 1172 3481 
Q 1172 3119 1398 2916 
Q 1625 2713 2034 2713 
Q 2441 2713 2670 2916 
Q 2900 3119 2900 3481 
Q 2900 3844 2670 4047 
Q 2441 4250 2034 4250 
Q 1625 4250 1398 4047 
Q 1172 3844 1172 3481 
z
" transform="scale(0.015625)"/>
       </defs>
       <use xlink:href="#DejaVuSans-38"/>
      </g>
     </g>
    </g>
    <g id="text_6">
     <!-- h -->
     <g transform="translate(186.32125 221.908116) scale(0.14 -0.14)">
      <defs>
       <path id="DejaVuSans-68" d="M 3513 2113 
L 3513 0 
L 2938 0 
L 2938 2094 
Q 2938 2591 2744 2837 
Q 2550 3084 2163 3084 
Q 1697 3084 1428 2787 
Q 1159 2491 1159 1978 
L 1159 0 
L 581 0 
L 581 4863 
L 1159 4863 
L 1159 2956 
Q 1366 3272 1645 3428 
Q 1925 3584 2291 3584 
Q 2894 3584 3203 3211 
Q 3513 2838 3513 2113 
z
" transform="scale(0.015625)"/>
      </defs>
      <use xlink:href="#DejaVuSans-68"/>
     </g>
    </g>
   </g>
   <g id="matplotlib.axis_2">
    <g id="ytick_1">
     <g id="line2d_6">
      <defs>
       <path id="m06760ecc6c" d="M 0 0 
L -3.5 0 
" style="stroke: #000000; stroke-width: 0.8"/>
      </defs>
      <g>
       <use xlink:href="#m06760ecc6c" x="40.8275" y="169.799568" style="stroke: #000000; stroke-width: 0.8"/>
      </g>
     </g>
     <g id="text_7">
      <!-- 1 -->
      <g transform="translate(24.92 175.118474) scale(0.14 -0.14)">
       <defs>
        <path id="DejaVuSans-31" d="M 794 531 
L 1825 531 
L 1825 4091 
L 703 3866 
L 703 4441 
L 1819 4666 
L 2450 4666 
L 2450 531 
L 3481 531 
L 3481 0 
L 794 0 
L 794 531 
z
" transform="scale(0.015625)"/>
       </defs>
       <use xlink:href="#DejaVuSans-31"/>
      </g>
     </g>
    </g>
    <g id="ytick_2">
     <g id="line2d_7">
      <g>
       <use xlink:href="#m06760ecc6c" x="40.8275" y="135.956846" style="stroke: #000000; stroke-width: 0.8"/>
      </g>
     </g>
     <g id="text_8">
      <!-- 2 -->
      <g transform="translate(24.92 141.275752) scale(0.14 -0.14)">
       <use xlink:href="#DejaVuSans-32"/>
      </g>
     </g>
    </g>
    <g id="ytick_3">
     <g id="line2d_8">
      <g>
       <use xlink:href="#m06760ecc6c" x="40.8275" y="102.114124" style="stroke: #000000; stroke-width: 0.8"/>
      </g>
     </g>
     <g id="text_9">
      <!-- 3 -->
      <g transform="translate(24.92 107.43303) scale(0.14 -0.14)">
       <defs>
        <path id="DejaVuSans-33" d="M 2597 2516 
Q 3050 2419 3304 2112 
Q 3559 1806 3559 1356 
Q 3559 666 3084 287 
Q 2609 -91 1734 -91 
Q 1441 -91 1130 -33 
Q 819 25 488 141 
L 488 750 
Q 750 597 1062 519 
Q 1375 441 1716 441 
Q 2309 441 2620 675 
Q 2931 909 2931 1356 
Q 2931 1769 2642 2001 
Q 2353 2234 1838 2234 
L 1294 2234 
L 1294 2753 
L 1863 2753 
Q 2328 2753 2575 2939 
Q 2822 3125 2822 3475 
Q 2822 3834 2567 4026 
Q 2313 4219 1838 4219 
Q 1578 4219 1281 4162 
Q 984 4106 628 3988 
L 628 4550 
Q 988 4650 1302 4700 
Q 1616 4750 1894 4750 
Q 2613 4750 3031 4423 
Q 3450 4097 3450 3541 
Q 3450 3153 3228 2886 
Q 3006 2619 2597 2516 
z
" transform="scale(0.015625)"/>
       </defs>
       <use xlink:href="#DejaVuSans-33"/>
      </g>
     </g>
    </g>
    <g id="ytick_4">
     <g id="line2d_9">
      <g>
       <use xlink:href="#m06760ecc6c" x="40.8275" y="68.271402" style="stroke: #000000; stroke-width: 0.8"/>
      </g>
     </g>
     <g id="text_10">
      <!-- 4 -->
      <g transform="translate(24.92 73.590309) scale(0.14 -0.14)">
       <use xlink:href="#DejaVuSans-34"/>
      </g>
     </g>
    </g>
    <g id="ytick_5">
     <g id="line2d_10">
      <g>
       <use xlink:href="#m06760ecc6c" x="40.8275" y="34.42868" style="stroke: #000000; stroke-width: 0.8"/>
      </g>
     </g>
     <g id="text_11">
      <!-- 5 -->
      <g transform="translate(24.92 39.747587) scale(0.14 -0.14)">
       <defs>
        <path id="DejaVuSans-35" d="M 691 4666 
L 3169 4666 
L 3169 4134 
L 1269 4134 
L 1269 2991 
Q 1406 3038 1543 3061 
Q 1681 3084 1819 3084 
Q 2600 3084 3056 2656 
Q 3513 2228 3513 1497 
Q 3513 744 3044 326 
Q 2575 -91 1722 -91 
Q 1428 -91 1123 -41 
Q 819 9 494 109 
L 494 744 
Q 775 591 1075 516 
Q 1375 441 1709 441 
Q 2250 441 2565 725 
Q 2881 1009 2881 1497 
Q 2881 1984 2565 2268 
Q 2250 2553 1709 2553 
Q 1456 2553 1204 2497 
Q 953 2441 691 2322 
L 691 4666 
z
" transform="scale(0.015625)"/>
       </defs>
       <use xlink:href="#DejaVuSans-35"/>
      </g>
     </g>
    </g>
    <g id="text_12">
     <!-- Penalty Factor $\gamma$ of $\gamma T_{0}$ -->
     <g transform="translate(17.84 184.394464) rotate(-90) scale(0.14 -0.14)">
      <defs>
       <path id="DejaVuSans-50" d="M 1259 4147 
L 1259 2394 
L 2053 2394 
Q 2494 2394 2734 2622 
Q 2975 2850 2975 3272 
Q 2975 3691 2734 3919 
Q 2494 4147 2053 4147 
L 1259 4147 
z
M 628 4666 
L 2053 4666 
Q 2838 4666 3239 4311 
Q 3641 3956 3641 3272 
Q 3641 2581 3239 2228 
Q 2838 1875 2053 1875 
L 1259 1875 
L 1259 0 
L 628 0 
L 628 4666 
z
" transform="scale(0.015625)"/>
       <path id="DejaVuSans-65" d="M 3597 1894 
L 3597 1613 
L 953 1613 
Q 991 1019 1311 708 
Q 1631 397 2203 397 
Q 2534 397 2845 478 
Q 3156 559 3463 722 
L 3463 178 
Q 3153 47 2828 -22 
Q 2503 -91 2169 -91 
Q 1331 -91 842 396 
Q 353 884 353 1716 
Q 353 2575 817 3079 
Q 1281 3584 2069 3584 
Q 2775 3584 3186 3129 
Q 3597 2675 3597 1894 
z
M 3022 2063 
Q 3016 2534 2758 2815 
Q 2500 3097 2075 3097 
Q 1594 3097 1305 2825 
Q 1016 2553 972 2059 
L 3022 2063 
z
" transform="scale(0.015625)"/>
       <path id="DejaVuSans-6e" d="M 3513 2113 
L 3513 0 
L 2938 0 
L 2938 2094 
Q 2938 2591 2744 2837 
Q 2550 3084 2163 3084 
Q 1697 3084 1428 2787 
Q 1159 2491 1159 1978 
L 1159 0 
L 581 0 
L 581 3500 
L 1159 3500 
L 1159 2956 
Q 1366 3272 1645 3428 
Q 1925 3584 2291 3584 
Q 2894 3584 3203 3211 
Q 3513 2838 3513 2113 
z
" transform="scale(0.015625)"/>
       <path id="DejaVuSans-61" d="M 2194 1759 
Q 1497 1759 1228 1600 
Q 959 1441 959 1056 
Q 959 750 1161 570 
Q 1363 391 1709 391 
Q 2188 391 2477 730 
Q 2766 1069 2766 1631 
L 2766 1759 
L 2194 1759 
z
M 3341 1997 
L 3341 0 
L 2766 0 
L 2766 531 
Q 2569 213 2275 61 
Q 1981 -91 1556 -91 
Q 1019 -91 701 211 
Q 384 513 384 1019 
Q 384 1609 779 1909 
Q 1175 2209 1959 2209 
L 2766 2209 
L 2766 2266 
Q 2766 2663 2505 2880 
Q 2244 3097 1772 3097 
Q 1472 3097 1187 3025 
Q 903 2953 641 2809 
L 641 3341 
Q 956 3463 1253 3523 
Q 1550 3584 1831 3584 
Q 2591 3584 2966 3190 
Q 3341 2797 3341 1997 
z
" transform="scale(0.015625)"/>
       <path id="DejaVuSans-6c" d="M 603 4863 
L 1178 4863 
L 1178 0 
L 603 0 
L 603 4863 
z
" transform="scale(0.015625)"/>
       <path id="DejaVuSans-74" d="M 1172 4494 
L 1172 3500 
L 2356 3500 
L 2356 3053 
L 1172 3053 
L 1172 1153 
Q 1172 725 1289 603 
Q 1406 481 1766 481 
L 2356 481 
L 2356 0 
L 1766 0 
Q 1100 0 847 248 
Q 594 497 594 1153 
L 594 3053 
L 172 3053 
L 172 3500 
L 594 3500 
L 594 4494 
L 1172 4494 
z
" transform="scale(0.015625)"/>
       <path id="DejaVuSans-79" d="M 2059 -325 
Q 1816 -950 1584 -1140 
Q 1353 -1331 966 -1331 
L 506 -1331 
L 506 -850 
L 844 -850 
Q 1081 -850 1212 -737 
Q 1344 -625 1503 -206 
L 1606 56 
L 191 3500 
L 800 3500 
L 1894 763 
L 2988 3500 
L 3597 3500 
L 2059 -325 
z
" transform="scale(0.015625)"/>
       <path id="DejaVuSans-20" transform="scale(0.015625)"/>
       <path id="DejaVuSans-46" d="M 628 4666 
L 3309 4666 
L 3309 4134 
L 1259 4134 
L 1259 2759 
L 3109 2759 
L 3109 2228 
L 1259 2228 
L 1259 0 
L 628 0 
L 628 4666 
z
" transform="scale(0.015625)"/>
       <path id="DejaVuSans-63" d="M 3122 3366 
L 3122 2828 
Q 2878 2963 2633 3030 
Q 2388 3097 2138 3097 
Q 1578 3097 1268 2742 
Q 959 2388 959 1747 
Q 959 1106 1268 751 
Q 1578 397 2138 397 
Q 2388 397 2633 464 
Q 2878 531 3122 666 
L 3122 134 
Q 2881 22 2623 -34 
Q 2366 -91 2075 -91 
Q 1284 -91 818 406 
Q 353 903 353 1747 
Q 353 2603 823 3093 
Q 1294 3584 2113 3584 
Q 2378 3584 2631 3529 
Q 2884 3475 3122 3366 
z
" transform="scale(0.015625)"/>
       <path id="DejaVuSans-6f" d="M 1959 3097 
Q 1497 3097 1228 2736 
Q 959 2375 959 1747 
Q 959 1119 1226 758 
Q 1494 397 1959 397 
Q 2419 397 2687 759 
Q 2956 1122 2956 1747 
Q 2956 2369 2687 2733 
Q 2419 3097 1959 3097 
z
M 1959 3584 
Q 2709 3584 3137 3096 
Q 3566 2609 3566 1747 
Q 3566 888 3137 398 
Q 2709 -91 1959 -91 
Q 1206 -91 779 398 
Q 353 888 353 1747 
Q 353 2609 779 3096 
Q 1206 3584 1959 3584 
z
" transform="scale(0.015625)"/>
       <path id="DejaVuSans-72" d="M 2631 2963 
Q 2534 3019 2420 3045 
Q 2306 3072 2169 3072 
Q 1681 3072 1420 2755 
Q 1159 2438 1159 1844 
L 1159 0 
L 581 0 
L 581 3500 
L 1159 3500 
L 1159 2956 
Q 1341 3275 1631 3429 
Q 1922 3584 2338 3584 
Q 2397 3584 2469 3576 
Q 2541 3569 2628 3553 
L 2631 2963 
z
" transform="scale(0.015625)"/>
       <path id="Cmmi10-b0" d="M 1888 -1253 
Q 1888 -1109 1952 -834 
Q 2016 -559 2108 -248 
Q 2200 63 2266 263 
Q 2291 581 2291 744 
Q 2291 1156 2209 1511 
Q 2128 1866 1903 2105 
Q 1678 2344 1275 2344 
Q 1063 2344 852 2253 
Q 641 2163 489 2000 
Q 338 1838 281 1631 
Q 269 1594 231 1594 
L 153 1594 
Q 103 1594 103 1650 
L 103 1672 
Q 175 1959 358 2226 
Q 541 2494 805 2661 
Q 1069 2828 1363 2828 
Q 1663 2828 1881 2625 
Q 2100 2422 2231 2109 
Q 2363 1797 2420 1478 
Q 2478 1159 2478 878 
Q 2800 1753 3200 2534 
L 3297 2741 
Q 3316 2759 3341 2759 
L 3419 2759 
Q 3469 2759 3469 2700 
Q 3469 2688 3456 2663 
L 3359 2463 
Q 3081 1909 2848 1340 
Q 2616 772 2450 244 
Q 2425 28 2354 -347 
Q 2284 -722 2184 -1045 
Q 2084 -1369 1984 -1381 
Q 1888 -1381 1888 -1253 
z
" transform="scale(0.015625)"/>
       <path id="DejaVuSans-66" d="M 2375 4863 
L 2375 4384 
L 1825 4384 
Q 1516 4384 1395 4259 
Q 1275 4134 1275 3809 
L 1275 3500 
L 2222 3500 
L 2222 3053 
L 1275 3053 
L 1275 0 
L 697 0 
L 697 3053 
L 147 3053 
L 147 3500 
L 697 3500 
L 697 3744 
Q 697 4328 969 4595 
Q 1241 4863 1831 4863 
L 2375 4863 
z
" transform="scale(0.015625)"/>
       <path id="Cmmi10-54" d="M 294 84 
Q 297 100 308 140 
Q 319 181 336 203 
Q 353 225 384 225 
Q 934 225 1113 256 
Q 1284 300 1319 441 
L 2194 3956 
Q 2222 4034 2222 4097 
Q 2222 4147 1997 4147 
L 1625 4147 
Q 1197 4147 964 4015 
Q 731 3884 622 3668 
Q 513 3453 341 2963 
Q 319 2906 275 2906 
L 219 2906 
Q 153 2906 153 2988 
L 609 4313 
Q 622 4372 672 4372 
L 4453 4372 
Q 4519 4372 4519 4288 
L 4306 2963 
Q 4306 2944 4284 2925 
Q 4263 2906 4244 2906 
L 4184 2906 
Q 4122 2906 4122 2988 
Q 4191 3441 4191 3628 
Q 4191 3853 4097 3968 
Q 4003 4084 3853 4115 
Q 3703 4147 3463 4147 
L 3084 4147 
Q 2913 4147 2853 4115 
Q 2794 4084 2753 3928 
L 1875 416 
Q 1872 403 1870 390 
Q 1869 378 1863 359 
Q 1863 278 1959 256 
Q 2125 225 2669 225 
Q 2731 225 2731 141 
Q 2709 50 2696 25 
Q 2684 0 2625 0 
L 359 0 
Q 294 0 294 84 
z
" transform="scale(0.015625)"/>
       <path id="Cmr10-30" d="M 1600 -141 
Q 816 -141 533 504 
Q 250 1150 250 2041 
Q 250 2597 351 3087 
Q 453 3578 754 3920 
Q 1056 4263 1600 4263 
Q 2022 4263 2290 4056 
Q 2559 3850 2700 3523 
Q 2841 3197 2892 2823 
Q 2944 2450 2944 2041 
Q 2944 1491 2842 1011 
Q 2741 531 2444 195 
Q 2147 -141 1600 -141 
z
M 1600 25 
Q 1956 25 2131 390 
Q 2306 756 2347 1200 
Q 2388 1644 2388 2144 
Q 2388 2625 2347 3031 
Q 2306 3438 2132 3767 
Q 1959 4097 1600 4097 
Q 1238 4097 1063 3765 
Q 888 3434 847 3029 
Q 806 2625 806 2144 
Q 806 1788 823 1472 
Q 841 1156 916 820 
Q 991 484 1158 254 
Q 1325 25 1600 25 
z
" transform="scale(0.015625)"/>
      </defs>
      <use xlink:href="#DejaVuSans-50" transform="translate(0 0.015625)"/>
      <use xlink:href="#DejaVuSans-65" transform="translate(60.302734 0.015625)"/>
      <use xlink:href="#DejaVuSans-6e" transform="translate(121.826172 0.015625)"/>
      <use xlink:href="#DejaVuSans-61" transform="translate(185.205078 0.015625)"/>
      <use xlink:href="#DejaVuSans-6c" transform="translate(246.484375 0.015625)"/>
      <use xlink:href="#DejaVuSans-74" transform="translate(274.267578 0.015625)"/>
      <use xlink:href="#DejaVuSans-79" transform="translate(313.476562 0.015625)"/>
      <use xlink:href="#DejaVuSans-20" transform="translate(372.65625 0.015625)"/>
      <use xlink:href="#DejaVuSans-46" transform="translate(404.443359 0.015625)"/>
      <use xlink:href="#DejaVuSans-61" transform="translate(461.962891 0.015625)"/>
      <use xlink:href="#DejaVuSans-63" transform="translate(523.242188 0.015625)"/>
      <use xlink:href="#DejaVuSans-74" transform="translate(578.222656 0.015625)"/>
      <use xlink:href="#DejaVuSans-6f" transform="translate(617.431641 0.015625)"/>
      <use xlink:href="#DejaVuSans-72" transform="translate(678.613281 0.015625)"/>
      <use xlink:href="#DejaVuSans-20" transform="translate(719.726562 0.015625)"/>
      <use xlink:href="#Cmmi10-b0" transform="translate(751.513672 0.015625)"/>
      <use xlink:href="#DejaVuSans-20" transform="translate(803.222656 0.015625)"/>
      <use xlink:href="#DejaVuSans-6f" transform="translate(835.009766 0.015625)"/>
      <use xlink:href="#DejaVuSans-66" transform="translate(896.191406 0.015625)"/>
      <use xlink:href="#DejaVuSans-20" transform="translate(931.396484 0.015625)"/>
      <use xlink:href="#Cmmi10-b0" transform="translate(963.183594 0.015625)"/>
      <use xlink:href="#Cmmi10-54" transform="translate(1014.892578 0.015625)"/>
      <use xlink:href="#Cmr10-30" transform="translate(1073.291016 -16.990625) scale(0.7)"/>
     </g>
    </g>
   </g>
   <g id="line2d_11">
    <path d="M 54.4575 169.799568 
L 88.5325 163.396891 
L 122.6075 153.64043 
L 156.6825 141.749744 
L 190.7575 128.029722 
L 224.8325 110.041248 
L 258.9075 90.833217 
L 292.9825 67.661624 
L 327.0575 43.880251 
" clip-path="url(#pd123988e8b)" style="fill: none; stroke: #ee2a25; stroke-width: 2; stroke-linecap: square"/>
    <defs>
     <path id="m5457e251d6" d="M 0 3 
C 0.795609 3 1.55874 2.683901 2.12132 2.12132 
C 2.683901 1.55874 3 0.795609 3 0 
C 3 -0.795609 2.683901 -1.55874 2.12132 -2.12132 
C 1.55874 -2.683901 0.795609 -3 0 -3 
C -0.795609 -3 -1.55874 -2.683901 -2.12132 -2.12132 
C -2.683901 -1.55874 -3 -0.795609 -3 0 
C -3 0.795609 -2.683901 1.55874 -2.12132 2.12132 
C -1.55874 2.683901 -0.795609 3 0 3 
z
" style="stroke: #ee2a25"/>
    </defs>
    <g clip-path="url(#pd123988e8b)">
     <use xlink:href="#m5457e251d6" x="54.4575" y="169.799568" style="fill: #ee2a25; stroke: #ee2a25"/>
     <use xlink:href="#m5457e251d6" x="88.5325" y="163.396891" style="fill: #ee2a25; stroke: #ee2a25"/>
     <use xlink:href="#m5457e251d6" x="122.6075" y="153.64043" style="fill: #ee2a25; stroke: #ee2a25"/>
     <use xlink:href="#m5457e251d6" x="156.6825" y="141.749744" style="fill: #ee2a25; stroke: #ee2a25"/>
     <use xlink:href="#m5457e251d6" x="190.7575" y="128.029722" style="fill: #ee2a25; stroke: #ee2a25"/>
     <use xlink:href="#m5457e251d6" x="224.8325" y="110.041248" style="fill: #ee2a25; stroke: #ee2a25"/>
     <use xlink:href="#m5457e251d6" x="258.9075" y="90.833217" style="fill: #ee2a25; stroke: #ee2a25"/>
     <use xlink:href="#m5457e251d6" x="292.9825" y="67.661624" style="fill: #ee2a25; stroke: #ee2a25"/>
     <use xlink:href="#m5457e251d6" x="327.0575" y="43.880251" style="fill: #ee2a25; stroke: #ee2a25"/>
    </g>
   </g>
   <g id="line2d_12">
    <path d="M 54.4575 169.799568 
L 88.5325 166.039265 
L 122.6075 158.518661 
L 156.6825 147.237753 
L 190.7575 132.196544 
L 224.8325 113.395031 
L 258.9075 90.833217 
L 292.9825 64.5111 
L 327.0575 34.42868 
" clip-path="url(#pd123988e8b)" style="fill: none; stroke-dasharray: 7.4,3.2; stroke-dashoffset: 0; stroke: #0076aa; stroke-width: 2"/>
    <defs>
     <path id="m56108563b6" d="M -3 3 
L 3 3 
L 3 -3 
L -3 -3 
z
" style="stroke: #0076aa; stroke-linejoin: miter"/>
    </defs>
    <g clip-path="url(#pd123988e8b)">
     <use xlink:href="#m56108563b6" x="54.4575" y="169.799568" style="fill: #0076aa; stroke: #0076aa; stroke-linejoin: miter"/>
     <use xlink:href="#m56108563b6" x="88.5325" y="166.039265" style="fill: #0076aa; stroke: #0076aa; stroke-linejoin: miter"/>
     <use xlink:href="#m56108563b6" x="122.6075" y="158.518661" style="fill: #0076aa; stroke: #0076aa; stroke-linejoin: miter"/>
     <use xlink:href="#m56108563b6" x="156.6825" y="147.237753" style="fill: #0076aa; stroke: #0076aa; stroke-linejoin: miter"/>
     <use xlink:href="#m56108563b6" x="190.7575" y="132.196544" style="fill: #0076aa; stroke: #0076aa; stroke-linejoin: miter"/>
     <use xlink:href="#m56108563b6" x="224.8325" y="113.395031" style="fill: #0076aa; stroke: #0076aa; stroke-linejoin: miter"/>
     <use xlink:href="#m56108563b6" x="258.9075" y="90.833217" style="fill: #0076aa; stroke: #0076aa; stroke-linejoin: miter"/>
     <use xlink:href="#m56108563b6" x="292.9825" y="64.5111" style="fill: #0076aa; stroke: #0076aa; stroke-linejoin: miter"/>
     <use xlink:href="#m56108563b6" x="327.0575" y="34.42868" style="fill: #0076aa; stroke: #0076aa; stroke-linejoin: miter"/>
    </g>
   </g>
   <g id="patch_3">
    <path d="M 40.8275 186.720929 
L 40.8275 25.968 
" style="fill: none; stroke: #000000; stroke-width: 0.8; stroke-linejoin: miter; stroke-linecap: square"/>
   </g>
   <g id="patch_4">
    <path d="M 340.6875 186.720929 
L 340.6875 25.968 
" style="fill: none; stroke: #000000; stroke-width: 0.8; stroke-linejoin: miter; stroke-linecap: square"/>
   </g>
   <g id="patch_5">
    <path d="M 40.8275 186.720929 
L 340.6875 186.720929 
" style="fill: none; stroke: #000000; stroke-width: 0.8; stroke-linejoin: miter; stroke-linecap: square"/>
   </g>
   <g id="patch_6">
    <path d="M 40.8275 25.968 
L 340.6875 25.968 
" style="fill: none; stroke: #000000; stroke-width: 0.8; stroke-linejoin: miter; stroke-linecap: square"/>
   </g>
   <g id="text_13">
    <!-- $\mathrm{Equihash}(200,9)$ Time Penalty -->
    <g transform="translate(72.1495 19.968) scale(0.168 -0.168)">
     <defs>
      <path id="Cmr10-45" d="M 197 0 
L 197 225 
Q 856 225 856 428 
L 856 3944 
Q 856 4147 197 4147 
L 197 4372 
L 3816 4372 
L 3994 2906 
L 3809 2906 
Q 3741 3459 3617 3709 
Q 3494 3959 3222 4053 
Q 2950 4147 2406 4147 
L 1778 4147 
Q 1663 4147 1598 4137 
Q 1534 4128 1493 4083 
Q 1453 4038 1453 3944 
L 1453 2381 
L 1925 2381 
Q 2250 2381 2411 2436 
Q 2572 2491 2633 2645 
Q 2694 2800 2694 3128 
L 2881 3128 
L 2881 1409 
L 2694 1409 
Q 2694 1734 2633 1890 
Q 2572 2047 2411 2101 
Q 2250 2156 1925 2156 
L 1453 2156 
L 1453 428 
Q 1453 291 1531 258 
Q 1609 225 1778 225 
L 2456 225 
Q 2900 225 3173 295 
Q 3447 366 3598 530 
Q 3750 694 3833 955 
Q 3916 1216 3988 1678 
L 4172 1678 
L 3903 0 
L 197 0 
z
" transform="scale(0.015625)"/>
      <path id="Cmr10-71" d="M 1919 -1241 
L 1919 -1019 
Q 2138 -1019 2278 -981 
Q 2419 -944 2419 -813 
L 2419 372 
Q 2269 172 2041 50 
Q 1813 -72 1563 -72 
Q 1275 -72 1028 47 
Q 781 166 598 369 
Q 416 572 314 839 
Q 213 1106 213 1381 
Q 213 1763 400 2098 
Q 588 2434 914 2631 
Q 1241 2828 1619 2828 
Q 1891 2828 2122 2675 
Q 2353 2522 2491 2266 
L 2719 2828 
L 2888 2828 
L 2888 -813 
Q 2888 -944 3028 -981 
Q 3169 -1019 3384 -1019 
L 3384 -1241 
L 1919 -1241 
z
M 1600 97 
Q 1884 97 2107 286 
Q 2331 475 2438 763 
L 2438 1888 
Q 2372 2194 2165 2419 
Q 1959 2644 1672 2644 
Q 1453 2644 1281 2528 
Q 1109 2413 995 2219 
Q 881 2025 825 1800 
Q 769 1575 769 1375 
Q 769 1119 859 817 
Q 950 516 1137 306 
Q 1325 97 1600 97 
z
" transform="scale(0.015625)"/>
      <path id="Cmr10-75" d="M 691 763 
L 691 2175 
Q 691 2347 639 2423 
Q 588 2500 491 2517 
Q 394 2534 191 2534 
L 191 2759 
L 1159 2828 
L 1159 763 
Q 1159 513 1195 373 
Q 1231 234 1348 165 
Q 1466 97 1722 97 
Q 2066 97 2269 384 
Q 2472 672 2472 1038 
L 2472 2175 
Q 2472 2347 2419 2423 
Q 2366 2500 2270 2517 
Q 2175 2534 1972 2534 
L 1972 2759 
L 2938 2828 
L 2938 581 
Q 2938 413 2989 336 
Q 3041 259 3137 242 
Q 3234 225 3438 225 
L 3438 0 
L 2491 -72 
L 2491 469 
Q 2372 228 2159 78 
Q 1947 -72 1691 -72 
Q 1231 -72 961 123 
Q 691 319 691 763 
z
" transform="scale(0.015625)"/>
      <path id="Cmr10-69" d="M 197 0 
L 197 225 
Q 416 225 556 259 
Q 697 294 697 428 
L 697 2175 
Q 697 2422 601 2478 
Q 506 2534 225 2534 
L 225 2759 
L 1147 2828 
L 1147 428 
Q 1147 294 1269 259 
Q 1391 225 1594 225 
L 1594 0 
L 197 0 
z
M 469 3928 
Q 469 4069 575 4175 
Q 681 4281 819 4281 
Q 909 4281 993 4234 
Q 1078 4188 1125 4103 
Q 1172 4019 1172 3928 
Q 1172 3791 1065 3684 
Q 959 3578 819 3578 
Q 681 3578 575 3684 
Q 469 3791 469 3928 
z
" transform="scale(0.015625)"/>
      <path id="Cmr10-68" d="M 191 0 
L 191 225 
Q 409 225 550 259 
Q 691 294 691 428 
L 691 3788 
Q 691 3959 639 4036 
Q 588 4113 491 4130 
Q 394 4147 191 4147 
L 191 4372 
L 1141 4441 
L 1141 2241 
Q 1275 2506 1515 2667 
Q 1756 2828 2047 2828 
Q 2491 2828 2714 2615 
Q 2938 2403 2938 1966 
L 2938 428 
Q 2938 294 3078 259 
Q 3219 225 3438 225 
L 3438 0 
L 1972 0 
L 1972 225 
Q 2191 225 2331 259 
Q 2472 294 2472 428 
L 2472 1947 
Q 2472 2259 2381 2461 
Q 2291 2663 2009 2663 
Q 1638 2663 1398 2366 
Q 1159 2069 1159 1691 
L 1159 428 
Q 1159 294 1300 259 
Q 1441 225 1656 225 
L 1656 0 
L 191 0 
z
" transform="scale(0.015625)"/>
      <path id="Cmr10-61" d="M 256 628 
Q 256 1009 556 1248 
Q 856 1488 1276 1586 
Q 1697 1684 2075 1684 
L 2075 1947 
Q 2075 2131 1994 2304 
Q 1913 2478 1759 2589 
Q 1606 2700 1422 2700 
Q 997 2700 775 2509 
Q 897 2509 976 2417 
Q 1056 2325 1056 2203 
Q 1056 2075 965 1984 
Q 875 1894 750 1894 
Q 622 1894 531 1984 
Q 441 2075 441 2203 
Q 441 2541 747 2705 
Q 1053 2869 1422 2869 
Q 1681 2869 1943 2758 
Q 2206 2647 2373 2440 
Q 2541 2234 2541 1959 
L 2541 519 
Q 2541 394 2594 289 
Q 2647 184 2759 184 
Q 2866 184 2917 290 
Q 2969 397 2969 519 
L 2969 928 
L 3156 928 
L 3156 519 
Q 3156 375 3081 245 
Q 3006 116 2879 39 
Q 2753 -38 2606 -38 
Q 2419 -38 2283 107 
Q 2147 253 2131 453 
Q 2013 213 1781 70 
Q 1550 -72 1288 -72 
Q 1044 -72 808 0 
Q 572 72 414 226 
Q 256 381 256 628 
z
M 775 628 
Q 775 403 940 250 
Q 1106 97 1331 97 
Q 1538 97 1706 200 
Q 1875 303 1975 481 
Q 2075 659 2075 856 
L 2075 1522 
Q 1784 1522 1479 1426 
Q 1175 1331 975 1128 
Q 775 925 775 628 
z
" transform="scale(0.015625)"/>
      <path id="Cmr10-73" d="M 213 -19 
L 213 1025 
Q 213 1075 269 1075 
L 347 1075 
Q 384 1075 397 1025 
Q 575 97 1259 97 
Q 1563 97 1767 234 
Q 1972 372 1972 659 
Q 1972 866 1812 1011 
Q 1653 1156 1434 1209 
L 1006 1294 
Q 791 1341 614 1437 
Q 438 1534 325 1695 
Q 213 1856 213 2069 
Q 213 2350 361 2529 
Q 509 2709 746 2789 
Q 984 2869 1259 2869 
Q 1588 2869 1831 2694 
L 2016 2853 
Q 2016 2869 2047 2869 
L 2094 2869 
Q 2113 2869 2128 2851 
Q 2144 2834 2144 2816 
L 2144 1978 
Q 2144 1919 2094 1919 
L 2016 1919 
Q 1959 1919 1959 1978 
Q 1959 2313 1773 2516 
Q 1588 2719 1253 2719 
Q 966 2719 755 2612 
Q 544 2506 544 2247 
Q 544 2069 695 1955 
Q 847 1841 1050 1791 
L 1484 1709 
Q 1703 1659 1892 1540 
Q 2081 1422 2192 1240 
Q 2303 1059 2303 831 
Q 2303 600 2223 429 
Q 2144 259 2001 146 
Q 1859 34 1665 -19 
Q 1472 -72 1259 -72 
Q 859 -72 575 197 
L 341 -56 
Q 341 -72 306 -72 
L 269 -72 
Q 213 -72 213 -19 
z
" transform="scale(0.015625)"/>
      <path id="Cmr10-28" d="M 1984 -1588 
Q 1628 -1306 1370 -942 
Q 1113 -578 948 -165 
Q 784 247 703 697 
Q 622 1147 622 1600 
Q 622 2059 703 2509 
Q 784 2959 951 3375 
Q 1119 3791 1378 4153 
Q 1638 4516 1984 4788 
Q 1984 4800 2016 4800 
L 2075 4800 
Q 2094 4800 2109 4783 
Q 2125 4766 2125 4744 
Q 2125 4716 2113 4703 
Q 1800 4397 1592 4047 
Q 1384 3697 1257 3301 
Q 1131 2906 1075 2482 
Q 1019 2059 1019 1600 
Q 1019 -434 2106 -1491 
Q 2125 -1509 2125 -1544 
Q 2125 -1559 2108 -1579 
Q 2091 -1600 2075 -1600 
L 2016 -1600 
Q 1984 -1600 1984 -1588 
z
" transform="scale(0.015625)"/>
      <path id="Cmr10-32" d="M 319 0 
L 319 172 
Q 319 188 331 206 
L 1325 1306 
Q 1550 1550 1690 1715 
Q 1831 1881 1968 2097 
Q 2106 2313 2186 2536 
Q 2266 2759 2266 3009 
Q 2266 3272 2169 3511 
Q 2072 3750 1880 3894 
Q 1688 4038 1416 4038 
Q 1138 4038 916 3870 
Q 694 3703 603 3438 
Q 628 3444 672 3444 
Q 816 3444 917 3347 
Q 1019 3250 1019 3097 
Q 1019 2950 917 2848 
Q 816 2747 672 2747 
Q 522 2747 420 2851 
Q 319 2956 319 3097 
Q 319 3338 409 3548 
Q 500 3759 670 3923 
Q 841 4088 1055 4175 
Q 1269 4263 1509 4263 
Q 1875 4263 2190 4108 
Q 2506 3953 2690 3670 
Q 2875 3388 2875 3009 
Q 2875 2731 2753 2481 
Q 2631 2231 2440 2026 
Q 2250 1822 1953 1562 
Q 1656 1303 1563 1216 
L 838 519 
L 1453 519 
Q 1906 519 2211 526 
Q 2516 534 2534 550 
Q 2609 631 2688 1141 
L 2875 1141 
L 2694 0 
L 319 0 
z
" transform="scale(0.015625)"/>
      <path id="Cmmi10-3b" d="M 634 -1153 
Q 634 -1125 659 -1100 
Q 891 -878 1019 -587 
Q 1147 -297 1147 25 
L 1147 103 
Q 1044 0 891 0 
Q 744 0 641 103 
Q 538 206 538 353 
Q 538 503 641 603 
Q 744 703 891 703 
Q 1119 703 1216 492 
Q 1313 281 1313 25 
Q 1313 -331 1170 -651 
Q 1028 -972 769 -1228 
Q 744 -1241 728 -1241 
Q 697 -1241 665 -1212 
Q 634 -1184 634 -1153 
z
" transform="scale(0.015625)"/>
      <path id="Cmr10-39" d="M 722 269 
Q 897 63 1331 63 
Q 1575 63 1786 228 
Q 1997 394 2113 634 
Q 2247 906 2284 1214 
Q 2322 1522 2322 1978 
Q 2213 1719 2008 1553 
Q 1803 1388 1538 1388 
Q 1166 1388 873 1589 
Q 581 1791 425 2120 
Q 269 2450 269 2822 
Q 269 3206 444 3539 
Q 619 3872 928 4067 
Q 1238 4263 1631 4263 
Q 2019 4263 2280 4052 
Q 2541 3841 2678 3508 
Q 2816 3175 2870 2803 
Q 2925 2431 2925 2069 
Q 2925 1575 2744 1061 
Q 2563 547 2202 203 
Q 1841 -141 1331 -141 
Q 953 -141 690 37 
Q 428 216 428 575 
Q 428 706 517 795 
Q 606 884 738 884 
Q 866 884 955 795 
Q 1044 706 1044 575 
Q 1044 450 953 359 
Q 863 269 738 269 
L 722 269 
z
M 1563 1556 
Q 1825 1556 1992 1732 
Q 2159 1909 2234 2171 
Q 2309 2434 2309 2694 
L 2309 2816 
L 2309 2841 
Q 2309 3322 2168 3700 
Q 2028 4078 1631 4078 
Q 1378 4078 1220 3967 
Q 1063 3856 988 3672 
Q 913 3488 892 3278 
Q 872 3069 872 2822 
Q 872 2459 906 2203 
Q 941 1947 1094 1751 
Q 1247 1556 1563 1556 
z
" transform="scale(0.015625)"/>
      <path id="Cmr10-29" d="M 416 -1600 
Q 359 -1600 359 -1544 
Q 359 -1516 372 -1503 
Q 1466 -434 1466 1600 
Q 1466 3634 384 4691 
Q 359 4706 359 4744 
Q 359 4766 376 4783 
Q 394 4800 416 4800 
L 475 4800 
Q 494 4800 506 4788 
Q 966 4425 1272 3906 
Q 1578 3388 1720 2800 
Q 1863 2213 1863 1600 
Q 1863 1147 1786 708 
Q 1709 269 1542 -157 
Q 1375 -584 1119 -945 
Q 863 -1306 506 -1588 
Q 494 -1600 475 -1600 
L 416 -1600 
z
" transform="scale(0.015625)"/>
      <path id="DejaVuSans-54" d="M -19 4666 
L 3928 4666 
L 3928 4134 
L 2272 4134 
L 2272 0 
L 1638 0 
L 1638 4134 
L -19 4134 
L -19 4666 
z
" transform="scale(0.015625)"/>
      <path id="DejaVuSans-69" d="M 603 3500 
L 1178 3500 
L 1178 0 
L 603 0 
L 603 3500 
z
M 603 4863 
L 1178 4863 
L 1178 4134 
L 603 4134 
L 603 4863 
z
" transform="scale(0.015625)"/>
      <path id="DejaVuSans-6d" d="M 3328 2828 
Q 3544 3216 3844 3400 
Q 4144 3584 4550 3584 
Q 5097 3584 5394 3201 
Q 5691 2819 5691 2113 
L 5691 0 
L 5113 0 
L 5113 2094 
Q 5113 2597 4934 2840 
Q 4756 3084 4391 3084 
Q 3944 3084 3684 2787 
Q 3425 2491 3425 1978 
L 3425 0 
L 2847 0 
L 2847 2094 
Q 2847 2600 2669 2842 
Q 2491 3084 2119 3084 
Q 1678 3084 1418 2786 
Q 1159 2488 1159 1978 
L 1159 0 
L 581 0 
L 581 3500 
L 1159 3500 
L 1159 2956 
Q 1356 3278 1631 3431 
Q 1906 3584 2284 3584 
Q 2666 3584 2933 3390 
Q 3200 3197 3328 2828 
z
" transform="scale(0.015625)"/>
     </defs>
     <use xlink:href="#Cmr10-45" transform="translate(0 0.015625)"/>
     <use xlink:href="#Cmr10-71" transform="translate(68.017578 0.015625)"/>
     <use xlink:href="#Cmr10-75" transform="translate(120.703125 0.015625)"/>
     <use xlink:href="#Cmr10-69" transform="translate(176.220703 0.015625)"/>
     <use xlink:href="#Cmr10-68" transform="translate(203.90625 0.015625)"/>
     <use xlink:href="#Cmr10-61" transform="translate(259.423828 0.015625)"/>
     <use xlink:href="#Cmr10-73" transform="translate(309.423828 0.015625)"/>
     <use xlink:href="#Cmr10-68" transform="translate(348.828125 0.015625)"/>
     <use xlink:href="#Cmr10-28" transform="translate(404.345703 0.015625)"/>
     <use xlink:href="#Cmr10-32" transform="translate(443.164062 0.015625)"/>
     <use xlink:href="#Cmr10-30" transform="translate(493.164062 0.015625)"/>
     <use xlink:href="#Cmr10-30" transform="translate(543.164062 0.015625)"/>
     <use xlink:href="#Cmmi10-3b" transform="translate(593.164062 0.015625)"/>
     <use xlink:href="#Cmr10-39" transform="translate(638.408203 0.015625)"/>
     <use xlink:href="#Cmr10-29" transform="translate(688.408203 0.015625)"/>
     <use xlink:href="#DejaVuSans-20" transform="translate(727.226562 0.015625)"/>
     <use xlink:href="#DejaVuSans-54" transform="translate(759.013672 0.015625)"/>
     <use xlink:href="#DejaVuSans-69" transform="translate(820.097656 0.015625)"/>
     <use xlink:href="#DejaVuSans-6d" transform="translate(847.880859 0.015625)"/>
     <use xlink:href="#DejaVuSans-65" transform="translate(945.292969 0.015625)"/>
     <use xlink:href="#DejaVuSans-20" transform="translate(1006.816406 0.015625)"/>
     <use xlink:href="#DejaVuSans-50" transform="translate(1038.603516 0.015625)"/>
     <use xlink:href="#DejaVuSans-65" transform="translate(1098.90625 0.015625)"/>
     <use xlink:href="#DejaVuSans-6e" transform="translate(1160.429688 0.015625)"/>
     <use xlink:href="#DejaVuSans-61" transform="translate(1223.808594 0.015625)"/>
     <use xlink:href="#DejaVuSans-6c" transform="translate(1285.087891 0.015625)"/>
     <use xlink:href="#DejaVuSans-74" transform="translate(1312.871094 0.015625)"/>
     <use xlink:href="#DejaVuSans-79" transform="translate(1352.080078 0.015625)"/>
    </g>
   </g>
  </g>
  <g id="axes_2">
   <g id="patch_7">
    <path d="M 416.1275 186.720929 
L 715.9875 186.720929 
L 715.9875 25.968 
L 416.1275 25.968 
z
" style="fill: #ffffff"/>
   </g>
   <g id="matplotlib.axis_3">
    <g id="xtick_6">
     <g id="line2d_13">
      <g>
       <use xlink:href="#m003dff8875" x="429.7575" y="186.720929" style="stroke: #000000; stroke-width: 0.8"/>
      </g>
     </g>
     <g id="text_14">
      <!-- 0 -->
      <g transform="translate(425.30375 204.358741) scale(0.14 -0.14)">
       <use xlink:href="#DejaVuSans-30"/>
      </g>
     </g>
    </g>
    <g id="xtick_7">
     <g id="line2d_14">
      <g>
       <use xlink:href="#m003dff8875" x="497.9075" y="186.720929" style="stroke: #000000; stroke-width: 0.8"/>
      </g>
     </g>
     <g id="text_15">
      <!-- 2 -->
      <g transform="translate(493.45375 204.358741) scale(0.14 -0.14)">
       <use xlink:href="#DejaVuSans-32"/>
      </g>
     </g>
    </g>
    <g id="xtick_8">
     <g id="line2d_15">
      <g>
       <use xlink:href="#m003dff8875" x="566.0575" y="186.720929" style="stroke: #000000; stroke-width: 0.8"/>
      </g>
     </g>
     <g id="text_16">
      <!-- 4 -->
      <g transform="translate(561.60375 204.358741) scale(0.14 -0.14)">
       <use xlink:href="#DejaVuSans-34"/>
      </g>
     </g>
    </g>
    <g id="xtick_9">
     <g id="line2d_16">
      <g>
       <use xlink:href="#m003dff8875" x="634.2075" y="186.720929" style="stroke: #000000; stroke-width: 0.8"/>
      </g>
     </g>
     <g id="text_17">
      <!-- 6 -->
      <g transform="translate(629.75375 204.358741) scale(0.14 -0.14)">
       <use xlink:href="#DejaVuSans-36"/>
      </g>
     </g>
    </g>
    <g id="xtick_10">
     <g id="line2d_17">
      <g>
       <use xlink:href="#m003dff8875" x="702.3575" y="186.720929" style="stroke: #000000; stroke-width: 0.8"/>
      </g>
     </g>
     <g id="text_18">
      <!-- 8 -->
      <g transform="translate(697.90375 204.358741) scale(0.14 -0.14)">
       <use xlink:href="#DejaVuSans-38"/>
      </g>
     </g>
    </g>
    <g id="text_19">
     <!-- h -->
     <g transform="translate(561.62125 221.908116) scale(0.14 -0.14)">
      <use xlink:href="#DejaVuSans-68"/>
     </g>
    </g>
   </g>
   <g id="matplotlib.axis_4">
    <g id="ytick_6">
     <g id="line2d_18">
      <g>
       <use xlink:href="#m06760ecc6c" x="416.1275" y="179.413977" style="stroke: #000000; stroke-width: 0.8"/>
      </g>
     </g>
     <g id="text_20">
      <!-- 0 -->
      <g transform="translate(400.22 184.732884) scale(0.14 -0.14)">
       <use xlink:href="#DejaVuSans-30"/>
      </g>
     </g>
    </g>
    <g id="ytick_7">
     <g id="line2d_19">
      <g>
       <use xlink:href="#m06760ecc6c" x="416.1275" y="128.75569" style="stroke: #000000; stroke-width: 0.8"/>
      </g>
     </g>
     <g id="text_21">
      <!-- 50 -->
      <g transform="translate(391.3125 134.074597) scale(0.14 -0.14)">
       <use xlink:href="#DejaVuSans-35"/>
       <use xlink:href="#DejaVuSans-30" x="63.623047"/>
      </g>
     </g>
    </g>
    <g id="ytick_8">
     <g id="line2d_20">
      <g>
       <use xlink:href="#m06760ecc6c" x="416.1275" y="78.097404" style="stroke: #000000; stroke-width: 0.8"/>
      </g>
     </g>
     <g id="text_22">
      <!-- 100 -->
      <g transform="translate(382.405 83.41631) scale(0.14 -0.14)">
       <use xlink:href="#DejaVuSans-31"/>
       <use xlink:href="#DejaVuSans-30" x="63.623047"/>
       <use xlink:href="#DejaVuSans-30" x="127.246094"/>
      </g>
     </g>
    </g>
    <g id="ytick_9">
     <g id="line2d_21">
      <g>
       <use xlink:href="#m06760ecc6c" x="416.1275" y="27.439117" style="stroke: #000000; stroke-width: 0.8"/>
      </g>
     </g>
     <g id="text_23">
      <!-- 150 -->
      <g transform="translate(382.405 32.758023) scale(0.14 -0.14)">
       <use xlink:href="#DejaVuSans-31"/>
       <use xlink:href="#DejaVuSans-35" x="63.623047"/>
       <use xlink:href="#DejaVuSans-30" x="127.246094"/>
      </g>
     </g>
    </g>
    <g id="text_24">
     <!-- PeakUSS (MB) -->
     <g transform="translate(375.493437 155.501964) rotate(-90) scale(0.14 -0.14)">
      <defs>
       <path id="DejaVuSans-6b" d="M 581 4863 
L 1159 4863 
L 1159 1991 
L 2875 3500 
L 3609 3500 
L 1753 1863 
L 3688 0 
L 2938 0 
L 1159 1709 
L 1159 0 
L 581 0 
L 581 4863 
z
" transform="scale(0.015625)"/>
       <path id="DejaVuSans-55" d="M 556 4666 
L 1191 4666 
L 1191 1831 
Q 1191 1081 1462 751 
Q 1734 422 2344 422 
Q 2950 422 3222 751 
Q 3494 1081 3494 1831 
L 3494 4666 
L 4128 4666 
L 4128 1753 
Q 4128 841 3676 375 
Q 3225 -91 2344 -91 
Q 1459 -91 1007 375 
Q 556 841 556 1753 
L 556 4666 
z
" transform="scale(0.015625)"/>
       <path id="DejaVuSans-53" d="M 3425 4513 
L 3425 3897 
Q 3066 4069 2747 4153 
Q 2428 4238 2131 4238 
Q 1616 4238 1336 4038 
Q 1056 3838 1056 3469 
Q 1056 3159 1242 3001 
Q 1428 2844 1947 2747 
L 2328 2669 
Q 3034 2534 3370 2195 
Q 3706 1856 3706 1288 
Q 3706 609 3251 259 
Q 2797 -91 1919 -91 
Q 1588 -91 1214 -16 
Q 841 59 441 206 
L 441 856 
Q 825 641 1194 531 
Q 1563 422 1919 422 
Q 2459 422 2753 634 
Q 3047 847 3047 1241 
Q 3047 1584 2836 1778 
Q 2625 1972 2144 2069 
L 1759 2144 
Q 1053 2284 737 2584 
Q 422 2884 422 3419 
Q 422 4038 858 4394 
Q 1294 4750 2059 4750 
Q 2388 4750 2728 4690 
Q 3069 4631 3425 4513 
z
" transform="scale(0.015625)"/>
       <path id="DejaVuSans-28" d="M 1984 4856 
Q 1566 4138 1362 3434 
Q 1159 2731 1159 2009 
Q 1159 1288 1364 580 
Q 1569 -128 1984 -844 
L 1484 -844 
Q 1016 -109 783 600 
Q 550 1309 550 2009 
Q 550 2706 781 3412 
Q 1013 4119 1484 4856 
L 1984 4856 
z
" transform="scale(0.015625)"/>
       <path id="DejaVuSans-4d" d="M 628 4666 
L 1569 4666 
L 2759 1491 
L 3956 4666 
L 4897 4666 
L 4897 0 
L 4281 0 
L 4281 4097 
L 3078 897 
L 2444 897 
L 1241 4097 
L 1241 0 
L 628 0 
L 628 4666 
z
" transform="scale(0.015625)"/>
       <path id="DejaVuSans-42" d="M 1259 2228 
L 1259 519 
L 2272 519 
Q 2781 519 3026 730 
Q 3272 941 3272 1375 
Q 3272 1813 3026 2020 
Q 2781 2228 2272 2228 
L 1259 2228 
z
M 1259 4147 
L 1259 2741 
L 2194 2741 
Q 2656 2741 2882 2914 
Q 3109 3088 3109 3444 
Q 3109 3797 2882 3972 
Q 2656 4147 2194 4147 
L 1259 4147 
z
M 628 4666 
L 2241 4666 
Q 2963 4666 3353 4366 
Q 3744 4066 3744 3513 
Q 3744 3084 3544 2831 
Q 3344 2578 2956 2516 
Q 3422 2416 3680 2098 
Q 3938 1781 3938 1306 
Q 3938 681 3513 340 
Q 3088 0 2303 0 
L 628 0 
L 628 4666 
z
" transform="scale(0.015625)"/>
       <path id="DejaVuSans-29" d="M 513 4856 
L 1013 4856 
Q 1481 4119 1714 3412 
Q 1947 2706 1947 2009 
Q 1947 1309 1714 600 
Q 1481 -109 1013 -844 
L 513 -844 
Q 928 -128 1133 580 
Q 1338 1288 1338 2009 
Q 1338 2731 1133 3434 
Q 928 4138 513 4856 
z
" transform="scale(0.015625)"/>
      </defs>
      <use xlink:href="#DejaVuSans-50"/>
      <use xlink:href="#DejaVuSans-65" x="56.677734"/>
      <use xlink:href="#DejaVuSans-61" x="118.201172"/>
      <use xlink:href="#DejaVuSans-6b" x="179.480469"/>
      <use xlink:href="#DejaVuSans-55" x="237.390625"/>
      <use xlink:href="#DejaVuSans-53" x="310.583984"/>
      <use xlink:href="#DejaVuSans-53" x="374.060547"/>
      <use xlink:href="#DejaVuSans-20" x="437.537109"/>
      <use xlink:href="#DejaVuSans-28" x="469.324219"/>
      <use xlink:href="#DejaVuSans-4d" x="508.337891"/>
      <use xlink:href="#DejaVuSans-42" x="594.617188"/>
      <use xlink:href="#DejaVuSans-29" x="663.220703"/>
     </g>
    </g>
   </g>
   <g id="line2d_22">
    <path d="M 429.7575 49.830079 
L 463.8325 62.798601 
L 497.9075 75.564489 
L 531.9825 88.127744 
L 566.0575 100.792316 
L 600.1325 113.659521 
L 634.2075 115.685852 
L 668.2825 115.989802 
L 702.3575 115.989802 
" clip-path="url(#p6a86486d72)" style="fill: none; stroke: #ee2a25; stroke-width: 2; stroke-linecap: square"/>
    <g clip-path="url(#p6a86486d72)">
     <use xlink:href="#m5457e251d6" x="429.7575" y="49.830079" style="fill: #ee2a25; stroke: #ee2a25"/>
     <use xlink:href="#m5457e251d6" x="463.8325" y="62.798601" style="fill: #ee2a25; stroke: #ee2a25"/>
     <use xlink:href="#m5457e251d6" x="497.9075" y="75.564489" style="fill: #ee2a25; stroke: #ee2a25"/>
     <use xlink:href="#m5457e251d6" x="531.9825" y="88.127744" style="fill: #ee2a25; stroke: #ee2a25"/>
     <use xlink:href="#m5457e251d6" x="566.0575" y="100.792316" style="fill: #ee2a25; stroke: #ee2a25"/>
     <use xlink:href="#m5457e251d6" x="600.1325" y="113.659521" style="fill: #ee2a25; stroke: #ee2a25"/>
     <use xlink:href="#m5457e251d6" x="634.2075" y="115.685852" style="fill: #ee2a25; stroke: #ee2a25"/>
     <use xlink:href="#m5457e251d6" x="668.2825" y="115.989802" style="fill: #ee2a25; stroke: #ee2a25"/>
     <use xlink:href="#m5457e251d6" x="702.3575" y="115.989802" style="fill: #ee2a25; stroke: #ee2a25"/>
    </g>
   </g>
   <g id="line2d_23">
    <path d="M 429.7575 84.176398 
L 463.8325 94.814638 
L 497.9075 105.452879 
L 531.9825 116.091119 
L 566.0575 126.729359 
L 600.1325 128.75569 
L 634.2075 128.75569 
L 668.2825 128.75569 
L 702.3575 128.75569 
" clip-path="url(#p6a86486d72)" style="fill: none; stroke-dasharray: 7.4,3.2; stroke-dashoffset: 0; stroke: #0076aa; stroke-width: 2"/>
    <g clip-path="url(#p6a86486d72)">
     <use xlink:href="#m56108563b6" x="429.7575" y="84.176398" style="fill: #0076aa; stroke: #0076aa; stroke-linejoin: miter"/>
     <use xlink:href="#m56108563b6" x="463.8325" y="94.814638" style="fill: #0076aa; stroke: #0076aa; stroke-linejoin: miter"/>
     <use xlink:href="#m56108563b6" x="497.9075" y="105.452879" style="fill: #0076aa; stroke: #0076aa; stroke-linejoin: miter"/>
     <use xlink:href="#m56108563b6" x="531.9825" y="116.091119" style="fill: #0076aa; stroke: #0076aa; stroke-linejoin: miter"/>
     <use xlink:href="#m56108563b6" x="566.0575" y="126.729359" style="fill: #0076aa; stroke: #0076aa; stroke-linejoin: miter"/>
     <use xlink:href="#m56108563b6" x="600.1325" y="128.75569" style="fill: #0076aa; stroke: #0076aa; stroke-linejoin: miter"/>
     <use xlink:href="#m56108563b6" x="634.2075" y="128.75569" style="fill: #0076aa; stroke: #0076aa; stroke-linejoin: miter"/>
     <use xlink:href="#m56108563b6" x="668.2825" y="128.75569" style="fill: #0076aa; stroke: #0076aa; stroke-linejoin: miter"/>
     <use xlink:href="#m56108563b6" x="702.3575" y="128.75569" style="fill: #0076aa; stroke: #0076aa; stroke-linejoin: miter"/>
    </g>
   </g>
   <g id="line2d_24">
    <path d="M 429.7575 78.097404 
L 702.3575 78.097404 
" clip-path="url(#p6a86486d72)" style="fill: none; stroke-dasharray: 5.55,2.4; stroke-dashoffset: 0; stroke: #ae8064; stroke-width: 1.5"/>
   </g>
   <g id="line2d_25">
    <path d="M 429.7575 33.274951 
L 702.3575 33.274951 
" clip-path="url(#p6a86486d72)" style="fill: none; stroke-dasharray: 5.55,2.4; stroke-dashoffset: 0; stroke: #2e8b57; stroke-width: 1.5"/>
   </g>
   <g id="patch_8">
    <path d="M 416.1275 186.720929 
L 416.1275 25.968 
" style="fill: none; stroke: #000000; stroke-width: 0.8; stroke-linejoin: miter; stroke-linecap: square"/>
   </g>
   <g id="patch_9">
    <path d="M 715.9875 186.720929 
L 715.9875 25.968 
" style="fill: none; stroke: #000000; stroke-width: 0.8; stroke-linejoin: miter; stroke-linecap: square"/>
   </g>
   <g id="patch_10">
    <path d="M 416.1275 186.720929 
L 715.9875 186.720929 
" style="fill: none; stroke: #000000; stroke-width: 0.8; stroke-linejoin: miter; stroke-linecap: square"/>
   </g>
   <g id="patch_11">
    <path d="M 416.1275 25.968 
L 715.9875 25.968 
" style="fill: none; stroke: #000000; stroke-width: 0.8; stroke-linejoin: miter; stroke-linecap: square"/>
   </g>
   <g id="text_25">
    <g clip-path="url(#p6a86486d72)">
     <!-- y = 2nN (100.0 MB) -->
     <g style="fill: #ae8064" transform="translate(506.59 70.53595) scale(0.12 -0.12)">
      <defs>
       <path id="DejaVuSans-3d" d="M 678 2906 
L 4684 2906 
L 4684 2381 
L 678 2381 
L 678 2906 
z
M 678 1631 
L 4684 1631 
L 4684 1100 
L 678 1100 
L 678 1631 
z
" transform="scale(0.015625)"/>
       <path id="DejaVuSans-4e" d="M 628 4666 
L 1478 4666 
L 3547 763 
L 3547 4666 
L 4159 4666 
L 4159 0 
L 3309 0 
L 1241 3903 
L 1241 0 
L 628 0 
L 628 4666 
z
" transform="scale(0.015625)"/>
       <path id="DejaVuSans-2e" d="M 684 794 
L 1344 794 
L 1344 0 
L 684 0 
L 684 794 
z
" transform="scale(0.015625)"/>
      </defs>
      <use xlink:href="#DejaVuSans-79"/>
      <use xlink:href="#DejaVuSans-20" x="59.179688"/>
      <use xlink:href="#DejaVuSans-3d" x="90.966797"/>
      <use xlink:href="#DejaVuSans-20" x="174.755859"/>
      <use xlink:href="#DejaVuSans-32" x="206.542969"/>
      <use xlink:href="#DejaVuSans-6e" x="270.166016"/>
      <use xlink:href="#DejaVuSans-4e" x="333.544922"/>
      <use xlink:href="#DejaVuSans-20" x="408.349609"/>
      <use xlink:href="#DejaVuSans-28" x="440.136719"/>
      <use xlink:href="#DejaVuSans-31" x="479.150391"/>
      <use xlink:href="#DejaVuSans-30" x="542.773438"/>
      <use xlink:href="#DejaVuSans-30" x="606.396484"/>
      <use xlink:href="#DejaVuSans-2e" x="670.019531"/>
      <use xlink:href="#DejaVuSans-30" x="701.806641"/>
      <use xlink:href="#DejaVuSans-20" x="765.429688"/>
      <use xlink:href="#DejaVuSans-4d" x="797.216797"/>
      <use xlink:href="#DejaVuSans-42" x="883.496094"/>
      <use xlink:href="#DejaVuSans-29" x="952.099609"/>
     </g>
    </g>
   </g>
   <g id="text_26">
    <g clip-path="url(#p6a86486d72)">
     <!-- y = 144.2 MB -->
     <g style="fill: #2e8b57" transform="translate(525.2875 46.777247) scale(0.12 -0.12)">
      <use xlink:href="#DejaVuSans-79"/>
      <use xlink:href="#DejaVuSans-20" x="59.179688"/>
      <use xlink:href="#DejaVuSans-3d" x="90.966797"/>
      <use xlink:href="#DejaVuSans-20" x="174.755859"/>
      <use xlink:href="#DejaVuSans-31" x="206.542969"/>
      <use xlink:href="#DejaVuSans-34" x="270.166016"/>
      <use xlink:href="#DejaVuSans-34" x="333.789062"/>
      <use xlink:href="#DejaVuSans-2e" x="397.412109"/>
      <use xlink:href="#DejaVuSans-32" x="429.199219"/>
      <use xlink:href="#DejaVuSans-20" x="492.822266"/>
      <use xlink:href="#DejaVuSans-4d" x="524.609375"/>
      <use xlink:href="#DejaVuSans-42" x="610.888672"/>
     </g>
    </g>
   </g>
   <g id="text_27">
    <!-- $\mathrm{Equihash}(200,9)$ Peak Memory -->
    <g transform="translate(445.1815 19.968) scale(0.168 -0.168)">
     <use xlink:href="#Cmr10-45" transform="translate(0 0.015625)"/>
     <use xlink:href="#Cmr10-71" transform="translate(68.017578 0.015625)"/>
     <use xlink:href="#Cmr10-75" transform="translate(120.703125 0.015625)"/>
     <use xlink:href="#Cmr10-69" transform="translate(176.220703 0.015625)"/>
     <use xlink:href="#Cmr10-68" transform="translate(203.90625 0.015625)"/>
     <use xlink:href="#Cmr10-61" transform="translate(259.423828 0.015625)"/>
     <use xlink:href="#Cmr10-73" transform="translate(309.423828 0.015625)"/>
     <use xlink:href="#Cmr10-68" transform="translate(348.828125 0.015625)"/>
     <use xlink:href="#Cmr10-28" transform="translate(404.345703 0.015625)"/>
     <use xlink:href="#Cmr10-32" transform="translate(443.164062 0.015625)"/>
     <use xlink:href="#Cmr10-30" transform="translate(493.164062 0.015625)"/>
     <use xlink:href="#Cmr10-30" transform="translate(543.164062 0.015625)"/>
     <use xlink:href="#Cmmi10-3b" transform="translate(593.164062 0.015625)"/>
     <use xlink:href="#Cmr10-39" transform="translate(638.408203 0.015625)"/>
     <use xlink:href="#Cmr10-29" transform="translate(688.408203 0.015625)"/>
     <use xlink:href="#DejaVuSans-20" transform="translate(727.226562 0.015625)"/>
     <use xlink:href="#DejaVuSans-50" transform="translate(759.013672 0.015625)"/>
     <use xlink:href="#DejaVuSans-65" transform="translate(819.316406 0.015625)"/>
     <use xlink:href="#DejaVuSans-61" transform="translate(880.839844 0.015625)"/>
     <use xlink:href="#DejaVuSans-6b" transform="translate(942.119141 0.015625)"/>
     <use xlink:href="#DejaVuSans-20" transform="translate(1000.029297 0.015625)"/>
     <use xlink:href="#DejaVuSans-4d" transform="translate(1031.816406 0.015625)"/>
     <use xlink:href="#DejaVuSans-65" transform="translate(1118.095703 0.015625)"/>
     <use xlink:href="#DejaVuSans-6d" transform="translate(1179.619141 0.015625)"/>
     <use xlink:href="#DejaVuSans-6f" transform="translate(1277.03125 0.015625)"/>
     <use xlink:href="#DejaVuSans-72" transform="translate(1338.212891 0.015625)"/>
     <use xlink:href="#DejaVuSans-79" transform="translate(1379.326172 0.015625)"/>
    </g>
   </g>
  </g>
  <g id="axes_3">
   <g id="patch_12">
    <path d="M 40.8275 414.9885 
L 340.6875 414.9885 
L 340.6875 254.235571 
L 40.8275 254.235571 
z
" style="fill: #ffffff"/>
   </g>
   <g id="matplotlib.axis_5">
    <g id="xtick_11">
     <g id="line2d_26">
      <g>
       <use xlink:href="#m003dff8875" x="54.4575" y="414.9885" style="stroke: #000000; stroke-width: 0.8"/>
      </g>
     </g>
     <g id="text_28">
      <!-- 0 -->
      <g transform="translate(50.00375 432.626312) scale(0.14 -0.14)">
       <use xlink:href="#DejaVuSans-30"/>
      </g>
     </g>
    </g>
    <g id="xtick_12">
     <g id="line2d_27">
      <g>
       <use xlink:href="#m003dff8875" x="122.6075" y="414.9885" style="stroke: #000000; stroke-width: 0.8"/>
      </g>
     </g>
     <g id="text_29">
      <!-- 1 -->
      <g transform="translate(118.15375 432.626312) scale(0.14 -0.14)">
       <use xlink:href="#DejaVuSans-31"/>
      </g>
     </g>
    </g>
    <g id="xtick_13">
     <g id="line2d_28">
      <g>
       <use xlink:href="#m003dff8875" x="190.7575" y="414.9885" style="stroke: #000000; stroke-width: 0.8"/>
      </g>
     </g>
     <g id="text_30">
      <!-- 2 -->
      <g transform="translate(186.30375 432.626312) scale(0.14 -0.14)">
       <use xlink:href="#DejaVuSans-32"/>
      </g>
     </g>
    </g>
    <g id="xtick_14">
     <g id="line2d_29">
      <g>
       <use xlink:href="#m003dff8875" x="258.9075" y="414.9885" style="stroke: #000000; stroke-width: 0.8"/>
      </g>
     </g>
     <g id="text_31">
      <!-- 3 -->
      <g transform="translate(254.45375 432.626312) scale(0.14 -0.14)">
       <use xlink:href="#DejaVuSans-33"/>
      </g>
     </g>
    </g>
    <g id="xtick_15">
     <g id="line2d_30">
      <g>
       <use xlink:href="#m003dff8875" x="327.0575" y="414.9885" style="stroke: #000000; stroke-width: 0.8"/>
      </g>
     </g>
     <g id="text_32">
      <!-- 4 -->
      <g transform="translate(322.60375 432.626312) scale(0.14 -0.14)">
       <use xlink:href="#DejaVuSans-34"/>
      </g>
     </g>
    </g>
    <g id="text_33">
     <!-- h -->
     <g transform="translate(186.32125 450.175687) scale(0.14 -0.14)">
      <use xlink:href="#DejaVuSans-68"/>
     </g>
    </g>
   </g>
   <g id="matplotlib.axis_6">
    <g id="ytick_10">
     <g id="line2d_31">
      <g>
       <use xlink:href="#m06760ecc6c" x="40.8275" y="375.505325" style="stroke: #000000; stroke-width: 0.8"/>
      </g>
     </g>
     <g id="text_34">
      <!-- 1 -->
      <g transform="translate(24.92 380.824231) scale(0.14 -0.14)">
       <use xlink:href="#DejaVuSans-31"/>
      </g>
     </g>
    </g>
    <g id="ytick_11">
     <g id="line2d_32">
      <g>
       <use xlink:href="#m06760ecc6c" x="40.8275" y="319.100788" style="stroke: #000000; stroke-width: 0.8"/>
      </g>
     </g>
     <g id="text_35">
      <!-- 2 -->
      <g transform="translate(24.92 324.419694) scale(0.14 -0.14)">
       <use xlink:href="#DejaVuSans-32"/>
      </g>
     </g>
    </g>
    <g id="ytick_12">
     <g id="line2d_33">
      <g>
       <use xlink:href="#m06760ecc6c" x="40.8275" y="262.696252" style="stroke: #000000; stroke-width: 0.8"/>
      </g>
     </g>
     <g id="text_36">
      <!-- 3 -->
      <g transform="translate(24.92 268.015158) scale(0.14 -0.14)">
       <use xlink:href="#DejaVuSans-33"/>
      </g>
     </g>
    </g>
    <g id="text_37">
     <!-- Penalty Factor $\gamma$ of $\gamma T_{0}$ -->
     <g transform="translate(17.84 412.662036) rotate(-90) scale(0.14 -0.14)">
      <use xlink:href="#DejaVuSans-50" transform="translate(0 0.015625)"/>
      <use xlink:href="#DejaVuSans-65" transform="translate(60.302734 0.015625)"/>
      <use xlink:href="#DejaVuSans-6e" transform="translate(121.826172 0.015625)"/>
      <use xlink:href="#DejaVuSans-61" transform="translate(185.205078 0.015625)"/>
      <use xlink:href="#DejaVuSans-6c" transform="translate(246.484375 0.015625)"/>
      <use xlink:href="#DejaVuSans-74" transform="translate(274.267578 0.015625)"/>
      <use xlink:href="#DejaVuSans-79" transform="translate(313.476562 0.015625)"/>
      <use xlink:href="#DejaVuSans-20" transform="translate(372.65625 0.015625)"/>
      <use xlink:href="#DejaVuSans-46" transform="translate(404.443359 0.015625)"/>
      <use xlink:href="#DejaVuSans-61" transform="translate(461.962891 0.015625)"/>
      <use xlink:href="#DejaVuSans-63" transform="translate(523.242188 0.015625)"/>
      <use xlink:href="#DejaVuSans-74" transform="translate(578.222656 0.015625)"/>
      <use xlink:href="#DejaVuSans-6f" transform="translate(617.431641 0.015625)"/>
      <use xlink:href="#DejaVuSans-72" transform="translate(678.613281 0.015625)"/>
      <use xlink:href="#DejaVuSans-20" transform="translate(719.726562 0.015625)"/>
      <use xlink:href="#Cmmi10-b0" transform="translate(751.513672 0.015625)"/>
      <use xlink:href="#DejaVuSans-20" transform="translate(803.222656 0.015625)"/>
      <use xlink:href="#DejaVuSans-6f" transform="translate(835.009766 0.015625)"/>
      <use xlink:href="#DejaVuSans-66" transform="translate(896.191406 0.015625)"/>
      <use xlink:href="#DejaVuSans-20" transform="translate(931.396484 0.015625)"/>
      <use xlink:href="#Cmmi10-b0" transform="translate(963.183594 0.015625)"/>
      <use xlink:href="#Cmmi10-54" transform="translate(1014.892578 0.015625)"/>
      <use xlink:href="#Cmr10-30" transform="translate(1073.291016 -16.990625) scale(0.7)"/>
     </g>
    </g>
   </g>
   <g id="line2d_34">
    <path d="M 54.4575 375.505325 
L 122.6075 364.518899 
L 190.7575 340.790484 
L 258.9075 311.285702 
L 327.0575 276.967279 
" clip-path="url(#pe4d78352fc)" style="fill: none; stroke: #ee2a25; stroke-width: 2; stroke-linecap: square"/>
    <g clip-path="url(#pe4d78352fc)">
     <use xlink:href="#m5457e251d6" x="54.4575" y="375.505325" style="fill: #ee2a25; stroke: #ee2a25"/>
     <use xlink:href="#m5457e251d6" x="122.6075" y="364.518899" style="fill: #ee2a25; stroke: #ee2a25"/>
     <use xlink:href="#m5457e251d6" x="190.7575" y="340.790484" style="fill: #ee2a25; stroke: #ee2a25"/>
     <use xlink:href="#m5457e251d6" x="258.9075" y="311.285702" style="fill: #ee2a25; stroke: #ee2a25"/>
     <use xlink:href="#m5457e251d6" x="327.0575" y="276.967279" style="fill: #ee2a25; stroke: #ee2a25"/>
    </g>
   </g>
   <g id="line2d_35">
    <path d="M 54.4575 375.505325 
L 122.6075 364.224417 
L 190.7575 341.662603 
L 258.9075 307.819881 
L 327.0575 262.696252 
" clip-path="url(#pe4d78352fc)" style="fill: none; stroke-dasharray: 7.4,3.2; stroke-dashoffset: 0; stroke: #0076aa; stroke-width: 2"/>
    <g clip-path="url(#pe4d78352fc)">
     <use xlink:href="#m56108563b6" x="54.4575" y="375.505325" style="fill: #0076aa; stroke: #0076aa; stroke-linejoin: miter"/>
     <use xlink:href="#m56108563b6" x="122.6075" y="364.224417" style="fill: #0076aa; stroke: #0076aa; stroke-linejoin: miter"/>
     <use xlink:href="#m56108563b6" x="190.7575" y="341.662603" style="fill: #0076aa; stroke: #0076aa; stroke-linejoin: miter"/>
     <use xlink:href="#m56108563b6" x="258.9075" y="307.819881" style="fill: #0076aa; stroke: #0076aa; stroke-linejoin: miter"/>
     <use xlink:href="#m56108563b6" x="327.0575" y="262.696252" style="fill: #0076aa; stroke: #0076aa; stroke-linejoin: miter"/>
    </g>
   </g>
   <g id="patch_13">
    <path d="M 40.8275 414.9885 
L 40.8275 254.235571 
" style="fill: none; stroke: #000000; stroke-width: 0.8; stroke-linejoin: miter; stroke-linecap: square"/>
   </g>
   <g id="patch_14">
    <path d="M 340.6875 414.9885 
L 340.6875 254.235571 
" style="fill: none; stroke: #000000; stroke-width: 0.8; stroke-linejoin: miter; stroke-linecap: square"/>
   </g>
   <g id="patch_15">
    <path d="M 40.8275 414.9885 
L 340.6875 414.9885 
" style="fill: none; stroke: #000000; stroke-width: 0.8; stroke-linejoin: miter; stroke-linecap: square"/>
   </g>
   <g id="patch_16">
    <path d="M 40.8275 254.235571 
L 340.6875 254.235571 
" style="fill: none; stroke: #000000; stroke-width: 0.8; stroke-linejoin: miter; stroke-linecap: square"/>
   </g>
   <g id="text_38">
    <!-- $\mathrm{Equihash}(144,5)$ Time Penalty -->
    <g transform="translate(72.1495 248.235571) scale(0.168 -0.168)">
     <defs>
      <path id="Cmr10-31" d="M 594 0 
L 594 225 
Q 1394 225 1394 428 
L 1394 3788 
Q 1063 3628 556 3628 
L 556 3853 
Q 1341 3853 1741 4263 
L 1831 4263 
Q 1853 4263 1873 4245 
Q 1894 4228 1894 4206 
L 1894 428 
Q 1894 225 2694 225 
L 2694 0 
L 594 0 
z
" transform="scale(0.015625)"/>
      <path id="Cmr10-34" d="M 178 1056 
L 178 1281 
L 2156 4231 
Q 2178 4263 2222 4263 
L 2316 4263 
Q 2388 4263 2388 4191 
L 2388 1281 
L 3016 1281 
L 3016 1056 
L 2388 1056 
L 2388 428 
Q 2388 297 2575 261 
Q 2763 225 3009 225 
L 3009 0 
L 1247 0 
L 1247 225 
Q 1494 225 1681 261 
Q 1869 297 1869 428 
L 1869 1056 
L 178 1056 
z
M 391 1281 
L 1906 1281 
L 1906 3547 
L 391 1281 
z
" transform="scale(0.015625)"/>
      <path id="Cmr10-35" d="M 556 728 
Q 622 541 758 387 
Q 894 234 1080 148 
Q 1266 63 1466 63 
Q 1928 63 2103 422 
Q 2278 781 2278 1294 
Q 2278 1516 2270 1667 
Q 2263 1819 2228 1959 
Q 2169 2184 2020 2353 
Q 1872 2522 1656 2522 
Q 1441 2522 1286 2456 
Q 1131 2391 1034 2303 
Q 938 2216 863 2119 
Q 788 2022 769 2016 
L 697 2016 
Q 681 2016 657 2036 
Q 634 2056 634 2075 
L 634 4213 
Q 634 4228 654 4245 
Q 675 4263 697 4263 
L 716 4263 
Q 1147 4056 1631 4056 
Q 2106 4056 2547 4263 
L 2566 4263 
Q 2588 4263 2606 4247 
Q 2625 4231 2625 4213 
L 2625 4153 
Q 2625 4122 2613 4122 
Q 2394 3831 2064 3668 
Q 1734 3506 1381 3506 
Q 1125 3506 856 3578 
L 856 2369 
Q 1069 2541 1236 2614 
Q 1403 2688 1663 2688 
Q 2016 2688 2295 2484 
Q 2575 2281 2725 1954 
Q 2875 1628 2875 1288 
Q 2875 903 2686 575 
Q 2497 247 2172 53 
Q 1847 -141 1466 -141 
Q 1150 -141 886 21 
Q 622 184 470 459 
Q 319 734 319 1044 
Q 319 1188 412 1278 
Q 506 1369 647 1369 
Q 788 1369 883 1276 
Q 978 1184 978 1044 
Q 978 906 883 811 
Q 788 716 647 716 
Q 625 716 597 720 
Q 569 725 556 728 
z
" transform="scale(0.015625)"/>
     </defs>
     <use xlink:href="#Cmr10-45" transform="translate(0 0.015625)"/>
     <use xlink:href="#Cmr10-71" transform="translate(68.017578 0.015625)"/>
     <use xlink:href="#Cmr10-75" transform="translate(120.703125 0.015625)"/>
     <use xlink:href="#Cmr10-69" transform="translate(176.220703 0.015625)"/>
     <use xlink:href="#Cmr10-68" transform="translate(203.90625 0.015625)"/>
     <use xlink:href="#Cmr10-61" transform="translate(259.423828 0.015625)"/>
     <use xlink:href="#Cmr10-73" transform="translate(309.423828 0.015625)"/>
     <use xlink:href="#Cmr10-68" transform="translate(348.828125 0.015625)"/>
     <use xlink:href="#Cmr10-28" transform="translate(404.345703 0.015625)"/>
     <use xlink:href="#Cmr10-31" transform="translate(443.164062 0.015625)"/>
     <use xlink:href="#Cmr10-34" transform="translate(493.164062 0.015625)"/>
     <use xlink:href="#Cmr10-34" transform="translate(543.164062 0.015625)"/>
     <use xlink:href="#Cmmi10-3b" transform="translate(593.164062 0.015625)"/>
     <use xlink:href="#Cmr10-35" transform="translate(638.408203 0.015625)"/>
     <use xlink:href="#Cmr10-29" transform="translate(688.408203 0.015625)"/>
     <use xlink:href="#DejaVuSans-20" transform="translate(727.226562 0.015625)"/>
     <use xlink:href="#DejaVuSans-54" transform="translate(759.013672 0.015625)"/>
     <use xlink:href="#DejaVuSans-69" transform="translate(820.097656 0.015625)"/>
     <use xlink:href="#DejaVuSans-6d" transform="translate(847.880859 0.015625)"/>
     <use xlink:href="#DejaVuSans-65" transform="translate(945.292969 0.015625)"/>
     <use xlink:href="#DejaVuSans-20" transform="translate(1006.816406 0.015625)"/>
     <use xlink:href="#DejaVuSans-50" transform="translate(1038.603516 0.015625)"/>
     <use xlink:href="#DejaVuSans-65" transform="translate(1098.90625 0.015625)"/>
     <use xlink:href="#DejaVuSans-6e" transform="translate(1160.429688 0.015625)"/>
     <use xlink:href="#DejaVuSans-61" transform="translate(1223.808594 0.015625)"/>
     <use xlink:href="#DejaVuSans-6c" transform="translate(1285.087891 0.015625)"/>
     <use xlink:href="#DejaVuSans-74" transform="translate(1312.871094 0.015625)"/>
     <use xlink:href="#DejaVuSans-79" transform="translate(1352.080078 0.015625)"/>
    </g>
   </g>
  </g>
  <g id="axes_4">
   <g id="patch_17">
    <path d="M 416.1275 414.9885 
L 715.9875 414.9885 
L 715.9875 254.235571 
L 416.1275 254.235571 
z
" style="fill: #ffffff"/>
   </g>
   <g id="matplotlib.axis_7">
    <g id="xtick_16">
     <g id="line2d_36">
      <g>
       <use xlink:href="#m003dff8875" x="429.7575" y="414.9885" style="stroke: #000000; stroke-width: 0.8"/>
      </g>
     </g>
     <g id="text_39">
      <!-- 0 -->
      <g transform="translate(425.30375 432.626312) scale(0.14 -0.14)">
       <use xlink:href="#DejaVuSans-30"/>
      </g>
     </g>
    </g>
    <g id="xtick_17">
     <g id="line2d_37">
      <g>
       <use xlink:href="#m003dff8875" x="497.9075" y="414.9885" style="stroke: #000000; stroke-width: 0.8"/>
      </g>
     </g>
     <g id="text_40">
      <!-- 1 -->
      <g transform="translate(493.45375 432.626312) scale(0.14 -0.14)">
       <use xlink:href="#DejaVuSans-31"/>
      </g>
     </g>
    </g>
    <g id="xtick_18">
     <g id="line2d_38">
      <g>
       <use xlink:href="#m003dff8875" x="566.0575" y="414.9885" style="stroke: #000000; stroke-width: 0.8"/>
      </g>
     </g>
     <g id="text_41">
      <!-- 2 -->
      <g transform="translate(561.60375 432.626312) scale(0.14 -0.14)">
       <use xlink:href="#DejaVuSans-32"/>
      </g>
     </g>
    </g>
    <g id="xtick_19">
     <g id="line2d_39">
      <g>
       <use xlink:href="#m003dff8875" x="634.2075" y="414.9885" style="stroke: #000000; stroke-width: 0.8"/>
      </g>
     </g>
     <g id="text_42">
      <!-- 3 -->
      <g transform="translate(629.75375 432.626312) scale(0.14 -0.14)">
       <use xlink:href="#DejaVuSans-33"/>
      </g>
     </g>
    </g>
    <g id="xtick_20">
     <g id="line2d_40">
      <g>
       <use xlink:href="#m003dff8875" x="702.3575" y="414.9885" style="stroke: #000000; stroke-width: 0.8"/>
      </g>
     </g>
     <g id="text_43">
      <!-- 4 -->
      <g transform="translate(697.90375 432.626312) scale(0.14 -0.14)">
       <use xlink:href="#DejaVuSans-34"/>
      </g>
     </g>
    </g>
    <g id="text_44">
     <!-- h -->
     <g transform="translate(561.62125 450.175687) scale(0.14 -0.14)">
      <use xlink:href="#DejaVuSans-68"/>
     </g>
    </g>
   </g>
   <g id="matplotlib.axis_8">
    <g id="ytick_13">
     <g id="line2d_41">
      <g>
       <use xlink:href="#m06760ecc6c" x="416.1275" y="407.681549" style="stroke: #000000; stroke-width: 0.8"/>
      </g>
     </g>
     <g id="text_45">
      <!-- 0 -->
      <g transform="translate(400.22 413.000455) scale(0.14 -0.14)">
       <use xlink:href="#DejaVuSans-30"/>
      </g>
     </g>
    </g>
    <g id="ytick_14">
     <g id="line2d_42">
      <g>
       <use xlink:href="#m06760ecc6c" x="416.1275" y="352.79159" style="stroke: #000000; stroke-width: 0.8"/>
      </g>
     </g>
     <g id="text_46">
      <!-- 1000 -->
      <g transform="translate(373.4975 358.110496) scale(0.14 -0.14)">
       <use xlink:href="#DejaVuSans-31"/>
       <use xlink:href="#DejaVuSans-30" x="63.623047"/>
       <use xlink:href="#DejaVuSans-30" x="127.246094"/>
       <use xlink:href="#DejaVuSans-30" x="190.869141"/>
      </g>
     </g>
    </g>
    <g id="ytick_15">
     <g id="line2d_43">
      <g>
       <use xlink:href="#m06760ecc6c" x="416.1275" y="297.901631" style="stroke: #000000; stroke-width: 0.8"/>
      </g>
     </g>
     <g id="text_47">
      <!-- 2000 -->
      <g transform="translate(373.4975 303.220538) scale(0.14 -0.14)">
       <use xlink:href="#DejaVuSans-32"/>
       <use xlink:href="#DejaVuSans-30" x="63.623047"/>
       <use xlink:href="#DejaVuSans-30" x="127.246094"/>
       <use xlink:href="#DejaVuSans-30" x="190.869141"/>
      </g>
     </g>
    </g>
    <g id="text_48">
     <!-- PeakUSS (MB) -->
     <g transform="translate(366.585938 383.769536) rotate(-90) scale(0.14 -0.14)">
      <use xlink:href="#DejaVuSans-50"/>
      <use xlink:href="#DejaVuSans-65" x="56.677734"/>
      <use xlink:href="#DejaVuSans-61" x="118.201172"/>
      <use xlink:href="#DejaVuSans-6b" x="179.480469"/>
      <use xlink:href="#DejaVuSans-55" x="237.390625"/>
      <use xlink:href="#DejaVuSans-53" x="310.583984"/>
      <use xlink:href="#DejaVuSans-53" x="374.060547"/>
      <use xlink:href="#DejaVuSans-20" x="437.537109"/>
      <use xlink:href="#DejaVuSans-28" x="469.324219"/>
      <use xlink:href="#DejaVuSans-4d" x="508.337891"/>
      <use xlink:href="#DejaVuSans-42" x="594.617188"/>
      <use xlink:href="#DejaVuSans-29" x="663.220703"/>
     </g>
    </g>
   </g>
   <g id="line2d_44">
    <path d="M 429.7575 327.311671 
L 497.9075 341.550126 
L 566.0575 355.750159 
L 634.2075 368.221157 
L 702.3575 368.270558 
" clip-path="url(#p58868fb530)" style="fill: none; stroke: #ee2a25; stroke-width: 2; stroke-linecap: square"/>
    <g clip-path="url(#p58868fb530)">
     <use xlink:href="#m5457e251d6" x="429.7575" y="327.311671" style="fill: #ee2a25; stroke: #ee2a25"/>
     <use xlink:href="#m5457e251d6" x="497.9075" y="341.550126" style="fill: #ee2a25; stroke: #ee2a25"/>
     <use xlink:href="#m5457e251d6" x="566.0575" y="355.750159" style="fill: #ee2a25; stroke: #ee2a25"/>
     <use xlink:href="#m5457e251d6" x="634.2075" y="368.221157" style="fill: #ee2a25; stroke: #ee2a25"/>
     <use xlink:href="#m5457e251d6" x="702.3575" y="368.270558" style="fill: #ee2a25; stroke: #ee2a25"/>
    </g>
   </g>
   <g id="line2d_45">
    <path d="M 429.7575 353.23071 
L 497.9075 364.208701 
L 566.0575 375.186693 
L 634.2075 376.064932 
L 702.3575 376.064932 
" clip-path="url(#p58868fb530)" style="fill: none; stroke-dasharray: 7.4,3.2; stroke-dashoffset: 0; stroke: #0076aa; stroke-width: 2"/>
    <g clip-path="url(#p58868fb530)">
     <use xlink:href="#m56108563b6" x="429.7575" y="353.23071" style="fill: #0076aa; stroke: #0076aa; stroke-linejoin: miter"/>
     <use xlink:href="#m56108563b6" x="497.9075" y="364.208701" style="fill: #0076aa; stroke: #0076aa; stroke-linejoin: miter"/>
     <use xlink:href="#m56108563b6" x="566.0575" y="375.186693" style="fill: #0076aa; stroke: #0076aa; stroke-linejoin: miter"/>
     <use xlink:href="#m56108563b6" x="634.2075" y="376.064932" style="fill: #0076aa; stroke: #0076aa; stroke-linejoin: miter"/>
     <use xlink:href="#m56108563b6" x="702.3575" y="376.064932" style="fill: #0076aa; stroke: #0076aa; stroke-linejoin: miter"/>
    </g>
   </g>
   <g id="line2d_46">
    <path d="M 429.7575 344.448316 
L 702.3575 344.448316 
" clip-path="url(#p58868fb530)" style="fill: none; stroke-dasharray: 5.55,2.4; stroke-dashoffset: 0; stroke: #ae8064; stroke-width: 1.5"/>
   </g>
   <g id="line2d_47">
    <path d="M 429.7575 261.542523 
L 702.3575 261.542523 
" clip-path="url(#p58868fb530)" style="fill: none; stroke-dasharray: 5.55,2.4; stroke-dashoffset: 0; stroke: #2e8b57; stroke-width: 1.5"/>
   </g>
   <g id="patch_18">
    <path d="M 416.1275 414.9885 
L 416.1275 254.235571 
" style="fill: none; stroke: #000000; stroke-width: 0.8; stroke-linejoin: miter; stroke-linecap: square"/>
   </g>
   <g id="patch_19">
    <path d="M 715.9875 414.9885 
L 715.9875 254.235571 
" style="fill: none; stroke: #000000; stroke-width: 0.8; stroke-linejoin: miter; stroke-linecap: square"/>
   </g>
   <g id="patch_20">
    <path d="M 416.1275 414.9885 
L 715.9875 414.9885 
" style="fill: none; stroke: #000000; stroke-width: 0.8; stroke-linejoin: miter; stroke-linecap: square"/>
   </g>
   <g id="patch_21">
    <path d="M 416.1275 254.235571 
L 715.9875 254.235571 
" style="fill: none; stroke: #000000; stroke-width: 0.8; stroke-linejoin: miter; stroke-linecap: square"/>
   </g>
   <g id="text_49">
    <g clip-path="url(#p58868fb530)">
     <!-- y = 2nN (1152.0 MB) -->
     <g style="fill: #ae8064" transform="translate(502.7725 338.79103) scale(0.12 -0.12)">
      <use xlink:href="#DejaVuSans-79"/>
      <use xlink:href="#DejaVuSans-20" x="59.179688"/>
      <use xlink:href="#DejaVuSans-3d" x="90.966797"/>
      <use xlink:href="#DejaVuSans-20" x="174.755859"/>
      <use xlink:href="#DejaVuSans-32" x="206.542969"/>
      <use xlink:href="#DejaVuSans-6e" x="270.166016"/>
      <use xlink:href="#DejaVuSans-4e" x="333.544922"/>
      <use xlink:href="#DejaVuSans-20" x="408.349609"/>
      <use xlink:href="#DejaVuSans-28" x="440.136719"/>
      <use xlink:href="#DejaVuSans-31" x="479.150391"/>
      <use xlink:href="#DejaVuSans-31" x="542.773438"/>
      <use xlink:href="#DejaVuSans-35" x="606.396484"/>
      <use xlink:href="#DejaVuSans-32" x="670.019531"/>
      <use xlink:href="#DejaVuSans-2e" x="733.642578"/>
      <use xlink:href="#DejaVuSans-30" x="765.429688"/>
      <use xlink:href="#DejaVuSans-20" x="829.052734"/>
      <use xlink:href="#DejaVuSans-4d" x="860.839844"/>
      <use xlink:href="#DejaVuSans-42" x="947.119141"/>
      <use xlink:href="#DejaVuSans-29" x="1015.722656"/>
     </g>
    </g>
   </g>
   <g id="text_50">
    <g clip-path="url(#p58868fb530)">
     <!-- y = 2662.4 MB -->
     <g style="fill: #2e8b57" transform="translate(521.47 275.044818) scale(0.12 -0.12)">
      <use xlink:href="#DejaVuSans-79"/>
      <use xlink:href="#DejaVuSans-20" x="59.179688"/>
      <use xlink:href="#DejaVuSans-3d" x="90.966797"/>
      <use xlink:href="#DejaVuSans-20" x="174.755859"/>
      <use xlink:href="#DejaVuSans-32" x="206.542969"/>
      <use xlink:href="#DejaVuSans-36" x="270.166016"/>
      <use xlink:href="#DejaVuSans-36" x="333.789062"/>
      <use xlink:href="#DejaVuSans-32" x="397.412109"/>
      <use xlink:href="#DejaVuSans-2e" x="461.035156"/>
      <use xlink:href="#DejaVuSans-34" x="492.822266"/>
      <use xlink:href="#DejaVuSans-20" x="556.445312"/>
      <use xlink:href="#DejaVuSans-4d" x="588.232422"/>
      <use xlink:href="#DejaVuSans-42" x="674.511719"/>
     </g>
    </g>
   </g>
   <g id="text_51">
    <!-- $\mathrm{Equihash}(144,5)$ Peak Memory -->
    <g transform="translate(445.1815 248.235571) scale(0.168 -0.168)">
     <use xlink:href="#Cmr10-45" transform="translate(0 0.015625)"/>
     <use xlink:href="#Cmr10-71" transform="translate(68.017578 0.015625)"/>
     <use xlink:href="#Cmr10-75" transform="translate(120.703125 0.015625)"/>
     <use xlink:href="#Cmr10-69" transform="translate(176.220703 0.015625)"/>
     <use xlink:href="#Cmr10-68" transform="translate(203.90625 0.015625)"/>
     <use xlink:href="#Cmr10-61" transform="translate(259.423828 0.015625)"/>
     <use xlink:href="#Cmr10-73" transform="translate(309.423828 0.015625)"/>
     <use xlink:href="#Cmr10-68" transform="translate(348.828125 0.015625)"/>
     <use xlink:href="#Cmr10-28" transform="translate(404.345703 0.015625)"/>
     <use xlink:href="#Cmr10-31" transform="translate(443.164062 0.015625)"/>
     <use xlink:href="#Cmr10-34" transform="translate(493.164062 0.015625)"/>
     <use xlink:href="#Cmr10-34" transform="translate(543.164062 0.015625)"/>
     <use xlink:href="#Cmmi10-3b" transform="translate(593.164062 0.015625)"/>
     <use xlink:href="#Cmr10-35" transform="translate(638.408203 0.015625)"/>
     <use xlink:href="#Cmr10-29" transform="translate(688.408203 0.015625)"/>
     <use xlink:href="#DejaVuSans-20" transform="translate(727.226562 0.015625)"/>
     <use xlink:href="#DejaVuSans-50" transform="translate(759.013672 0.015625)"/>
     <use xlink:href="#DejaVuSans-65" transform="translate(819.316406 0.015625)"/>
     <use xlink:href="#DejaVuSans-61" transform="translate(880.839844 0.015625)"/>
     <use xlink:href="#DejaVuSans-6b" transform="translate(942.119141 0.015625)"/>
     <use xlink:href="#DejaVuSans-20" transform="translate(1000.029297 0.015625)"/>
     <use xlink:href="#DejaVuSans-4d" transform="translate(1031.816406 0.015625)"/>
     <use xlink:href="#DejaVuSans-65" transform="translate(1118.095703 0.015625)"/>
     <use xlink:href="#DejaVuSans-6d" transform="translate(1179.619141 0.015625)"/>
     <use xlink:href="#DejaVuSans-6f" transform="translate(1277.03125 0.015625)"/>
     <use xlink:href="#DejaVuSans-72" transform="translate(1338.212891 0.015625)"/>
     <use xlink:href="#DejaVuSans-79" transform="translate(1379.326172 0.015625)"/>
    </g>
   </g>
  </g>
  <g id="legend_1">
   <g id="patch_22">
    <path d="M 170.88875 488.3405 
L 535.32625 488.3405 
Q 538.12625 488.3405 538.12625 485.5405 
L 538.12625 443.04175 
Q 538.12625 440.24175 535.32625 440.24175 
L 170.88875 440.24175 
Q 168.08875 440.24175 168.08875 443.04175 
L 168.08875 485.5405 
Q 168.08875 488.3405 170.88875 488.3405 
z
" style="fill: #ffffff; opacity: 0.9; stroke: #444444; stroke-linejoin: miter"/>
   </g>
   <g id="line2d_48">
    <path d="M 175.08875 452.979562 
L 194.68875 452.979562 
L 214.28875 452.979562 
" style="fill: none; stroke: #ee2a25; stroke-width: 2; stroke-linecap: square"/>
    <g>
     <use xlink:href="#m5457e251d6" x="194.68875" y="452.979562" style="fill: #ee2a25; stroke: #ee2a25"/>
    </g>
   </g>
   <g id="text_52">
    <!-- Our impl -->
    <g transform="translate(224.08875 457.879562) scale(0.14 -0.14)">
     <defs>
      <path id="DejaVuSans-4f" d="M 2522 4238 
Q 1834 4238 1429 3725 
Q 1025 3213 1025 2328 
Q 1025 1447 1429 934 
Q 1834 422 2522 422 
Q 3209 422 3611 934 
Q 4013 1447 4013 2328 
Q 4013 3213 3611 3725 
Q 3209 4238 2522 4238 
z
M 2522 4750 
Q 3503 4750 4090 4092 
Q 4678 3434 4678 2328 
Q 4678 1225 4090 567 
Q 3503 -91 2522 -91 
Q 1538 -91 948 565 
Q 359 1222 359 2328 
Q 359 3434 948 4092 
Q 1538 4750 2522 4750 
z
" transform="scale(0.015625)"/>
      <path id="DejaVuSans-75" d="M 544 1381 
L 544 3500 
L 1119 3500 
L 1119 1403 
Q 1119 906 1312 657 
Q 1506 409 1894 409 
Q 2359 409 2629 706 
Q 2900 1003 2900 1516 
L 2900 3500 
L 3475 3500 
L 3475 0 
L 2900 0 
L 2900 538 
Q 2691 219 2414 64 
Q 2138 -91 1772 -91 
Q 1169 -91 856 284 
Q 544 659 544 1381 
z
M 1991 3584 
L 1991 3584 
z
" transform="scale(0.015625)"/>
      <path id="DejaVuSans-70" d="M 1159 525 
L 1159 -1331 
L 581 -1331 
L 581 3500 
L 1159 3500 
L 1159 2969 
Q 1341 3281 1617 3432 
Q 1894 3584 2278 3584 
Q 2916 3584 3314 3078 
Q 3713 2572 3713 1747 
Q 3713 922 3314 415 
Q 2916 -91 2278 -91 
Q 1894 -91 1617 61 
Q 1341 213 1159 525 
z
M 3116 1747 
Q 3116 2381 2855 2742 
Q 2594 3103 2138 3103 
Q 1681 3103 1420 2742 
Q 1159 2381 1159 1747 
Q 1159 1113 1420 752 
Q 1681 391 2138 391 
Q 2594 391 2855 752 
Q 3116 1113 3116 1747 
z
" transform="scale(0.015625)"/>
     </defs>
     <use xlink:href="#DejaVuSans-4f"/>
     <use xlink:href="#DejaVuSans-75" x="78.710938"/>
     <use xlink:href="#DejaVuSans-72" x="142.089844"/>
     <use xlink:href="#DejaVuSans-20" x="183.203125"/>
     <use xlink:href="#DejaVuSans-69" x="214.990234"/>
     <use xlink:href="#DejaVuSans-6d" x="242.773438"/>
     <use xlink:href="#DejaVuSans-70" x="340.185547"/>
     <use xlink:href="#DejaVuSans-6c" x="403.662109"/>
    </g>
   </g>
   <g id="line2d_49">
    <path d="M 175.08875 473.528937 
L 194.68875 473.528937 
L 214.28875 473.528937 
" style="fill: none; stroke-dasharray: 7.4,3.2; stroke-dashoffset: 0; stroke: #0076aa; stroke-width: 2"/>
    <g>
     <use xlink:href="#m56108563b6" x="194.68875" y="473.528937" style="fill: #0076aa; stroke: #0076aa; stroke-linejoin: miter"/>
    </g>
   </g>
   <g id="text_53">
    <!-- Theory -->
    <g transform="translate(224.08875 478.428937) scale(0.14 -0.14)">
     <use xlink:href="#DejaVuSans-54"/>
     <use xlink:href="#DejaVuSans-68" x="61.083984"/>
     <use xlink:href="#DejaVuSans-65" x="124.462891"/>
     <use xlink:href="#DejaVuSans-6f" x="185.986328"/>
     <use xlink:href="#DejaVuSans-72" x="247.167969"/>
     <use xlink:href="#DejaVuSans-79" x="288.28125"/>
    </g>
   </g>
   <g id="line2d_50">
    <path d="M 312.49 452.979562 
L 332.09 452.979562 
L 351.69 452.979562 
" style="fill: none; stroke-dasharray: 5.55,2.4; stroke-dashoffset: 0; stroke: #2e8b57; stroke-width: 1.5"/>
   </g>
   <g id="text_54">
    <!-- State-of-the-Art (impl) -->
    <g transform="translate(361.49 457.879562) scale(0.14 -0.14)">
     <defs>
      <path id="DejaVuSans-2d" d="M 313 2009 
L 1997 2009 
L 1997 1497 
L 313 1497 
L 313 2009 
z
" transform="scale(0.015625)"/>
      <path id="DejaVuSans-41" d="M 2188 4044 
L 1331 1722 
L 3047 1722 
L 2188 4044 
z
M 1831 4666 
L 2547 4666 
L 4325 0 
L 3669 0 
L 3244 1197 
L 1141 1197 
L 716 0 
L 50 0 
L 1831 4666 
z
" transform="scale(0.015625)"/>
     </defs>
     <use xlink:href="#DejaVuSans-53"/>
     <use xlink:href="#DejaVuSans-74" x="63.476562"/>
     <use xlink:href="#DejaVuSans-61" x="102.685547"/>
     <use xlink:href="#DejaVuSans-74" x="163.964844"/>
     <use xlink:href="#DejaVuSans-65" x="203.173828"/>
     <use xlink:href="#DejaVuSans-2d" x="264.697266"/>
     <use xlink:href="#DejaVuSans-6f" x="302.65625"/>
     <use xlink:href="#DejaVuSans-66" x="363.837891"/>
     <use xlink:href="#DejaVuSans-2d" x="393.542969"/>
     <use xlink:href="#DejaVuSans-74" x="429.626953"/>
     <use xlink:href="#DejaVuSans-68" x="468.835938"/>
     <use xlink:href="#DejaVuSans-65" x="532.214844"/>
     <use xlink:href="#DejaVuSans-2d" x="593.738281"/>
     <use xlink:href="#DejaVuSans-41" x="627.572266"/>
     <use xlink:href="#DejaVuSans-72" x="695.980469"/>
     <use xlink:href="#DejaVuSans-74" x="737.09375"/>
     <use xlink:href="#DejaVuSans-20" x="776.302734"/>
     <use xlink:href="#DejaVuSans-28" x="808.089844"/>
     <use xlink:href="#DejaVuSans-69" x="847.103516"/>
     <use xlink:href="#DejaVuSans-6d" x="874.886719"/>
     <use xlink:href="#DejaVuSans-70" x="972.298828"/>
     <use xlink:href="#DejaVuSans-6c" x="1035.775391"/>
     <use xlink:href="#DejaVuSans-29" x="1063.558594"/>
    </g>
   </g>
   <g id="line2d_51">
    <path d="M 312.49 473.528937 
L 332.09 473.528937 
L 351.69 473.528937 
" style="fill: none; stroke-dasharray: 5.55,2.4; stroke-dashoffset: 0; stroke: #ae8064; stroke-width: 1.5"/>
   </g>
   <g id="text_55">
    <!-- State-of-the-Art (theory) -->
    <g transform="translate(361.49 478.428937) scale(0.14 -0.14)">
     <use xlink:href="#DejaVuSans-53"/>
     <use xlink:href="#DejaVuSans-74" x="63.476562"/>
     <use xlink:href="#DejaVuSans-61" x="102.685547"/>
     <use xlink:href="#DejaVuSans-74" x="163.964844"/>
     <use xlink:href="#DejaVuSans-65" x="203.173828"/>
     <use xlink:href="#DejaVuSans-2d" x="264.697266"/>
     <use xlink:href="#DejaVuSans-6f" x="302.65625"/>
     <use xlink:href="#DejaVuSans-66" x="363.837891"/>
     <use xlink:href="#DejaVuSans-2d" x="393.542969"/>
     <use xlink:href="#DejaVuSans-74" x="429.626953"/>
     <use xlink:href="#DejaVuSans-68" x="468.835938"/>
     <use xlink:href="#DejaVuSans-65" x="532.214844"/>
     <use xlink:href="#DejaVuSans-2d" x="593.738281"/>
     <use xlink:href="#DejaVuSans-41" x="627.572266"/>
     <use xlink:href="#DejaVuSans-72" x="695.980469"/>
     <use xlink:href="#DejaVuSans-74" x="737.09375"/>
     <use xlink:href="#DejaVuSans-20" x="776.302734"/>
     <use xlink:href="#DejaVuSans-28" x="808.089844"/>
     <use xlink:href="#DejaVuSans-74" x="847.103516"/>
     <use xlink:href="#DejaVuSans-68" x="886.3125"/>
     <use xlink:href="#DejaVuSans-65" x="949.691406"/>
     <use xlink:href="#DejaVuSans-6f" x="1011.214844"/>
     <use xlink:href="#DejaVuSans-72" x="1072.396484"/>
     <use xlink:href="#DejaVuSans-79" x="1113.509766"/>
     <use xlink:href="#DejaVuSans-29" x="1172.689453"/>
    </g>
   </g>
  </g>
 </g>
 <defs>
  <clipPath id="pd123988e8b">
   <rect x="40.8275" y="25.968" width="299.86" height="160.752929"/>
  </clipPath>
  <clipPath id="p6a86486d72">
   <rect x="416.1275" y="25.968" width="299.86" height="160.752929"/>
  </clipPath>
  <clipPath id="pe4d78352fc">
   <rect x="40.8275" y="254.235571" width="299.86" height="160.752929"/>
  </clipPath>
  <clipPath id="p58868fb530">
   <rect x="416.1275" y="254.235571" width="299.86" height="160.752929"/>
  </clipPath>
 </defs>
</svg>
